<svg width="30" height="38" viewBox="0 0 30 38" fill="none" xmlns="http://www.w3.org/2000/svg">
<path d="M18.4266 37.0732C13.5395 37.0732 8.85267 35.1202 5.39702 31.6439C1.94137 28.1677 -1.35948e-07 23.4528 0 18.5366C1.35948e-07 13.6204 1.94137 8.90553 5.39702 5.42924C8.85267 1.95296 13.5395 -5.86252e-08 18.4266 0V1.04575C13.8152 1.04575 9.39279 2.88853 6.13208 6.1687C2.87138 9.44886 1.03954 13.8977 1.03954 18.5366C1.03954 23.1754 2.87138 27.6243 6.13208 30.9045C9.39278 34.1847 13.8152 36.0274 18.4266 36.0274V37.0732Z" fill="#F6F6F6"/>
<path d="M14.7203 6.666L18.4615 20.8059L22.1329 6.666H14.7203Z" fill="#F6F6F6"/>
<path d="M24.5455 17.9568L21.2238 30.3902H24.7552L24.5455 17.9568Z" fill="#F6F6F6"/>
<path d="M12.3427 17.9568L11.3287 30.3902H15.5944L12.3427 17.9568Z" fill="#F6F6F6"/>
<path d="M18.4266 0V1.04575C13.8152 1.04575 9.39279 2.88853 6.13208 6.1687C2.87138 9.44886 1.03954 13.8977 1.03954 18.5366C1.03954 23.1754 2.87138 27.6243 6.13208 30.9045C9.39278 34.1847 13.8152 36.0274 18.4266 36.0274V37.0732H28.5664C29.4755 37.0732 30 36.2823 30 35.614V31.8153C30 30.9359 29.2308 30.3902 28.5861 30.3902H24.7552H21.2238H15.5944H11.3287H6.13208L7.97203 6.666H14.7203H22.1329H28.5664C29.5455 6.666 30 5.78666 30 5.3294V1.35475C30 0.686456 29.3706 9.29178e-06 28.5664 9.29178e-06L18.4266 0Z" fill="#F6F6F6"/>
</svg>
