<svg width="174" height="65" viewBox="0 0 174 65" fill="none" xmlns="http://www.w3.org/2000/svg">
<path d="M56.9107 24.7643L63.3393 9.14286H68.675L71.4393 31.0321L66.2 31.0643L64.7536 17.6929L59.4179 31H54.4036L49.0679 17.725L47.6214 31.0643L42.3821 31.0321L45.1464 9.14286H50.4821L56.9107 24.7643ZM85.5862 29.5214C84.9219 30.1 84.1504 30.55 83.2719 30.8714C82.4147 31.1929 81.4504 31.3536 80.379 31.3536C79.2433 31.3536 78.204 31.1714 77.2612 30.8071C76.3183 30.4429 75.504 29.9286 74.8183 29.2643C74.154 28.5786 73.629 27.775 73.2433 26.8536C72.879 25.9107 72.6969 24.8821 72.6969 23.7679C72.6969 22.6321 72.879 21.6036 73.2433 20.6821C73.629 19.7607 74.154 18.9679 74.8183 18.3036C75.504 17.6179 76.3183 17.0929 77.2612 16.7286C78.204 16.3643 79.2433 16.1821 80.379 16.1821C82.5004 16.1821 84.2362 16.7929 85.5862 18.0143L85.6826 16.5357H89.7326V31H85.7147L85.5862 29.5214ZM77.454 23.8C77.454 24.9143 77.7969 25.825 78.4826 26.5321C79.1683 27.2393 80.0683 27.5929 81.1826 27.5929C82.2969 27.5929 83.2076 27.2393 83.9147 26.5321C84.6433 25.825 85.0076 24.9143 85.0076 23.8C85.0076 23.2429 84.9112 22.7393 84.7183 22.2893C84.5254 21.8179 84.2576 21.4214 83.9147 21.1C83.5933 20.7571 83.1969 20.4893 82.7254 20.2964C82.254 20.1036 81.7397 20.0071 81.1826 20.0071C80.0897 20.0071 79.1897 20.3607 78.4826 21.0679C77.7969 21.775 77.454 22.6857 77.454 23.8ZM92.7962 26.3714C93.8891 26.7786 94.8641 27.0786 95.7212 27.2714C96.5998 27.4643 97.5426 27.5607 98.5498 27.5607C98.8712 27.5607 99.2033 27.5393 99.5462 27.4964C99.9105 27.4536 100.232 27.3893 100.51 27.3036C100.81 27.1964 101.046 27.0679 101.218 26.9179C101.41 26.7679 101.507 26.575 101.507 26.3393C101.507 25.9964 101.271 25.7607 100.8 25.6321C100.35 25.4821 99.7819 25.375 99.0962 25.3107C98.4105 25.225 97.6712 25.1393 96.8783 25.0536C96.0855 24.9464 95.3462 24.7536 94.6605 24.475C93.9748 24.1964 93.3962 23.8 92.9248 23.2857C92.4748 22.75 92.2498 22.0107 92.2498 21.0679C92.2498 20.1679 92.4533 19.4071 92.8605 18.7857C93.2891 18.1643 93.8569 17.6607 94.5641 17.275C95.2712 16.8893 96.0855 16.6107 97.0069 16.4393C97.9283 16.2679 98.8926 16.1821 99.8998 16.1821C101.014 16.1821 102.053 16.2679 103.018 16.4393C103.982 16.5893 105.01 16.8143 106.103 17.1143V21.1964C105.075 20.7464 104.1 20.4357 103.178 20.2643C102.278 20.0714 101.293 19.975 100.221 19.975C99.9426 19.975 99.6319 19.9964 99.2891 20.0393C98.9676 20.0607 98.6676 20.1143 98.3891 20.2C98.1105 20.2857 97.8748 20.4143 97.6819 20.5857C97.4891 20.7357 97.3926 20.9393 97.3926 21.1964C97.3926 21.5393 97.6176 21.775 98.0676 21.9036C98.5391 22.0321 99.1176 22.1393 99.8033 22.225C100.489 22.2893 101.239 22.375 102.053 22.4821C102.868 22.5893 103.618 22.7821 104.303 23.0607C104.989 23.3179 105.557 23.7143 106.007 24.25C106.478 24.7857 106.714 25.525 106.714 26.4679C106.714 27.3893 106.5 28.1607 106.071 28.7821C105.643 29.4036 105.064 29.9071 104.335 30.2929C103.607 30.6786 102.771 30.9464 101.828 31.0964C100.907 31.2679 99.9426 31.3536 98.9355 31.3536C98.3569 31.3536 97.8105 31.3321 97.2962 31.2893C96.8033 31.2464 96.3105 31.1821 95.8176 31.0964C95.3462 31.0321 94.8641 30.9464 94.3712 30.8393C93.8783 30.7107 93.3533 30.5714 92.7962 30.4214V26.3714ZM115.121 12.5821V16.5357H118.143V20.425H115.121V25.5036C115.121 26.1893 115.25 26.6714 115.507 26.95C115.786 27.2286 116.15 27.3679 116.6 27.3679C116.814 27.3679 117.05 27.3357 117.307 27.2714C117.586 27.2071 117.832 27.1429 118.046 27.0786L118.014 30.9036C116.836 31.2464 115.775 31.4179 114.832 31.4179C114.039 31.4179 113.354 31.3 112.775 31.0643C112.218 30.8286 111.757 30.5179 111.393 30.1321C111.05 29.7464 110.793 29.2964 110.621 28.7821C110.471 28.2464 110.396 27.6893 110.396 27.1107V20.425H108.018V16.5357H110.396V12.5821H115.121ZM124.75 25.1179C125.007 25.9321 125.532 26.5643 126.325 27.0143C127.14 27.4643 128.254 27.6893 129.668 27.6893C130.804 27.6893 131.768 27.6143 132.561 27.4643C133.375 27.2929 133.868 27.1429 134.04 27.0143L134.168 30.5821C133.975 30.7321 133.44 30.9036 132.561 31.0964C131.704 31.2893 130.536 31.3857 129.057 31.3857C127.579 31.3857 126.261 31.2036 125.104 30.8393C123.947 30.4536 122.972 29.9286 122.179 29.2643C121.386 28.5786 120.775 27.7643 120.347 26.8214C119.94 25.8786 119.736 24.8286 119.736 23.6714C119.736 22.5357 119.95 21.5071 120.379 20.5857C120.807 19.6643 121.407 18.8821 122.179 18.2393C122.95 17.575 123.872 17.0714 124.943 16.7286C126.036 16.3643 127.247 16.1821 128.575 16.1821C129.99 16.1821 131.222 16.4071 132.272 16.8571C133.322 17.3071 134.179 17.9286 134.843 18.7214C135.529 19.5143 136 20.4571 136.257 21.55C136.515 22.6429 136.547 23.8321 136.354 25.1179H124.75ZM132.047 22.5464C131.94 21.7964 131.597 21.175 131.018 20.6821C130.461 20.1679 129.636 19.9107 128.543 19.9107C127.579 19.9107 126.754 20.1464 126.068 20.6179C125.404 21.0893 124.954 21.7321 124.718 22.5464H132.047ZM143.376 31H138.619V16.5357H142.637L142.765 18.2071C143.322 17.5857 143.965 17.1036 144.694 16.7607C145.444 16.3964 146.237 16.2143 147.072 16.2143C147.694 16.2143 148.315 16.3214 148.937 16.5357V20.7786C148.144 20.5214 147.426 20.3929 146.783 20.3929C145.669 20.3929 144.822 20.7357 144.244 21.4214C143.665 22.1071 143.376 23.0286 143.376 24.1857V31Z" fill="#F6F6F6"/>
<path d="M62.0271 56.1321C61.6414 56.3036 61.17 56.4643 60.6128 56.6143C60.0557 56.7643 59.4557 56.8929 58.8128 57C58.1914 57.1071 57.5378 57.1929 56.8521 57.2571C56.1664 57.3214 55.4807 57.3536 54.795 57.3536C52.995 57.3536 51.3557 57.0857 49.8771 56.55C48.3985 56.0143 47.1343 55.2643 46.0843 54.3C45.0557 53.3143 44.2521 52.125 43.6735 50.7321C43.095 49.3393 42.8057 47.7857 42.8057 46.0714C42.8057 44.3357 43.095 42.7821 43.6735 41.4107C44.2521 40.0179 45.0664 38.8286 46.1164 37.8429C47.1878 36.8571 48.4735 36.1071 49.9735 35.5929C51.4735 35.0571 53.145 34.7893 54.9878 34.7893C56.3164 34.7893 57.6128 34.9071 58.8771 35.1429C60.1628 35.3786 61.2128 35.6679 62.0271 36.0107V40.5429C61.1914 40.1786 60.2057 39.8786 59.07 39.6429C57.9343 39.3857 56.7878 39.2571 55.6307 39.2571C53.1235 39.2571 51.1843 39.8571 49.8128 41.0571C48.4414 42.2357 47.7557 43.8964 47.7557 46.0393C47.7557 48.1821 48.4414 49.8429 49.8128 51.0214C51.1843 52.2 53.1771 52.7893 55.7914 52.7893C57.0128 52.7893 58.1593 52.6714 59.2307 52.4357C60.3021 52.2 61.2343 51.9 62.0271 51.5357V56.1321ZM69.4863 57H64.7291V34.5H69.4863V57ZM76.7385 51.1179C76.9956 51.9321 77.5206 52.5643 78.3135 53.0143C79.1278 53.4643 80.2421 53.6893 81.6564 53.6893C82.7921 53.6893 83.7564 53.6143 84.5492 53.4643C85.3635 53.2929 85.8564 53.1429 86.0278 53.0143L86.1564 56.5821C85.9635 56.7321 85.4278 56.9036 84.5492 57.0964C83.6921 57.2893 82.5242 57.3857 81.0456 57.3857C79.5671 57.3857 78.2492 57.2036 77.0921 56.8393C75.9349 56.4536 74.9599 55.9286 74.1671 55.2643C73.3742 54.5786 72.7635 53.7643 72.3349 52.8214C71.9278 51.8786 71.7242 50.8286 71.7242 49.6714C71.7242 48.5357 71.9385 47.5071 72.3671 46.5857C72.7956 45.6643 73.3956 44.8821 74.1671 44.2393C74.9385 43.575 75.8599 43.0714 76.9314 42.7286C78.0242 42.3643 79.2349 42.1821 80.5635 42.1821C81.9778 42.1821 83.2099 42.4071 84.2599 42.8571C85.3099 43.3071 86.1671 43.9286 86.8314 44.7214C87.5171 45.5143 87.9885 46.4571 88.2456 47.55C88.5028 48.6429 88.5349 49.8321 88.3421 51.1179H76.7385ZM84.0349 48.5464C83.9278 47.7964 83.5849 47.175 83.0064 46.6821C82.4492 46.1679 81.6242 45.9107 80.5314 45.9107C79.5671 45.9107 78.7421 46.1464 78.0564 46.6179C77.3921 47.0893 76.9421 47.7321 76.7064 48.5464H84.0349ZM102.684 55.5214C102.02 56.1 101.248 56.55 100.37 56.8714C99.5124 57.1929 98.5481 57.3536 97.4767 57.3536C96.341 57.3536 95.3017 57.1714 94.3588 56.8071C93.416 56.4429 92.6017 55.9286 91.916 55.2643C91.2517 54.5786 90.7267 53.775 90.341 52.8536C89.9767 51.9107 89.7945 50.8821 89.7945 49.7679C89.7945 48.6321 89.9767 47.6036 90.341 46.6821C90.7267 45.7607 91.2517 44.9679 91.916 44.3036C92.6017 43.6179 93.416 43.0929 94.3588 42.7286C95.3017 42.3643 96.341 42.1821 97.4767 42.1821C99.5981 42.1821 101.334 42.7929 102.684 44.0143L102.78 42.5357H106.83V57H102.812L102.684 55.5214ZM94.5517 49.8C94.5517 50.9143 94.8945 51.825 95.5802 52.5321C96.266 53.2393 97.166 53.5929 98.2802 53.5929C99.3945 53.5929 100.305 53.2393 101.012 52.5321C101.741 51.825 102.105 50.9143 102.105 49.8C102.105 49.2429 102.009 48.7393 101.816 48.2893C101.623 47.8179 101.355 47.4214 101.012 47.1C100.691 46.7571 100.295 46.4893 99.8231 46.2964C99.3517 46.1036 98.8374 46.0071 98.2802 46.0071C97.1874 46.0071 96.2874 46.3607 95.5802 47.0679C94.8945 47.775 94.5517 48.6857 94.5517 49.8ZM114.665 57H109.908V42.5357H113.926L114.086 44.175C114.729 43.5536 115.511 43.0714 116.433 42.7286C117.376 42.3643 118.426 42.1821 119.583 42.1821C120.74 42.1821 121.726 42.3536 122.54 42.6964C123.354 43.0393 124.008 43.5214 124.501 44.1429C125.015 44.7429 125.39 45.4607 125.626 46.2964C125.861 47.1321 125.979 48.0321 125.979 48.9964V57H121.222V48.9964C121.222 47.9893 120.944 47.2393 120.386 46.7464C119.851 46.2536 119.133 46.0071 118.233 46.0071C117.076 46.0071 116.186 46.3714 115.565 47.1C114.965 47.8071 114.665 48.675 114.665 49.7036V57ZM128.051 37.5536C128.051 36.8036 128.34 36.1929 128.918 35.7214C129.497 35.2286 130.226 34.9821 131.104 34.9821C132.004 34.9821 132.733 35.2286 133.29 35.7214C133.868 36.1929 134.158 36.8036 134.158 37.5536C134.158 38.3036 133.868 38.925 133.29 39.4179C132.733 39.9107 132.004 40.1571 131.104 40.1571C130.226 40.1571 129.497 39.9107 128.918 39.4179C128.34 38.925 128.051 38.3036 128.051 37.5536ZM128.726 42.5357H133.483V57H128.726V42.5357ZM141.384 57H136.627V42.5357H140.645L140.805 44.175C141.448 43.5536 142.23 43.0714 143.152 42.7286C144.095 42.3643 145.145 42.1821 146.302 42.1821C147.459 42.1821 148.445 42.3536 149.259 42.6964C150.073 43.0393 150.727 43.5214 151.22 44.1429C151.734 44.7429 152.109 45.4607 152.345 46.2964C152.58 47.1321 152.698 48.0321 152.698 48.9964V57H147.941V48.9964C147.941 47.9893 147.662 47.2393 147.105 46.7464C146.57 46.2536 145.852 46.0071 144.952 46.0071C143.795 46.0071 142.905 46.3714 142.284 47.1C141.684 47.8071 141.384 48.675 141.384 49.7036V57ZM166.744 56.55C166.765 56.5071 166.776 56.4214 166.776 56.2929C166.797 56.1643 166.829 56.0786 166.872 56.0357C166.272 56.4643 165.597 56.7964 164.847 57.0321C164.097 57.2893 163.272 57.4179 162.372 57.4179C161.236 57.4179 160.186 57.2357 159.222 56.8714C158.279 56.5071 157.465 55.9929 156.779 55.3286C156.115 54.6429 155.59 53.8286 155.204 52.8857C154.84 51.9429 154.658 50.9036 154.658 49.7679C154.658 48.6321 154.84 47.6036 155.204 46.6821C155.59 45.7393 156.115 44.9357 156.779 44.2714C157.465 43.6071 158.279 43.0929 159.222 42.7286C160.186 42.3643 161.236 42.1821 162.372 42.1821C163.444 42.1821 164.408 42.3429 165.265 42.6643C166.144 42.9643 166.904 43.4036 167.547 43.9821L167.676 42.5357H171.694V54.4607C171.694 57.2679 170.869 59.4643 169.219 61.05C167.569 62.6571 165.233 63.4607 162.211 63.4607C161.397 63.4607 160.583 63.3857 159.769 63.2357C158.954 63.0857 158.097 62.8607 157.197 62.5607L157.229 58.2857C158.086 58.65 158.869 58.9179 159.576 59.0893C160.283 59.2821 160.99 59.3786 161.697 59.3786C163.09 59.3786 164.226 59.1429 165.104 58.6714C166.004 58.2214 166.551 57.5143 166.744 56.55ZM159.415 49.8321C159.415 50.925 159.758 51.825 160.444 52.5321C161.151 53.2393 162.061 53.5929 163.176 53.5929C164.311 53.5929 165.222 53.2393 165.908 52.5321C166.615 51.825 166.969 50.925 166.969 49.8321C166.969 48.7179 166.604 47.8071 165.876 47.1C165.169 46.3714 164.258 46.0071 163.144 46.0071C162.051 46.0071 161.151 46.3714 160.444 47.1C159.758 47.8071 159.415 48.7179 159.415 49.8321Z" fill="#F6F6F6"/>
<path d="M24.5688 57.4309C18.0527 57.4309 11.8036 54.827 7.19602 50.1919C2.58849 45.5569 -1.81264e-07 39.2704 0 32.7155C1.81264e-07 26.1605 2.58849 19.874 7.19602 15.239C11.8036 10.6039 18.0527 8 24.5688 8V9.39433C18.4203 9.39433 12.5237 11.8514 8.17611 16.2249C3.82851 20.5985 1.38605 26.5303 1.38605 32.7155C1.38605 38.9006 3.82851 44.8324 8.17611 49.206C12.5237 53.5795 18.4203 56.0366 24.5688 56.0366V57.4309Z" fill="#F6F6F6"/>
<path d="M19.627 16.888L24.6154 35.7411L29.5105 16.888H19.627Z" fill="#F6F6F6"/>
<path d="M32.7273 31.9424L28.2984 48.5202H33.007L32.7273 31.9424Z" fill="#F6F6F6"/>
<path d="M16.4569 31.9424L15.1049 48.5202H20.7925L16.4569 31.9424Z" fill="#F6F6F6"/>
<path d="M24.5688 8V9.39433C18.4203 9.39433 12.5237 11.8514 8.17611 16.2249C3.82851 20.5985 1.38605 26.5303 1.38605 32.7155C1.38605 38.9006 3.82851 44.8324 8.17611 49.206C12.5237 53.5795 18.4203 56.0366 24.5688 56.0366V57.4309H38.0886C39.3007 57.4309 40 56.3764 40 55.4854V50.4203C40 49.2479 38.9744 48.5202 38.1148 48.5202H33.007H28.2984H20.7925H15.1049H8.17611L10.6294 16.888H19.627H29.5105H38.0886C39.3939 16.888 40 15.7155 40 15.1059V9.80633C40 8.91527 39.1608 8.00001 38.0886 8.00001L24.5688 8Z" fill="#F6F6F6"/>
</svg>
