<svg width="30" height="30" viewBox="0 0 30 30" xmlns="http://www.w3.org/2000/svg">
<path d="M15 -0.0317383C6.71154 -0.0317383 -0.0328369 6.71076 -0.0328369 15.0001C-0.0328369 23.2895 6.71154 30.032 15 30.032C23.2884 30.032 30.0328 23.2895 30.0328 15.0001C30.0328 6.71076 23.2884 -0.0317383 15 -0.0317383ZM15 29.0308C7.26373 29.0308 0.970288 22.7364 0.970288 15.0001C0.970288 7.26389 7.26373 0.969512 15 0.969512C22.7362 0.969512 29.0297 7.26389 29.0297 15.0001C29.0297 22.7364 22.7362 29.0308 15 29.0308Z" />
<path d="M18.2813 6.56278H15.78C12.5944 6.53091 12.1875 8.50247 12.1875 10.6362V12.1878H10.7813C10.7177 12.1793 10.653 12.1856 10.5923 12.2061C10.5316 12.2267 10.4764 12.261 10.431 12.3063C10.3857 12.3516 10.3514 12.4068 10.3309 12.4676C10.3103 12.5283 10.304 12.593 10.3125 12.6565V15.469C10.304 15.5326 10.3103 15.5973 10.3309 15.658C10.3514 15.7187 10.3857 15.7739 10.431 15.8193C10.4764 15.8646 10.5316 15.8989 10.5923 15.9194C10.653 15.94 10.7177 15.9463 10.7813 15.9378H12.1875V22.969C12.1797 23.0327 12.1865 23.0973 12.2075 23.1579C12.2285 23.2186 12.2631 23.2736 12.3086 23.3188C12.3541 23.3641 12.4093 23.3983 12.47 23.4189C12.5308 23.4395 12.5954 23.446 12.6591 23.4378H15.5231C15.7997 23.4697 16.0238 23.2456 15.9356 22.969L15.9375 15.9378H18.2813C18.3448 15.9463 18.4095 15.94 18.4702 15.9194C18.531 15.8989 18.5862 15.8646 18.6315 15.8193C18.6768 15.7739 18.7111 15.7187 18.7317 15.658C18.7522 15.5973 18.7585 15.5326 18.75 15.469V12.6565C18.7585 12.593 18.7522 12.5283 18.7317 12.4676C18.7111 12.4068 18.6768 12.3516 18.6315 12.3063C18.5862 12.261 18.531 12.2267 18.4702 12.2061C18.4095 12.1856 18.3448 12.1793 18.2813 12.1878H15.9347L15.9375 10.7815C16.0284 10.1825 16.0284 10.28 16.5844 10.3128H18.2616C18.3919 10.2837 18.5306 10.2997 18.6281 10.205C18.7256 10.1103 18.7819 9.98091 18.7491 9.84403V7.03153C18.7577 6.96802 18.7516 6.90337 18.7312 6.84262C18.7107 6.78187 18.6765 6.72666 18.6313 6.68129C18.586 6.63593 18.5308 6.60163 18.4701 6.58107C18.4094 6.56051 18.3448 6.55426 18.2813 6.56278V6.56278ZM17.7797 9.32278L16.6041 9.27778C15.1481 9.27778 15.0263 10.0681 15.0263 10.8772L15.0225 12.6547C15.0224 12.7205 15.0352 12.7857 15.0604 12.8465C15.0855 12.9074 15.1223 12.9627 15.1688 13.0093C15.2153 13.0558 15.2705 13.0928 15.3313 13.118C15.3921 13.1432 15.4573 13.1562 15.5231 13.1562H17.8125V14.9675H15.525C15.3922 14.9675 15.2647 15.0202 15.1707 15.114C15.0766 15.2079 15.0237 15.3352 15.0234 15.4681L15.0225 22.5003H13.125V15.469C13.125 15.1925 12.9366 14.9684 12.6591 14.9684H11.25V13.1572H12.6591C12.7249 13.1573 12.79 13.1444 12.8508 13.1193C12.9116 13.0942 12.9669 13.0574 13.0134 13.0109C13.1072 12.9162 13.1241 12.7887 13.1241 12.6556V10.6353C13.1241 8.53341 13.5488 7.53216 15.7791 7.53216H17.7788V9.32278H17.7797Z" />
</svg>
