<svg width="46" height="50" viewBox="0 0 46 50" fill="none" xmlns="http://www.w3.org/2000/svg">
<path d="M11.9262 43.4861V43.1464L11.6103 43.0213C4.93803 40.3781 0.5 33.8872 0.5 26.6658V18.0867C0.5 8.38978 8.39148 0.5 18.0905 0.5H27.6142C37.3132 0.5 45.2047 8.38978 45.2047 18.0867V26.6658C45.2047 36.3627 37.3132 44.2525 27.6142 44.2525H18.539H18.3462L18.2033 44.3819L12.6816 49.3828L12.6809 49.3834C12.5972 49.4595 12.4885 49.5 12.3784 49.5C12.3161 49.5 12.2543 49.4873 12.1964 49.4615L12.1949 49.4608C12.0314 49.3886 11.9262 49.2271 11.9262 49.0478V43.4861ZM17.8682 43.4654L17.8686 43.465C17.9516 43.3897 18.0593 43.3482 18.1714 43.3482H27.6142C36.816 43.3482 44.3004 35.865 44.3004 26.6658V18.0867C44.3004 8.88756 36.816 1.40436 27.6142 1.40436H18.0905C8.88967 1.40436 1.40436 8.88754 1.40436 18.0867V26.6658C1.40436 33.7248 5.87507 40.0477 12.5287 42.4007L12.5303 42.4012C12.7096 42.464 12.8305 42.634 12.8305 42.8263V46.9006V48.0281L13.6662 47.2712L17.8682 43.4654Z" stroke="url(#paint0_linear_30_475)"/>
<path d="M29.3113 25.6531L29.311 25.653C28.7828 25.3094 28.1558 25.193 27.5385 25.3205C26.923 25.4503 26.3955 25.8126 26.0518 26.3434L26.0511 26.3445L25.7759 26.7672L25.5658 27.0901L25.2 26.9692C23.93 26.5496 22.5229 26.0506 21.2234 25.0133C19.9148 23.9686 18.7488 22.407 17.8867 19.9115L17.7765 19.5924L18.0313 19.3709L18.7235 18.7692C19.7029 17.9177 19.8067 16.4261 18.9539 15.4437L14.376 10.1774L14.3758 10.1772C14.2132 9.9898 13.9272 9.96891 13.7374 10.1329C13.7373 10.133 13.7372 10.1331 13.7371 10.1332L10.8633 12.631C10.8633 12.631 10.8633 12.631 10.8632 12.631C9.74323 13.6047 9.44096 14.8032 9.46627 15.9145C9.49195 17.0422 9.85571 18.0506 10.0491 18.5823L10.0497 18.5839C10.0572 18.6047 10.0668 18.626 10.0792 18.6485C10.1804 18.8297 12.5401 23.0352 16.3414 26.9069L16.3414 26.9069C18.2348 28.8358 20.9095 30.7069 23.1579 32.1175C24.2783 32.8204 25.2856 33.4045 26.0257 33.8192C26.3956 34.0264 26.6985 34.1912 26.915 34.3072C27.0233 34.3652 27.1098 34.4109 27.1722 34.4435L27.2468 34.4823L27.2692 34.4938L27.276 34.4972L27.278 34.4982L27.2785 34.4985L27.2787 34.4986L27.3051 34.5116L27.3297 34.5276C28.0442 34.9914 28.847 35.2135 29.6417 35.2135C31.0396 35.2135 32.4077 34.5284 33.2237 33.2746L35.2965 30.0826C35.2966 30.0825 35.2967 30.0823 35.2967 30.0822C35.4331 29.8704 35.3724 29.5902 35.1634 29.4542L29.3113 25.6531ZM29.3113 25.6531L35.1632 29.4541L29.3113 25.6531ZM10.8867 18.2395L10.8717 18.1975C10.4839 17.1099 10.3021 16.1747 10.3849 15.3631C10.4702 14.5271 10.8329 13.8561 11.4565 13.3141L11.4566 13.314L13.6133 11.4401L13.9906 11.1123L14.3185 11.4895L18.2718 16.0369C18.2719 16.037 18.2719 16.0371 18.272 16.0371C18.8038 16.6484 18.7423 17.5547 18.1314 18.086L18.1312 18.0862L16.963 19.101L10.8867 18.2395ZM10.8867 18.2395L10.9089 18.2782M10.8867 18.2395L10.9089 18.2782M10.9089 18.2782C11.2261 18.8316 13.522 22.7452 16.9865 26.2744C18.8591 28.1821 21.5509 30.0432 23.7603 31.4223C25.8619 32.7342 27.5579 33.6289 27.7634 33.7365C29.382 34.7659 31.4543 34.3377 32.4644 32.7817C32.4644 32.7817 32.4644 32.7817 32.4644 32.7816L34.0203 30.385L34.2925 29.9657L33.8732 29.6934M10.9089 18.2782L33.8732 29.6934M16.8269 19.5747L16.8271 19.5755C17.7971 22.7273 19.2106 24.5732 20.6927 25.7459C22.1856 26.9272 23.781 27.4546 25.1986 27.92L25.1995 27.9203L25.6118 28.0564L25.6147 28.0574C25.8092 28.123 26.0228 28.0486 26.1354 27.8752L26.1354 27.8752L26.8099 26.8364C26.81 26.8361 26.8102 26.8358 26.8104 26.8355L26.8105 26.8354L16.8269 19.5747ZM16.8269 19.5747C16.7744 19.4052 16.8269 19.2195 16.9628 19.1012L16.8269 19.5747ZM33.8732 29.6934L28.8193 26.4115L33.8732 29.6934Z" stroke="url(#paint1_linear_30_475)"/>
<path d="M24.8902 15.9506L24.8916 15.951C26.7737 16.4863 28.2763 17.9923 28.8072 19.8762L28.8072 19.8763C28.8748 20.1161 28.7357 20.3653 28.4963 20.434C28.4533 20.4456 28.4118 20.4508 28.3715 20.4508C28.1738 20.4508 27.9926 20.3193 27.9367 20.1211C27.4897 18.5341 26.2289 17.2714 24.6434 16.8202L24.6433 16.8202C24.4034 16.752 24.2641 16.502 24.3324 16.262L24.3325 16.2617C24.401 16.0203 24.6509 15.8818 24.8902 15.9506Z" stroke="url(#paint2_linear_30_475)"/>
<path d="M32.7094 20.0821L32.7094 20.0823C32.777 20.3216 32.6381 20.5712 32.3985 20.6396C32.3555 20.6513 32.314 20.6566 32.2736 20.6566C32.076 20.6566 31.8953 20.5259 31.8387 20.327C30.8459 16.8097 28.0487 14.0045 24.533 13.0048C24.2931 12.9366 24.1538 12.6867 24.2221 12.4466C24.291 12.2042 24.5421 12.0661 24.7786 12.1342L24.7802 12.1347C28.5935 13.2203 31.6329 16.2662 32.7094 20.0821Z" stroke="url(#paint3_linear_30_475)"/>
<path d="M24.3697 7.69994L24.371 7.70031C30.5095 9.44767 35.4009 14.3503 37.1334 20.4933L37.1335 20.4935C37.2009 20.7324 37.0618 20.9824 36.8225 21.051C36.7795 21.0626 36.738 21.0678 36.6977 21.0678C36.5 21.0678 36.3188 20.9363 36.263 20.7381L36.2629 20.738C34.6142 14.8931 29.9639 10.2319 24.1229 8.57049L24.1228 8.57048C23.8829 8.50226 23.7436 8.25232 23.8119 8.01223L23.812 8.01175C23.8807 7.7693 24.1306 7.63118 24.3697 7.69994Z" stroke="url(#paint4_linear_30_475)"/>
<defs>
<linearGradient id="paint0_linear_30_475" x1="0" y1="25" x2="45.7047" y2="25" gradientUnits="userSpaceOnUse">
<stop stop-color="#00B09B"/>
<stop offset="1" stop-color="#7AE582"/>
</linearGradient>
<linearGradient id="paint1_linear_30_475" x1="8.96484" y1="22.6178" x2="35.8697" y2="22.6178" gradientUnits="userSpaceOnUse">
<stop stop-color="#00B09B"/>
<stop offset="1" stop-color="#7AE582"/>
</linearGradient>
<linearGradient id="paint2_linear_30_475" x1="23.8149" y1="18.1918" x2="29.3244" y2="18.1918" gradientUnits="userSpaceOnUse">
<stop stop-color="#00B09B"/>
<stop offset="1" stop-color="#7AE582"/>
</linearGradient>
<linearGradient id="paint3_linear_30_475" x1="23.7046" y1="16.3866" x2="33.2266" y2="16.3866" gradientUnits="userSpaceOnUse">
<stop stop-color="#00B09B"/>
<stop offset="1" stop-color="#7AE582"/>
</linearGradient>
<linearGradient id="paint4_linear_30_475" x1="23.2944" y1="14.375" x2="37.6506" y2="14.375" gradientUnits="userSpaceOnUse">
<stop stop-color="#00B09B"/>
<stop offset="1" stop-color="#7AE582"/>
</linearGradient>
</defs>
</svg>
