<svg width="40" height="50" viewBox="0 0 40 50" fill="none" xmlns="http://www.w3.org/2000/svg">
<path d="M24.5688 49.4309C18.0527 49.4309 11.8036 46.827 7.19602 42.1919C2.58849 37.5569 -1.81264e-07 31.2704 0 24.7155C1.81264e-07 18.1605 2.58849 11.874 7.19602 7.23899C11.8036 2.60394 18.0527 -7.81669e-08 24.5688 0V1.39433C18.4203 1.39433 12.5237 3.85137 8.17611 8.22493C3.82851 12.5985 1.38605 18.5303 1.38605 24.7155C1.38605 30.9006 3.82851 36.8324 8.17611 41.206C12.5237 45.5795 18.4203 48.0366 24.5688 48.0366V49.4309Z" fill="#333333"/>
<path d="M19.627 8.88799L24.6154 27.7411L29.5105 8.88799H19.627Z" fill="#333333"/>
<path d="M32.7273 23.9424L28.2984 40.5202H33.007L32.7273 23.9424Z" fill="#333333"/>
<path d="M16.4569 23.9424L15.1049 40.5202H20.7925L16.4569 23.9424Z" fill="#333333"/>
<path d="M24.5688 0V1.39433C18.4203 1.39433 12.5237 3.85137 8.17611 8.22493C3.82851 12.5985 1.38605 18.5303 1.38605 24.7155C1.38605 30.9006 3.82851 36.8324 8.17611 41.206C12.5237 45.5795 18.4203 48.0366 24.5688 48.0366V49.4309H38.0886C39.3007 49.4309 40 48.3764 40 47.4854V42.4203C40 41.2479 38.9744 40.5202 38.1148 40.5202H33.007H28.2984H20.7925H15.1049H8.17611L10.6294 8.88799H19.627H29.5105H38.0886C39.3939 8.88799 40 7.71554 40 7.10586V1.80633C40 0.915274 39.1608 1.2389e-05 38.0886 1.2389e-05L24.5688 0Z" fill="#333333"/>
</svg>
