<?xml version="1.0" standalone="no"?>
<!DOCTYPE svg PUBLIC "-//W3C//DTD SVG 20010904//EN"
 "http://www.w3.org/TR/2001/REC-SVG-20010904/DTD/svg10.dtd">
<svg version="1.0" xmlns="http://www.w3.org/2000/svg"
 width="250.000000pt" height="250.000000pt" viewBox="0 0 250.000000 250.000000"
 preserveAspectRatio="xMidYMid meet">
<metadata>
Created by potrace 1.14, written by Peter Selinger 2001-2017
</metadata>
<g transform="translate(0.000000,250.000000) scale(0.100000,-0.100000)"
fill="#000000" stroke="none">
<path d="M1119 2482 c-12 -8 -19 -10 -15 -4 5 8 -1 12 -18 12 -31 0 -32 -6 -8
-34 13 -16 13 -18 1 -8 -9 6 -19 8 -23 4 -4 -4 -6 0 -4 8 5 24 -75 16 -108
-10 -15 -13 -16 -13 -9 -1 6 11 4 13 -9 8 -10 -4 -22 -7 -27 -7 -6 0 -8 -4 -5
-8 3 -5 -5 -8 -17 -7 -28 2 -39 -15 -24 -35 11 -13 10 -13 -5 -1 -10 7 -16 17
-13 21 2 3 -11 2 -30 -4 -19 -6 -35 -14 -35 -18 0 -5 -9 -8 -21 -8 -13 0 -18
-4 -13 -12 4 -7 3 -8 -4 -4 -6 4 -37 -7 -68 -24 -72 -38 -86 -49 -77 -64 4 -6
1 -6 -9 2 -12 10 -18 9 -28 -3 -11 -14 -7 -19 13 -16 4 0 7 -3 7 -9 0 -13 -13
-13 -28 2 -8 8 -15 8 -27 -2 -13 -11 -13 -15 -3 -22 9 -5 5 -7 -12 -6 -16 2
-24 -2 -22 -10 1 -6 -1 -11 -5 -10 -14 2 -43 -14 -43 -24 0 -5 4 -7 9 -4 5 3
15 -2 22 -11 12 -15 12 -16 -1 -8 -28 17 -53 17 -46 0 3 -10 2 -13 -5 -10 -13
8 -51 -24 -43 -37 3 -4 1 -7 -4 -6 -20 6 -137 -136 -126 -153 5 -8 3 -9 -6 -4
-10 6 -12 4 -7 -8 4 -10 2 -16 -5 -14 -7 1 -18 -10 -25 -25 -8 -16 -18 -28
-24 -28 -5 0 -9 -5 -9 -11 0 -6 -16 -42 -35 -81 -19 -38 -33 -74 -30 -79 4 -5
1 -9 -6 -9 -8 0 -7 -5 2 -17 10 -11 10 -14 1 -9 -12 7 -29 -23 -39 -74 -7 -34
-9 -42 -16 -60 -11 -28 -24 -107 -23 -138 1 -18 -2 -32 -5 -32 -8 0 -5 -33 6
-49 5 -9 4 -12 -3 -7 -7 4 -10 -1 -9 -14 1 -11 6 -20 12 -20 5 0 5 -4 -2 -8
-15 -9 -12 -34 7 -58 14 -17 13 -18 -2 -6 -14 11 -16 9 -13 -25 2 -21 4 -55 4
-76 1 -21 4 -36 9 -34 4 3 6 -11 6 -31 -1 -21 2 -41 6 -47 5 -5 9 -13 9 -17 1
-5 1 -9 2 -10 0 -2 2 -16 4 -32 2 -16 7 -36 11 -45 4 -9 8 -18 8 -21 6 -32 34
-98 46 -108 10 -9 10 -11 1 -6 -11 6 -11 1 1 -22 9 -16 24 -46 34 -66 10 -21
22 -38 27 -38 4 0 5 -4 2 -10 -3 -5 -1 -10 4 -10 6 0 11 -5 11 -10 0 -20 45
-80 57 -75 8 2 10 -2 6 -12 -5 -13 -2 -15 12 -10 15 6 16 5 6 -7 -10 -12 5
-32 82 -110 52 -53 99 -96 105 -96 7 0 12 -5 12 -11 0 -8 5 -7 15 1 13 11 14
10 10 -3 -4 -10 6 -24 28 -41 19 -14 37 -26 41 -26 4 0 16 -9 28 -20 12 -10
25 -17 30 -14 4 3 8 0 8 -6 0 -6 4 -9 9 -6 5 4 11 2 13 -2 5 -13 150 -82 160
-76 4 3 8 0 8 -7 0 -7 10 -9 25 -7 13 3 22 2 20 -3 -7 -10 94 -31 107 -23 6 4
8 2 5 -3 -4 -6 0 -14 9 -17 11 -4 15 -2 11 7 -3 8 1 14 8 14 7 0 11 -6 8 -13
-5 -14 -3 -14 94 -17 33 -1 60 -4 58 -8 -2 -3 14 -5 36 -6 26 -1 37 3 32 11
-5 8 -3 8 8 0 21 -16 88 -12 99 6 8 13 10 13 10 -2 0 -20 25 -14 50 12 8 8 12
11 8 6 -15 -19 -8 -28 18 -22 14 4 45 9 67 13 23 3 44 8 47 12 3 3 18 7 35 9
16 2 32 7 35 10 3 4 14 8 25 10 39 6 85 24 85 32 0 5 7 7 15 4 8 -4 15 -1 15
7 0 7 3 10 6 6 8 -8 144 63 144 75 0 5 4 7 8 4 5 -3 18 4 30 14 12 11 26 20
32 20 5 0 10 4 10 9 0 5 9 11 21 14 12 3 18 10 14 17 -3 6 -3 9 2 8 13 -4 63
33 57 43 -3 5 3 9 12 9 10 0 14 3 11 7 -4 3 3 11 16 18 12 6 21 17 19 24 -1 7
2 10 7 7 10 -6 61 49 61 65 0 6 5 7 10 4 6 -3 10 1 10 9 0 9 3 16 8 16 4 0 16
12 26 27 11 14 15 24 10 20 -6 -3 -11 4 -11 16 -2 17 0 19 8 7 8 -13 12 -12
24 5 9 11 13 25 11 32 -3 8 1 10 11 6 12 -5 15 -2 10 10 -3 9 -2 17 3 17 5 0
16 14 25 30 9 17 13 30 10 30 -4 0 1 7 10 16 9 9 13 24 10 34 -3 10 -1 21 4
25 7 4 8 -1 4 -11 -4 -11 -2 -15 4 -11 6 4 13 18 15 32 4 20 3 23 -8 14 -8 -6
-14 -8 -14 -4 0 5 -10 0 -22 -11 l-23 -19 19 22 c10 13 21 21 25 19 24 -15 68
72 48 94 -9 9 -8 11 3 8 9 -2 14 4 14 15 -1 9 2 17 7 17 5 0 8 3 7 8 -1 4 3
30 10 57 6 28 14 68 18 90 9 62 12 255 3 250 -4 -3 -11 0 -15 6 -4 7 -3 9 4 5
6 -3 13 -2 17 4 3 5 -1 10 -9 10 -8 0 -17 4 -20 9 -4 5 4 7 16 3 l23 -5 -20
23 c-11 13 -14 20 -7 16 9 -5 12 1 10 23 -2 28 -9 35 -29 33 -4 -1 -15 9 -25
21 l-19 22 24 -20 24 -20 -6 20 -7 20 16 -20 c16 -20 16 -19 11 5 -4 14 -11
49 -17 78 -10 46 -18 56 -41 54 -3 -1 -6 6 -6 13 0 12 3 12 15 2 13 -10 14 -8
7 13 -4 14 -10 27 -14 30 -3 3 -8 16 -10 30 -3 25 -19 42 -32 35 -3 -3 -15 5
-25 18 -18 20 -18 21 0 7 24 -19 46 -21 39 -4 -3 8 -9 14 -15 14 -5 0 -6 5 -3
10 3 6 2 10 -4 10 -6 0 -8 7 -5 15 4 9 -2 18 -17 24 -13 5 -18 10 -11 10 20 1
14 18 -20 52 -18 18 -27 29 -19 25 9 -6 8 0 -4 17 -10 17 -23 24 -36 22 -11
-2 -17 0 -14 6 4 5 11 7 16 4 15 -10 10 11 -6 25 -8 6 -18 9 -24 6 -5 -3 -7 3
-4 14 3 11 0 20 -6 20 -6 0 -11 5 -11 12 0 14 -81 94 -92 91 -4 -2 -7 1 -5 6
1 5 -11 21 -27 35 l-28 27 -23 -21 c-16 -15 -22 -17 -22 -6 0 8 4 13 8 11 9
-6 34 24 26 32 -4 3 -15 0 -24 -8 -16 -13 -17 -12 -5 3 11 14 10 18 -6 27 -11
6 -23 7 -27 3 -5 -4 -5 -1 -1 6 5 9 1 15 -13 19 -12 3 -21 9 -21 13 0 12 -80
51 -91 44 -5 -3 -8 0 -7 8 2 7 -7 14 -20 16 -12 2 -20 8 -17 13 4 5 -1 9 -10
9 -9 0 -27 7 -41 16 -23 15 -26 15 -43 0 -20 -18 -31 -20 -31 -6 0 6 5 9 11 8
6 -2 14 3 17 11 3 10 0 12 -12 8 -11 -5 -15 -3 -10 5 5 7 2 9 -9 5 -9 -3 -17
-2 -19 3 -2 6 -15 11 -30 12 -16 1 -28 5 -28 9 0 3 -35 14 -77 24 -43 10 -82
20 -87 23 -5 3 -6 -3 -3 -14 6 -17 6 -17 -5 -3 -15 19 -9 18 -170 23 -104 3
-130 1 -149 -12z m48 1 c-4 -3 1 -16 10 -27 18 -21 18 -21 -4 -2 -20 16 -23
36 -6 36 4 0 3 -3 0 -7z m149 -12 c20 17 17 5 -4 -14 -17 -15 -18 -15 -19 6 0
12 1 16 4 9 4 -10 8 -10 19 -1z m-70 -23 c19 -23 19 -23 -2 -5 -11 9 -24 14
-27 10 -4 -3 -7 -1 -7 5 0 19 15 14 36 -10z m175 5 c13 -17 13 -17 -6 -3 -11
8 -22 16 -24 17 -2 2 0 3 6 3 6 0 17 -8 24 -17z m-450 -16 c-6 -8 -8 -16 -5
-19 3 -3 1 -9 -4 -12 -6 -3 -9 0 -8 6 2 16 15 38 23 38 3 0 0 -6 -6 -13z m148
-1 c9 -11 9 -16 -1 -22 -7 -4 -10 -4 -6 1 4 4 3 14 -3 22 -6 7 -9 13 -6 13 2
0 10 -6 16 -14z m212 1 c-6 -8 -9 -17 -6 -20 3 -4 2 -5 -2 -2 -3 3 -11 0 -18
-5 -8 -7 -12 -5 -12 5 0 8 4 12 8 10 3 -3 12 2 19 10 7 8 15 15 17 15 3 0 0
-6 -6 -13z m170 -6 c0 10 2 11 6 1 2 -6 8 -10 13 -7 4 3 14 -3 21 -13 12 -15
12 -16 -1 -6 -8 6 -23 10 -32 9 -9 -2 -25 7 -35 18 l-18 22 23 -19 c17 -15 22
-16 23 -5z m-475 -6 c-1 -8 -5 -17 -8 -21 -5 -4 -4 16 1 34 3 9 9 -1 7 -13z
m42 -10 c-3 -3 -9 2 -12 12 -6 14 -5 15 5 6 7 -7 10 -15 7 -18z m158 -1 c1 -9
0 -13 -4 -10 -3 4 -7 14 -8 22 -1 9 0 13 4 10 3 -4 7 -14 8 -22z m236 -3 c11
-11 10 -12 -2 -5 -8 5 -34 9 -57 9 -23 1 -45 4 -48 7 -3 3 17 4 45 4 27 -1 55
-8 62 -15z m-567 -11 c-3 -5 -12 -10 -18 -10 -7 0 -6 4 3 10 19 12 23 12 15 0z
m45 5 c0 -1 -10 -10 -22 -21 -14 -12 -18 -13 -10 -3 6 9 10 18 7 21 -3 2 2 5
10 5 8 0 15 -1 15 -2z m240 0 c0 -1 -10 -10 -22 -21 -14 -12 -18 -13 -10 -3 6
9 10 18 7 21 -3 2 2 5 10 5 8 0 15 -1 15 -2z m-326 -44 c-2 -2 -10 1 -17 7 -8
7 -16 10 -19 7 -2 -3 -5 1 -5 9 0 12 5 11 23 -2 12 -9 20 -19 18 -21z m126 24
c-7 -9 -15 -13 -18 -10 -3 3 -12 -1 -21 -8 -14 -11 -14 -10 -2 5 7 10 17 16
21 13 5 -3 11 -1 15 5 3 5 9 10 12 10 3 0 0 -7 -7 -15z m103 -11 c14 -17 14
-21 2 -21 -8 0 -12 4 -9 8 2 4 0 10 -6 14 -5 3 -10 11 -10 17 0 6 1 9 3 7 1
-2 10 -13 20 -25z m41 -3 c-2 -3 -12 3 -22 13 -16 17 -16 18 5 5 12 -7 20 -15
17 -18z m206 26 c0 -2 -8 -11 -18 -20 -15 -14 -19 -15 -19 -2 0 8 4 12 8 9 4
-2 10 0 14 6 6 10 15 14 15 7z m58 -22 c-3 -3 -9 2 -12 12 -6 14 -5 15 5 6 7
-7 10 -15 7 -18z m138 13 c5 4 6 3 2 -2 -4 -5 -3 -14 2 -21 7 -8 5 -12 -5 -12
-8 0 -13 3 -10 5 3 3 -3 15 -12 26 -14 15 -14 18 -2 8 9 -6 20 -8 25 -4z m121
-33 c0 -8 -4 -12 -9 -9 -5 4 -7 9 -4 12 3 3 -2 15 -11 26 -18 21 -18 21 3 3
11 -9 21 -24 21 -32z m-636 22 c-6 -8 -9 -16 -6 -19 3 -2 -2 -5 -10 -5 -13 0
-13 3 2 19 19 21 31 25 14 5z m237 -11 c16 -20 16 -20 -2 -6 -24 19 -47 21
-66 7 -13 -10 -13 -10 -2 5 17 22 48 19 70 -6z m235 6 c15 -16 15 -19 2 -19
-8 0 -13 3 -10 5 3 3 0 11 -6 19 -17 20 -5 16 14 -5z m-429 -10 c2 -4 -4 -8
-14 -8 -10 0 -16 4 -14 8 3 4 9 8 14 8 5 0 11 -4 14 -8z m286 4 c0 -2 -8 -10
-17 -17 -16 -13 -17 -12 -4 4 13 16 21 21 21 13z m116 -8 c3 -4 -1 -5 -10 -4
-8 1 -18 5 -22 8 -3 4 1 5 10 4 8 -1 18 -5 22 -8z m-708 -23 c-3 -3 -9 2 -12
12 -6 14 -5 15 5 6 7 -7 10 -15 7 -18z m158 10 c-1 -8 -5 -17 -8 -21 -5 -4 -4
16 1 34 3 9 9 -1 7 -13z m60 0 c-1 -8 -8 -21 -16 -28 -10 -10 -11 -9 -4 3 5 8
9 18 10 23 3 14 4 17 8 17 2 0 3 -7 2 -15z m181 2 c0 -7 -9 -14 -20 -14 -19
-2 -19 -2 -1 12 11 8 19 15 20 15 0 0 1 -6 1 -13z m-471 -25 c-17 -16 -18 -16
-5 5 7 12 15 20 18 17 3 -2 -3 -12 -13 -22z m130 4 c1 -7 -4 -13 -12 -13 -9 0
-11 4 -4 12 5 7 8 15 5 18 -3 4 -2 5 2 2 4 -3 8 -11 9 -19z m30 -4 c-17 -16
-18 -16 -5 5 7 12 15 20 18 17 3 -2 -3 -12 -13 -22z m391 13 c0 -8 -4 -12 -9
-9 -5 3 -6 10 -3 15 9 13 12 11 12 -6z m179 -9 c0 -14 -3 -23 -7 -20 -6 3 -6
22 0 42 3 10 7 -2 7 -22z m375 7 c13 -17 13 -17 -6 -3 -11 8 -22 16 -24 17 -2
2 0 3 6 3 6 0 17 -8 24 -17z m-495 -19 c1 -9 0 -13 -4 -10 -3 4 -7 14 -8 22
-1 9 0 13 4 10 3 -4 7 -14 8 -22z m400 0 c1 -9 0 -13 -4 -10 -3 4 -7 14 -8 22
-1 9 0 13 4 10 3 -4 7 -14 8 -22z m-979 -9 c0 -8 -3 -13 -5 -10 -3 3 -12 -1
-21 -7 -10 -8 -9 -4 3 10 23 26 23 26 23 7z m160 0 c0 -8 -3 -13 -5 -10 -3 3
-12 -1 -21 -7 -10 -8 -9 -4 3 10 23 26 23 26 23 7z m60 0 c0 -8 -3 -13 -5 -10
-3 3 -10 0 -17 -5 -8 -7 -12 -5 -12 5 0 8 4 12 8 9 4 -2 10 0 14 6 9 14 12 13
12 -5z m144 -2 c13 -16 12 -17 -3 -4 -10 7 -18 15 -18 17 0 8 8 3 21 -13z m72
2 c-3 -9 -8 -14 -10 -11 -3 3 -2 9 2 15 9 16 15 13 8 -4z m662 -15 c10 -11 16
-20 13 -20 -3 0 -13 9 -23 20 -10 11 -16 20 -13 20 3 0 13 -9 23 -20z m75 15
c0 -2 -6 -8 -13 -14 -10 -8 -14 -7 -14 2 0 8 6 14 14 14 7 0 13 -1 13 -2z
m-1230 -29 c-7 -7 -13 -7 -20 0 -6 6 -3 10 10 10 13 0 16 -4 10 -10z m1134 -2
c3 -8 2 -12 -4 -9 -6 3 -10 10 -10 16 0 14 7 11 14 -7z m104 -4 c-7 -10 -14
-17 -17 -15 -4 4 18 35 25 35 2 0 -1 -9 -8 -20z m32 -4 c0 -2 -8 -10 -17 -17
-16 -13 -17 -12 -4 4 13 16 21 21 21 13z m-1155 -15 c3 -5 2 -12 -3 -15 -5 -3
-9 1 -9 9 0 17 3 19 12 6z m-29 -13 c3 -4 -1 -5 -10 -4 -8 1 -18 5 -22 8 -3 4
1 5 10 4 8 -1 18 -5 22 -8z m1120 0 c3 -4 -1 -5 -10 -4 -8 1 -18 5 -22 8 -3 4
1 5 10 4 8 -1 18 -5 22 -8z m-1186 -2 c0 -2 -8 -10 -17 -17 -16 -13 -17 -12
-4 4 13 16 21 21 21 13z m1225 -16 c10 -11 16 -20 13 -20 -3 0 -13 9 -23 20
-10 11 -16 20 -13 20 3 0 13 -9 23 -20z m-1265 -2 c0 -6 -3 -8 -7 -5 -3 4 -16
-1 -27 -10 -21 -18 -21 -18 -2 5 21 24 36 29 36 10z m57 -6 c0 -10 -6 -19 -13
-19 -9 0 -9 5 -1 19 7 10 13 18 14 18 1 0 1 -8 0 -18z m1300 1 c0 -9 -4 -10
-14 -2 -7 6 -13 12 -13 14 0 1 6 2 13 2 8 0 14 -6 14 -14z m-1456 -10 c13 -16
12 -17 -3 -4 -10 7 -18 15 -18 17 0 8 8 3 21 -13z m1438 -27 c-3 -3 -11 5 -18
17 -13 21 -12 21 5 5 10 -10 16 -20 13 -22z m-1339 21 c0 -2 -10 -12 -22 -23
l-23 -19 19 23 c18 21 26 27 26 19z m1311 -24 c13 -16 12 -17 -3 -4 -17 13
-22 21 -14 21 2 0 10 -8 17 -17z m-1361 -7 c0 -2 -8 -10 -17 -17 -16 -13 -17
-12 -4 4 13 16 21 21 21 13z m1265 -4 c-3 -3 3 -15 12 -26 14 -15 14 -18 2 -8
-9 6 -20 8 -25 4 -5 -4 -6 -3 -2 2 4 5 3 14 -2 21 -7 8 -5 12 5 12 8 0 13 -3
10 -5z m43 -9 c-12 -15 -22 -18 -14 -4 4 5 0 11 -6 14 -7 3 -3 4 9 4 17 -1 19
-4 11 -14z m159 -1 c-17 -18 -51 -27 -41 -10 3 5 9 6 14 3 4 -3 13 2 20 10 7
8 15 15 18 15 3 0 -2 -8 -11 -18z m-1585 -7 c2 3 5 -2 5 -10 0 -19 0 -19 -23
7 -12 14 -13 18 -3 10 9 -6 18 -10 21 -7z m1467 2 c-2 -1 -13 -9 -24 -17 -19
-14 -19 -14 -6 3 7 9 18 17 24 17 6 0 8 -1 6 -3z m-1519 -21 c0 -2 -7 -7 -16
-10 -8 -3 -12 -2 -9 4 6 10 25 14 25 6z m52 -21 c2 3 5 -2 5 -10 0 -10 -4 -12
-12 -5 -7 5 -16 6 -21 2 -5 -4 -6 -3 -2 2 4 5 2 16 -4 25 -10 12 -7 12 8 -2
11 -9 23 -15 26 -12z m1383 3 c5 4 5 1 1 -6 -6 -10 -11 -10 -22 -1 -8 6 -14
14 -14 16 0 3 6 0 13 -6 8 -6 18 -7 22 -3z m281 0 c5 4 6 3 2 -2 -4 -5 -2 -16
4 -25 10 -12 7 -12 -8 2 -11 9 -23 15 -26 12 -2 -3 -5 2 -5 10 0 10 4 12 12 5
7 -5 16 -6 21 -2z m-1625 -21 c-10 -9 -11 -8 -5 6 3 10 9 15 12 12 3 -3 0 -11
-7 -18z m1360 0 c-10 -9 -11 -8 -5 6 3 10 9 15 12 12 3 -3 0 -11 -7 -18z m301
-4 c-1 -4 7 -17 16 -28 17 -20 17 -20 -4 -2 -11 9 -21 24 -21 32 0 8 2 13 5
11 2 -2 4 -8 4 -13z m-272 -6 c0 -2 -8 -11 -18 -20 -15 -14 -19 -15 -19 -2 0
8 4 12 8 9 4 -2 10 0 14 6 6 10 15 14 15 7z m77 -46 c1 -11 -6 -26 -15 -33
-15 -11 -15 -11 -5 2 14 19 12 42 -7 66 -14 18 -14 18 6 2 11 -9 20 -26 21
-37z m149 27 c12 -14 13 -18 3 -10 -9 6 -18 10 -21 7 -2 -3 -5 2 -5 10 0 19 0
19 23 -7z m-66 -13 c14 -19 14 -19 -2 -6 -10 7 -18 18 -18 24 0 6 1 8 3 6 1
-2 9 -13 17 -24z m-1683 0 c0 -8 -10 -23 -21 -32 -21 -18 -21 -18 -2 5 11 12
16 22 12 22 -4 0 -4 5 -1 10 9 14 12 13 12 -5z m43 11 c0 -2 -8 -10 -17 -17
-16 -13 -17 -12 -4 4 13 16 21 21 21 13z m1478 -26 c-7 -10 -14 -17 -17 -15
-4 4 18 35 25 35 2 0 -1 -9 -8 -20z m47 10 c3 -6 -1 -7 -9 -4 -18 7 -21 14 -7
14 6 0 13 -4 16 -10z m226 -7 c13 -16 12 -17 -3 -4 -10 7 -18 15 -18 17 0 8 8
3 21 -13z m-1850 -10 c13 -16 12 -17 -3 -4 -10 7 -18 15 -18 17 0 8 8 3 21
-13z m119 14 c0 -2 -10 -12 -22 -23 l-23 -19 19 23 c18 21 26 27 26 19z m1595
-6 c3 -5 2 -12 -3 -15 -5 -3 -9 1 -9 9 0 17 3 19 12 6z m79 -21 c-6 -6 -10 -3
-10 10 0 13 4 16 10 10 7 -7 7 -13 0 -20z m-184 16 c0 -2 -8 -10 -17 -17 -16
-13 -17 -12 -4 4 13 16 21 21 21 13z m261 -19 c-10 -9 -11 -8 -5 6 3 10 9 15
12 12 3 -3 0 -11 -7 -18z m-1890 -4 c13 -16 12 -17 -3 -4 -10 7 -18 15 -18 17
0 8 8 3 21 -13z m77 -13 c-7 -10 -14 -17 -17 -15 -4 4 18 35 25 35 2 0 -1 -9
-8 -20z m1758 1 c-17 -18 -38 -22 -52 -8 -4 3 3 5 14 2 11 -2 26 3 33 11 6 8
14 14 17 14 3 0 -3 -9 -12 -19z m-139 -6 c0 -8 -3 -13 -5 -10 -3 3 -12 -1 -21
-7 -10 -8 -9 -4 3 10 23 26 23 26 23 7z m49 -7 c12 -14 13 -18 3 -10 -9 6 -18
10 -21 7 -2 -3 -5 2 -5 10 0 19 0 19 23 -7z m174 19 c0 -2 -8 -11 -18 -20 -15
-14 -19 -15 -19 -2 0 8 4 12 8 9 4 -2 10 0 14 6 6 10 15 14 15 7z m-1930 -12
c0 -2 -6 -8 -13 -14 -10 -8 -14 -7 -14 2 0 8 6 14 14 14 7 0 13 -1 13 -2z
m1556 -7 c3 -4 -1 -5 -10 -4 -8 1 -18 5 -22 8 -3 4 1 5 10 4 8 -1 18 -5 22 -8z
m68 -4 c3 -8 2 -12 -4 -9 -6 3 -10 10 -10 16 0 14 7 11 14 -7z m-1617 -22
c-17 -18 -51 -27 -41 -10 3 5 9 6 14 3 4 -3 13 2 20 10 7 8 15 15 18 15 3 0
-2 -8 -11 -18z m64 -9 c13 -16 12 -17 -3 -4 -10 7 -18 15 -18 17 0 8 8 3 21
-13z m1475 -9 c1 -9 0 -13 -4 -10 -3 4 -7 14 -8 22 -1 9 0 13 4 10 3 -4 7 -14
8 -22z m157 11 c-3 -9 -8 -14 -10 -11 -3 3 -2 9 2 15 9 16 15 13 8 -4z m43
-11 c1 -9 0 -13 -4 -10 -3 4 -7 14 -8 22 -1 9 0 13 4 10 3 -4 7 -14 8 -22z
m-1706 12 c0 -2 -8 -10 -17 -17 -16 -13 -17 -12 -4 4 13 16 21 21 21 13z
m1606 -8 c3 -3 -13 -5 -35 -4 -22 1 -43 4 -46 7 -3 3 13 5 35 4 22 -1 43 -4
46 -7z m276 -15 c-1 -4 7 -17 16 -28 17 -20 17 -20 -4 -2 -11 9 -21 24 -21 32
0 8 2 13 5 11 2 -2 4 -8 4 -13z m-380 -18 c3 3 13 -5 24 -17 19 -23 19 -23 -2
-5 -11 9 -23 15 -26 12 -3 -3 -13 5 -24 17 -19 23 -19 23 2 5 11 -9 23 -15 26
-12z m354 13 c3 -4 -1 -5 -10 -4 -8 1 -18 5 -22 8 -3 4 1 5 10 4 8 -1 18 -5
22 -8z m-1906 -2 c0 -2 -8 -10 -17 -17 -16 -13 -17 -12 -4 4 13 16 21 21 21
13z m500 0 c0 -2 -8 -10 -17 -17 -16 -13 -17 -12 -4 4 13 16 21 21 21 13z
m720 0 c0 -2 -8 -10 -17 -17 -16 -13 -17 -12 -4 4 13 16 21 21 21 13z m396
-56 c1 -19 -7 -36 -20 -47 -21 -18 -21 -18 -5 2 19 24 19 65 0 91 -14 18 -14
18 4 1 11 -9 20 -31 21 -47z m64 56 c0 -2 -8 -10 -17 -17 -16 -13 -17 -12 -4
4 13 16 21 21 21 13z m22 -19 c-7 -8 -10 -16 -7 -19 3 -2 -1 -5 -9 -5 -12 0
-11 5 2 23 9 12 19 20 21 18 2 -2 -1 -10 -7 -17z m99 6 c13 -16 12 -17 -3 -4
-10 7 -18 15 -18 17 0 8 8 3 21 -13z m199 13 c0 -2 -8 -10 -17 -17 -16 -13
-17 -12 -4 4 13 16 21 21 21 13z m-1979 -19 c-6 -8 -9 -16 -6 -19 3 -2 -2 -5
-10 -5 -13 0 -13 3 2 19 19 21 31 25 14 5z m320 0 c-6 -8 -9 -16 -6 -19 3 -2
-2 -5 -10 -5 -13 0 -13 3 2 19 19 21 31 25 14 5z m1119 -12 c14 -19 14 -19 -2
-6 -10 7 -18 18 -18 24 0 6 1 8 3 6 1 -2 9 -13 17 -24z m36 -15 c0 -22 -3 -40
-7 -40 -5 0 -5 63 0 78 4 10 7 -4 7 -38z m277 22 c15 -16 15 -19 2 -19 -8 0
-13 3 -10 5 3 3 0 11 -6 19 -17 20 -5 16 14 -5z m86 15 c-2 -1 -13 -9 -24 -17
-19 -14 -19 -14 -6 3 7 9 18 17 24 17 6 0 8 -1 6 -3z m-1444 -42 c0 -21 -8
-42 -20 -52 -18 -17 -18 -17 -4 1 7 11 15 32 15 48 2 32 3 38 7 38 2 0 3 -16
2 -35z m45 31 c0 -2 -8 -10 -17 -17 -16 -13 -17 -12 -4 4 13 16 21 21 21 13z
m76 -21 c0 -14 -4 -25 -8 -25 -6 0 -5 25 1 48 3 10 7 -2 7 -23z m44 21 c0 -2
-8 -10 -17 -17 -16 -13 -17 -12 -4 4 13 16 21 21 21 13z m555 -17 c-3 -12 -7
-24 -10 -27 -3 -3 -3 5 -1 19 6 30 5 29 10 29 3 0 3 -10 1 -21z m45 17 c0 -2
-8 -10 -17 -17 -16 -13 -17 -12 -4 4 13 16 21 21 21 13z m76 -19 c0 -13 -6
-24 -13 -24 -6 0 -9 5 -5 11 4 6 7 14 8 19 5 26 10 23 10 -6z m44 19 c0 -2 -8
-10 -17 -17 -16 -13 -17 -12 -4 4 13 16 21 21 21 13z m717 -9 c0 -8 -6 -14
-14 -14 -9 0 -10 4 -2 14 6 7 12 13 14 13 1 0 2 -6 2 -13z m-1632 -6 c-9 -8
-36 -10 -30 -2 2 4 11 8 20 8 8 0 13 -3 10 -6z m720 -1 c-3 -5 -12 -10 -18
-10 -7 0 -6 4 3 10 19 12 23 12 15 0z m639 2 c2 -4 -4 -8 -14 -8 -10 0 -16 4
-14 8 3 4 9 8 14 8 5 0 11 -4 14 -8z m-1148 -17 c-1 -8 -5 -17 -8 -21 -5 -4
-4 16 1 34 3 9 9 -1 7 -13z m604 11 c0 -2 -8 -10 -17 -17 -16 -13 -17 -12 -4
4 13 16 21 21 21 13z m116 -11 c-1 -8 -5 -17 -8 -21 -5 -4 -4 16 1 34 3 9 9
-1 7 -13z m118 -15 c-6 -6 -10 -3 -10 10 0 13 4 16 10 10 7 -7 7 -13 0 -20z
m120 0 c-6 -6 -10 -3 -10 10 0 13 4 16 10 10 7 -7 7 -13 0 -20z m-177 0 c-1
-12 -10 -29 -22 -38 -19 -17 -20 -16 -4 3 9 11 15 28 14 38 -2 9 1 17 5 17 5
0 8 -9 7 -20z m483 12 c0 -4 -9 -8 -20 -9 -11 -1 -20 2 -20 5 0 4 9 8 20 9 11
1 20 -2 20 -5z m-640 -6 c0 -2 -8 -10 -17 -17 -16 -13 -17 -12 -4 4 13 16 21
21 21 13z m-1285 -14 c-3 -3 0 -11 6 -19 17 -20 5 -16 -14 5 -15 16 -15 19 -2
19 8 0 13 -3 10 -5z m400 0 c-3 -3 0 -10 5 -17 7 -8 5 -12 -5 -12 -7 0 -13 5
-12 11 1 6 -4 10 -11 8 -8 -1 -11 1 -8 6 3 5 12 9 21 9 8 0 13 -3 10 -5z m45
-6 c-7 -7 -13 -7 -20 0 -6 6 -3 10 10 10 13 0 16 -4 10 -10z m235 -6 c-10 -11
-20 -18 -23 -15 -3 3 -15 -3 -26 -12 -21 -18 -21 -18 -2 4 10 13 22 20 26 18
4 -3 13 2 20 10 7 8 15 15 18 15 3 0 -3 -9 -13 -20z m735 16 c0 -2 -8 -10 -17
-17 -16 -13 -17 -12 -4 4 13 16 21 21 21 13z m240 0 c0 -2 -8 -10 -17 -17 -16
-13 -17 -12 -4 4 13 16 21 21 21 13z m70 0 c0 -2 -7 -7 -16 -10 -8 -3 -12 -2
-9 4 6 10 25 14 25 6z m37 -13 c0 -9 -4 -10 -14 -2 -7 6 -13 12 -13 14 0 1 6
2 13 2 8 0 14 -6 14 -14z m43 1 c-6 -6 -8 -14 -5 -17 3 -4 2 -5 -2 -2 -3 3
-13 -1 -22 -7 -11 -9 -10 -6 2 9 14 16 15 22 5 26 -7 3 -3 4 9 4 15 -1 19 -5
13 -13z m50 11 c0 -1 -10 -10 -22 -21 -14 -12 -18 -13 -10 -3 6 9 10 18 7 21
-3 2 2 5 10 5 8 0 15 -1 15 -2z m240 0 c0 -1 -10 -10 -22 -21 -14 -12 -18 -13
-10 -3 6 9 10 18 7 21 -3 2 2 5 10 5 8 0 15 -1 15 -2z m-2029 -22 c13 -16 12
-17 -3 -4 -10 7 -18 15 -18 17 0 8 8 3 21 -13z m1144 -3 c10 -11 16 -20 13
-20 -3 0 -13 9 -23 20 -10 11 -16 20 -13 20 3 0 13 -9 23 -20z m92 5 c0 -8 -3
-13 -5 -10 -3 3 -12 -1 -21 -7 -10 -8 -9 -4 3 10 23 26 23 26 23 7z m633 0
c-7 -8 -17 -15 -23 -15 -6 0 -2 7 9 15 25 19 30 19 14 0z m78 -2 c-8 -10 -14
-28 -13 -40 1 -12 -2 -20 -7 -17 -16 10 10 74 30 74 3 0 -2 -8 -10 -17z
m-2037 -10 c13 -17 13 -17 -6 -3 -11 8 -22 16 -24 17 -2 2 0 3 6 3 6 0 17 -8
24 -17z m585 -5 c19 -23 19 -23 -2 -5 -11 9 -24 14 -27 10 -4 -3 -7 -1 -7 5 0
19 15 14 36 -10z m163 19 c-2 -1 -13 -9 -24 -17 -19 -14 -19 -14 -6 3 7 9 18
17 24 17 6 0 8 -1 6 -3z m632 -14 c12 -16 12 -17 -2 -6 -9 7 -20 9 -24 5 -5
-4 -5 -1 -1 6 9 16 11 15 27 -5z m169 -8 c14 -19 14 -19 -2 -6 -10 7 -18 18
-18 24 0 6 1 8 3 6 1 -2 9 -13 17 -24z m211 8 c13 -16 12 -17 -3 -4 -10 7 -18
15 -18 17 0 8 8 3 21 -13z m139 13 c0 -2 -8 -10 -17 -17 -16 -13 -17 -12 -4 4
13 16 21 21 21 13z m240 0 c0 -2 -8 -10 -17 -17 -16 -13 -17 -12 -4 4 13 16
21 21 21 13z m-70 -10 c0 -2 -8 -10 -17 -17 -16 -13 -17 -12 -4 4 13 16 21 21
21 13z m-440 -10 c0 -2 -7 -7 -16 -10 -8 -3 -12 -2 -9 4 6 10 25 14 25 6z
m365 -5 c-9 -8 -36 -10 -30 -2 2 4 11 8 20 8 8 0 13 -3 10 -6z m-1540 -19 c-3
-3 -11 0 -18 7 -9 10 -8 11 6 5 10 -3 15 -9 12 -12z m111 -8 c1 -9 0 -13 -4
-10 -3 4 -7 14 -8 22 -1 9 0 13 4 10 3 -4 7 -14 8 -22z m121 11 c0 -8 -4 -12
-9 -9 -5 3 -6 10 -3 15 9 13 12 11 12 -6z m480 0 c0 -8 -4 -12 -9 -9 -5 3 -6
10 -3 15 9 13 12 11 12 -6z m156 0 c-3 -9 -8 -14 -10 -11 -3 3 -2 9 2 15 9 16
15 13 8 -4z m43 -11 c1 -9 0 -13 -4 -10 -3 4 -7 14 -8 22 -1 9 0 13 4 10 3 -4
7 -14 8 -22z m160 0 c1 -9 0 -13 -4 -10 -3 4 -7 14 -8 22 -1 9 0 13 4 10 3 -4
7 -14 8 -22z m320 11 c-1 -8 -5 -17 -8 -21 -5 -4 -4 16 1 34 3 9 9 -1 7 -13z
m244 11 c0 -2 -8 -10 -17 -17 -16 -13 -17 -12 -4 4 13 16 21 21 21 13z m-2089
-29 c-10 -9 -11 -8 -5 6 3 10 9 15 12 12 3 -3 0 -11 -7 -18z m1265 11 c3 -3
-13 -5 -35 -4 -22 1 -43 4 -46 7 -3 3 13 5 35 4 22 -1 43 -4 46 -7z m538 -4
c3 -8 2 -12 -4 -9 -6 3 -10 10 -10 16 0 14 7 11 14 -7z m332 9 c-2 -3 -6 -3
-9 -1 -3 2 -15 -6 -28 -17 l-24 -20 18 21 c9 11 24 21 32 21 8 0 13 -2 11 -4z
m-1465 -20 c13 -16 12 -17 -3 -4 -17 13 -22 21 -14 21 2 0 10 -8 17 -17z m960
0 c13 -16 12 -17 -3 -4 -17 13 -22 21 -14 21 2 0 10 -8 17 -17z m31 0 c-1 -4
7 -17 16 -28 17 -20 17 -20 -4 -2 -11 9 -21 24 -21 32 0 8 2 13 5 11 2 -2 4
-8 4 -13z m-1634 -13 c-7 -10 -14 -17 -17 -15 -4 4 18 35 25 35 2 0 -1 -9 -8
-20z m447 11 c-9 -8 -36 -10 -30 -2 2 4 11 8 20 8 8 0 13 -3 10 -6z m45 4 c0
-1 -10 -10 -22 -21 -14 -12 -18 -13 -10 -3 6 9 10 18 7 21 -3 2 2 5 10 5 8 0
15 -1 15 -2z m187 -2 c-4 -3 1 -16 10 -27 18 -21 18 -21 -4 -2 -20 16 -23 36
-6 36 4 0 3 -3 0 -7z m38 -1 c-3 -3 0 -11 7 -19 6 -7 9 -15 7 -17 -2 -2 -12 6
-21 18 -13 18 -14 23 -2 23 8 0 12 -3 9 -5z m735 3 c0 -1 -10 -10 -22 -21 -14
-12 -18 -13 -10 -3 6 9 10 18 7 21 -3 2 2 5 10 5 8 0 15 -1 15 -2z m232 -2
c-6 -3 -9 -10 -5 -16 4 -7 -1 -6 -10 2 -21 17 -21 17 6 18 12 0 16 -1 9 -4z
m43 -3 c3 -6 -1 -7 -9 -4 -18 7 -21 14 -7 14 6 0 13 -4 16 -10z m-1325 -3 c0
-2 -8 -11 -18 -20 -15 -14 -19 -15 -19 -2 0 8 4 12 8 9 4 -2 10 0 14 6 6 10
15 14 15 7z m226 -19 c12 -14 13 -18 3 -10 -9 6 -18 10 -21 7 -2 -3 -5 2 -5
10 0 19 0 19 23 -7z m571 -23 c0 -8 -4 -12 -9 -9 -5 4 -7 9 -4 12 3 3 -2 15
-11 26 -18 21 -18 21 3 3 11 -9 21 -24 21 -32z m63 41 c0 -2 -8 -10 -17 -17
-16 -13 -17 -12 -4 4 13 16 21 21 21 13z m56 -8 c5 4 6 3 2 -2 -4 -5 -4 -14 2
-20 6 -8 3 -12 -10 -12 -10 0 -16 4 -13 9 2 4 -1 16 -9 25 -11 15 -11 15 3 5
9 -7 20 -9 25 -5z m78 -17 c-2 -3 -12 3 -22 13 -16 17 -16 18 5 5 12 -7 20
-15 17 -18z m192 7 c12 -14 13 -18 3 -10 -9 6 -18 10 -21 7 -2 -3 -5 2 -5 10
0 19 0 19 23 -7z m186 7 c2 3 5 -2 5 -10 0 -19 0 -19 -23 7 -12 14 -13 18 -3
10 9 -6 18 -10 21 -7z m214 -7 c12 -14 13 -18 3 -10 -9 6 -18 10 -21 7 -2 -3
-5 2 -5 10 0 19 0 19 23 -7z m111 9 c0 -8 -6 -14 -14 -14 -9 0 -10 4 -2 14 6
7 12 13 14 13 1 0 2 -6 2 -13z m-1539 -21 c16 -20 16 -20 -2 -6 -24 19 -47 21
-66 7 -13 -10 -13 -10 -2 5 17 22 48 19 70 -6z m602 -1 c14 -19 14 -19 -2 -6
-10 7 -18 18 -18 24 0 6 1 8 3 6 1 -2 9 -13 17 -24z m193 7 c15 -16 15 -19 2
-19 -8 0 -13 3 -10 5 3 3 0 11 -6 19 -17 20 -5 16 14 -5z m165 -6 c16 -20 16
-20 -2 -6 -10 8 -25 15 -33 16 -24 4 -27 13 -4 11 12 -1 30 -10 39 -21z m192
20 c0 -2 -8 -10 -17 -17 -16 -13 -17 -12 -4 4 13 16 21 21 21 13z m207 -20
c18 -21 18 -21 -2 -5 -11 9 -28 15 -38 14 -9 -2 -15 0 -12 4 8 14 35 8 52 -13z
m-640 1 c0 -8 -6 -14 -14 -14 -9 0 -10 4 -2 14 6 7 12 13 14 13 1 0 2 -6 2
-13z m-879 -17 c-7 -10 -14 -17 -17 -15 -4 4 18 35 25 35 2 0 -1 -9 -8 -20z
m273 3 c13 -16 12 -17 -3 -4 -10 7 -18 15 -18 17 0 8 8 3 21 -13z m564 -1 c-3
-3 -11 0 -18 7 -9 10 -8 11 6 5 10 -3 15 -9 12 -12z m396 1 c13 -16 12 -17 -3
-4 -10 7 -18 15 -18 17 0 8 8 3 21 -13z m128 -17 c-3 -3 -11 5 -18 17 -13 21
-12 21 5 5 10 -10 16 -20 13 -22z m276 26 c-3 -3 3 -15 12 -26 14 -15 14 -18
2 -8 -9 6 -20 8 -25 4 -5 -4 -6 -3 -2 2 4 5 3 14 -2 21 -7 8 -5 12 5 12 8 0
13 -3 10 -5z m56 -11 c0 10 2 11 6 1 2 -6 10 -9 16 -5 7 3 9 3 5 -2 -4 -4 -2
-15 4 -24 10 -12 7 -12 -8 2 -11 9 -23 15 -26 12 -3 -3 -13 5 -24 17 l-19 23
23 -19 c17 -15 22 -16 23 -5z m-2155 -17 c1 -9 0 -13 -4 -10 -3 4 -7 14 -8 22
-1 9 0 13 4 10 3 -4 7 -14 8 -22z m38 -4 c-6 -6 -10 -3 -10 10 0 13 4 16 10
10 7 -7 7 -13 0 -20z m476 15 c-7 -9 -15 -13 -18 -10 -3 3 -12 -1 -21 -8 -14
-11 -14 -10 -2 5 7 10 17 16 21 13 5 -3 11 -1 15 5 3 5 9 10 12 10 3 0 0 -7
-7 -15z m164 -15 c-6 -6 -10 -3 -10 10 0 13 4 16 10 10 7 -7 7 -13 0 -20z
m520 0 c-6 -6 -10 -3 -10 10 0 13 4 16 10 10 7 -7 7 -13 0 -20z m286 26 c0 -2
-8 -10 -17 -17 -16 -13 -17 -12 -4 4 13 16 21 21 21 13z m154 -26 c-6 -6 -10
-3 -10 10 0 13 4 16 10 10 7 -7 7 -13 0 -20z m320 0 c-6 -6 -10 -3 -10 10 0
13 4 16 10 10 7 -7 7 -13 0 -20z m82 4 c1 -9 0 -13 -4 -10 -3 4 -7 14 -8 22
-1 9 0 13 4 10 3 -4 7 -14 8 -22z m-1460 4 c3 -4 -2 -5 -13 -3 -10 1 -27 -5
-38 -14 -20 -16 -20 -16 -2 6 17 20 39 24 53 11z m175 -11 c-10 -9 -11 -8 -5
6 3 10 9 15 12 12 3 -3 0 -11 -7 -18z m95 10 c4 -3 -4 -4 -16 -2 -30 6 -40 16
-12 12 12 -2 24 -6 28 -10z m640 -15 c-17 -16 -18 -16 -5 5 7 12 15 20 18 17
3 -2 -3 -12 -13 -22z m225 5 c-10 -9 -11 -8 -5 6 3 10 9 15 12 12 3 -3 0 -11
-7 -18z m80 6 c13 -17 13 -17 -6 -3 -11 8 -22 16 -24 17 -2 2 0 3 6 3 6 0 17
-8 24 -17z m210 -16 c-10 -9 -11 -8 -5 6 3 10 9 15 12 12 3 -3 0 -11 -7 -18z
m-783 -7 c-7 -10 -14 -17 -17 -15 -4 4 18 35 25 35 2 0 -1 -9 -8 -20z m77 12
c-3 -3 2 -14 12 -24 24 -27 10 -22 -15 5 -17 18 -19 24 -7 24 8 0 13 -3 10 -5z
m40 0 c-3 -3 0 -11 6 -19 17 -20 5 -16 -14 5 -15 16 -15 19 -2 19 8 0 13 -3
10 -5z m40 0 c-3 -3 3 -15 12 -26 14 -15 14 -18 2 -8 -9 6 -20 8 -25 4 -5 -4
-6 -3 -2 2 4 5 3 14 -2 21 -7 8 -5 12 5 12 8 0 13 -3 10 -5z m40 0 c-3 -3 0
-11 6 -19 17 -20 5 -16 -14 5 -15 16 -15 19 -2 19 8 0 13 -3 10 -5z m40 -10
c-3 -3 -11 0 -18 7 -9 10 -8 11 6 5 10 -3 15 -9 12 -12z m203 -2 c-7 -10 -14
-17 -17 -15 -4 4 18 35 25 35 2 0 -1 -9 -8 -20z m116 12 c3 -5 -1 -9 -9 -9 -8
0 -12 4 -9 9 3 4 7 8 9 8 2 0 6 -4 9 -8z m123 -10 c-17 -18 -51 -27 -41 -10 3
5 9 6 14 3 4 -3 13 2 20 10 7 8 15 15 18 15 3 0 -2 -8 -11 -18z m-1902 -4 c5
4 5 1 1 -6 -6 -10 -11 -10 -22 -1 -8 6 -14 14 -14 16 0 3 6 0 13 -6 8 -6 18
-7 22 -3z m562 -1 c0 -8 -6 -14 -14 -14 -9 0 -10 4 -2 14 6 7 12 13 14 13 1 0
2 -6 2 -13z m223 10 c0 -2 -8 -11 -18 -20 -15 -14 -19 -15 -19 -2 0 8 4 12 8
9 4 -2 10 0 14 6 6 10 15 14 15 7z m737 -12 c0 -8 -3 -13 -5 -10 -3 3 -12 -1
-21 -7 -10 -8 -9 -4 3 10 23 26 23 26 23 7z m223 12 c0 -2 -8 -11 -18 -20 -15
-14 -19 -15 -19 -2 0 8 4 12 8 9 4 -2 10 0 14 6 6 10 15 14 15 7z m80 0 c0 -2
-10 -12 -22 -23 l-23 -19 19 23 c18 21 26 27 26 19z m160 0 c0 -2 -8 -11 -18
-20 -15 -14 -19 -15 -19 -2 0 8 4 12 8 9 4 -2 10 0 14 6 6 10 15 14 15 7z
m116 -9 c5 4 6 3 2 -2 -4 -5 -3 -14 2 -21 7 -8 5 -12 -5 -12 -8 0 -13 3 -10 5
3 3 -3 15 -12 26 -14 15 -14 18 -2 8 9 -6 20 -8 25 -4z m78 -17 c-2 -3 -12 3
-22 13 -16 17 -16 18 5 5 12 -7 20 -15 17 -18z m-1749 9 c-3 -5 -12 -10 -18
-10 -7 0 -6 4 3 10 19 12 23 12 15 0z m36 -3 c-6 -8 -9 -16 -6 -19 3 -2 -2 -5
-10 -5 -13 0 -13 3 2 19 19 21 31 25 14 5z m185 6 c-2 -3 -6 -3 -9 -1 -3 2
-15 -6 -28 -17 l-24 -20 18 21 c9 11 24 21 32 21 8 0 13 -2 11 -4z m54 -18
c14 -19 14 -19 -2 -6 -10 7 -18 18 -18 24 0 6 1 8 3 6 1 -2 9 -13 17 -24z
m464 17 c3 -5 -1 -9 -9 -9 -8 0 -12 4 -9 9 3 4 7 8 9 8 2 0 6 -4 9 -8z m95 5
c-2 -1 -13 -9 -24 -17 -19 -14 -19 -14 -6 3 7 9 18 17 24 17 6 0 8 -1 6 -3z
m347 -4 c-2 -3 -6 -3 -9 -1 -3 2 -15 -6 -28 -17 l-24 -20 18 21 c9 11 24 21
32 21 8 0 13 -2 11 -4z m447 -11 c15 -16 15 -19 2 -19 -8 0 -13 3 -10 5 3 3 0
11 -6 19 -17 20 -5 16 14 -5z m80 0 c15 -16 15 -19 2 -19 -8 0 -13 3 -10 5 3
3 0 11 -6 19 -17 20 -5 16 14 -5z m-1633 -6 c0 -2 -7 -7 -16 -10 -8 -3 -12 -2
-9 4 6 10 25 14 25 6z m28 -21 c-3 -3 -9 2 -12 12 -6 14 -5 15 5 6 7 -7 10
-15 7 -18z m250 5 c-7 -10 -14 -17 -17 -15 -4 4 18 35 25 35 2 0 -1 -9 -8 -20z
m47 10 c3 -6 -1 -7 -9 -4 -18 7 -21 14 -7 14 6 0 13 -4 16 -10z m637 -2 c-9
-9 -7 -15 6 -25 9 -8 11 -12 4 -8 -7 4 -21 1 -30 -6 -14 -11 -15 -11 -5 1 10
11 9 16 -5 27 -15 11 -15 12 -1 7 10 -3 20 -1 24 5 3 6 9 11 13 11 3 0 1 -5
-6 -12z m276 -8 c-7 -10 -14 -17 -17 -15 -4 4 18 35 25 35 2 0 -1 -9 -8 -20z
m243 7 c-6 -8 -9 -17 -6 -20 3 -4 2 -5 -2 -2 -3 3 -11 0 -18 -5 -8 -7 -12 -5
-12 5 0 8 4 12 8 10 3 -3 12 2 19 10 7 8 15 15 17 15 3 0 0 -6 -6 -13z m44 3
c3 -6 -1 -7 -9 -4 -18 7 -21 14 -7 14 6 0 13 -4 16 -10z m-2069 -15 c-1 -8 -5
-17 -8 -21 -5 -4 -4 16 1 34 3 9 9 -1 7 -13z m597 0 c-3 -9 -8 -14 -10 -11 -3
3 -2 9 2 15 9 16 15 13 8 -4z m87 11 c0 -2 -8 -10 -17 -17 -16 -13 -17 -12 -4
4 13 16 21 21 21 13z m55 -34 c-3 -3 3 -15 12 -26 18 -21 18 -21 -5 -2 -12 11
-20 21 -17 24 3 3 -3 15 -12 26 -18 21 -18 21 5 2 12 -11 20 -21 17 -24z m501
12 c1 -9 0 -13 -4 -10 -3 4 -7 14 -8 22 -1 9 0 13 4 10 3 -4 7 -14 8 -22z m96
14 c-13 -13 -84 -20 -77 -7 3 3 18 5 35 4 17 -1 33 1 36 6 3 5 8 9 12 9 3 0 1
-5 -6 -12z m221 -3 c-3 -9 -8 -14 -10 -11 -3 3 -2 9 2 15 9 16 15 13 8 -4z
m87 11 c0 -2 -8 -10 -17 -17 -16 -13 -17 -12 -4 4 13 16 21 21 21 13z m55 -34
c-3 -3 3 -15 12 -26 18 -21 18 -21 -5 -2 -12 11 -20 21 -17 24 3 3 -3 15 -12
26 -18 21 -18 21 5 2 12 -11 20 -21 17 -24z m221 18 c0 -12 -4 -16 -9 -11 -5
5 -6 14 -3 20 10 15 12 14 12 -9z m320 5 c-1 -8 -5 -17 -8 -21 -5 -4 -4 16 1
34 3 9 9 -1 7 -13z m-1685 -12 c13 -16 12 -17 -3 -4 -10 7 -18 15 -18 17 0 8
8 3 21 -13z m299 13 c0 -2 -8 -10 -17 -17 -16 -13 -17 -12 -4 4 13 16 21 21
21 13z m520 0 c0 -2 -8 -10 -17 -17 -16 -13 -17 -12 -4 4 13 16 21 21 21 13z
m61 -19 c-10 -9 -11 -8 -5 6 3 10 9 15 12 12 3 -3 0 -11 -7 -18z m379 19 c0
-2 -8 -10 -17 -17 -16 -13 -17 -12 -4 4 13 16 21 21 21 13z m-1793 -34 c-17
-18 -51 -27 -41 -10 3 5 9 6 14 3 4 -3 13 2 20 10 7 8 15 15 18 15 3 0 -2 -8
-11 -18z m493 13 c0 -1 -10 -10 -22 -21 -14 -12 -18 -13 -10 -3 6 9 10 18 7
21 -3 2 2 5 10 5 8 0 15 -1 15 -2z m194 -3 c2 -4 -4 -8 -14 -8 -10 0 -16 4
-14 8 3 4 9 8 14 8 5 0 11 -4 14 -8z m82 -4 c3 -4 -1 -5 -10 -4 -8 1 -18 5
-22 8 -3 4 1 5 10 4 8 -1 18 -5 22 -8z m446 -13 c3 3 13 -5 24 -17 19 -23 19
-23 -2 -5 -11 9 -23 15 -26 12 -3 -3 -13 5 -24 17 -19 23 -19 23 2 5 11 -9 23
-15 26 -12z m143 5 c-10 -11 -20 -18 -23 -15 -3 3 -15 -3 -26 -12 -21 -18 -21
-18 -2 4 10 13 22 20 26 18 4 -3 13 2 20 10 7 8 15 15 18 15 3 0 -3 -9 -13
-20z m290 10 c3 -6 -1 -7 -9 -4 -18 7 -21 14 -7 14 6 0 13 -4 16 -10z m81 -2
c3 -4 -1 -5 -10 -4 -8 1 -18 5 -22 8 -3 4 1 5 10 4 8 -1 18 -5 22 -8z m509 -8
c-10 -11 -20 -18 -23 -15 -3 3 -15 -3 -26 -12 -21 -18 -21 -18 -2 4 10 13 22
20 26 18 4 -3 13 2 20 10 7 8 15 15 18 15 3 0 -3 -9 -13 -20z m-1639 -2 c5 4
6 3 2 -2 -4 -5 -3 -14 2 -21 7 -8 5 -12 -5 -12 -8 0 -13 3 -10 5 3 3 -3 15
-12 26 -14 15 -14 18 -2 8 9 -6 20 -8 25 -4z m694 -3 c-7 -8 -17 -15 -23 -15
-6 0 -2 7 9 15 25 19 30 19 14 0z m150 12 c0 -2 -8 -11 -18 -20 -15 -14 -19
-15 -19 -2 0 8 4 12 8 9 4 -2 10 0 14 6 6 10 15 14 15 7z m116 -9 c5 4 6 3 2
-2 -4 -5 -3 -14 2 -21 7 -8 5 -12 -5 -12 -8 0 -13 3 -10 5 3 3 -3 15 -12 26
-14 15 -14 18 -2 8 9 -6 20 -8 25 -4z m65 -5 c13 -16 12 -17 -3 -4 -10 7 -18
15 -18 17 0 8 8 3 21 -13z m197 -8 c-3 -3 -9 2 -12 12 -6 14 -5 15 5 6 7 -7
10 -15 7 -18z m182 22 c0 -2 -8 -11 -18 -20 -15 -14 -19 -15 -19 -2 0 8 4 12
8 9 4 -2 10 0 14 6 6 10 15 14 15 7z m77 -42 c0 -8 -4 -12 -9 -9 -5 4 -7 9 -4
12 3 3 -2 15 -11 26 -18 21 -18 21 3 3 11 -9 21 -24 21 -32z m77 16 c-2 -3
-12 3 -22 13 -16 17 -16 18 5 5 12 -7 20 -15 17 -18z m152 7 c12 -14 13 -18 3
-10 -9 6 -18 10 -21 7 -2 -3 -5 2 -5 10 0 19 0 19 23 -7z m-1787 9 c-2 -1 -13
-9 -24 -17 -19 -14 -19 -14 -6 3 7 9 18 17 24 17 6 0 8 -1 6 -3z m34 -15 c15
-16 15 -19 2 -19 -8 0 -13 3 -10 5 3 3 0 11 -6 19 -17 20 -5 16 14 -5z m80 0
c15 -16 15 -19 2 -19 -8 0 -13 3 -10 5 3 3 0 11 -6 19 -17 20 -5 16 14 -5z
m168 5 c-6 -8 -9 -16 -6 -19 3 -2 -2 -5 -10 -5 -13 0 -13 3 2 19 19 21 31 25
14 5z m712 -5 c15 -16 15 -19 2 -19 -8 0 -13 3 -10 5 3 3 0 11 -6 19 -17 20
-5 16 14 -5z m80 0 c15 -16 15 -19 2 -19 -8 0 -13 3 -10 5 3 3 0 11 -6 19 -17
20 -5 16 14 -5z m324 -6 c18 -21 18 -21 -3 -3 -11 9 -23 14 -26 11 -3 -3 -8
-1 -12 4 -11 18 25 8 41 -12z m124 -3 c13 -16 12 -17 -3 -4 -10 7 -18 15 -18
17 0 8 8 3 21 -13z m-1201 3 c0 -2 -7 -7 -16 -10 -8 -3 -12 -2 -9 4 6 10 25
14 25 6z m37 -10 c-1 -6 3 -10 9 -9 6 1 11 -5 11 -12 0 -10 -4 -12 -12 -5 -7
5 -16 6 -21 2 -5 -4 -6 -3 -2 2 4 5 3 14 -2 21 -7 8 -5 12 5 12 7 0 13 -5 12
-11z m564 1 c-6 -8 -9 -17 -6 -20 3 -4 2 -5 -2 -2 -3 3 -11 0 -18 -5 -8 -7
-12 -5 -12 5 0 8 4 12 8 10 3 -3 12 2 19 10 7 8 15 15 17 15 3 0 0 -6 -6 -13z
m44 3 c3 -6 -1 -7 -9 -4 -18 7 -21 14 -7 14 6 0 13 -4 16 -10z m315 6 c0 -2
-7 -7 -16 -10 -8 -3 -12 -2 -9 4 6 10 25 14 25 6z m326 -8 c3 -4 -1 -5 -10 -4
-8 1 -18 5 -22 8 -3 4 1 5 10 4 8 -1 18 -5 22 -8z m-2150 -13 c-1 -8 -5 -17
-8 -21 -5 -4 -4 16 1 34 3 9 9 -1 7 -13z m480 0 c-1 -8 -5 -17 -8 -21 -5 -4
-4 16 1 34 3 9 9 -1 7 -13z m765 -2 c13 -16 12 -17 -3 -4 -10 7 -18 15 -18 17
0 8 8 3 21 -13z m115 2 c-1 -8 -5 -17 -8 -21 -5 -4 -4 16 1 34 3 9 9 -1 7 -13z
m474 0 c-7 -8 -17 -15 -23 -15 -6 0 -2 7 9 15 25 19 30 19 14 0z m186 -10 c-1
-14 -10 -33 -21 -43 -18 -16 -18 -16 -4 2 7 11 15 27 15 38 2 23 3 28 7 28 2
0 3 -11 3 -25z m300 -1 c1 -9 0 -13 -4 -10 -3 4 -7 14 -8 22 -1 9 0 13 4 10 3
-4 7 -14 8 -22z m-1619 1 c0 -8 -4 -12 -9 -9 -4 3 -8 9 -8 15 0 5 4 9 8 9 5 0
9 -7 9 -15z m797 6 c3 -5 -2 -15 -12 -22 -15 -12 -16 -12 -5 2 7 9 10 19 6 22
-3 4 -4 7 0 7 3 0 8 -4 11 -9z m272 -3 c3 -4 -1 -5 -10 -4 -8 1 -18 5 -22 8
-3 4 1 5 10 4 8 -1 18 -5 22 -8z m80 -16 c-17 -16 -18 -16 -5 5 7 12 15 20 18
17 3 -2 -3 -12 -13 -22z m-625 1 c13 -16 12 -17 -3 -4 -10 7 -18 15 -18 17 0
8 8 3 21 -13z m-486 -1 c-3 -3 0 -11 6 -19 17 -20 5 -16 -14 5 -15 16 -15 19
-2 19 8 0 13 -3 10 -5z m40 0 c-3 -3 3 -15 12 -26 14 -15 14 -18 2 -8 -9 6
-20 8 -25 4 -5 -4 -6 -3 -2 2 4 5 3 14 -2 21 -7 8 -5 12 5 12 8 0 13 -3 10 -5z
m42 -9 c0 -9 -4 -10 -14 -2 -7 6 -13 12 -13 14 0 1 6 2 13 2 8 0 14 -6 14 -14z
m45 6 c2 -2 1 -3 -1 -2 -2 1 -11 -6 -20 -15 -9 -10 -12 -12 -8 -5 5 6 6 16 3
22 -3 5 1 8 9 7 8 -1 16 -4 17 -7z m515 -7 c-17 -18 -51 -27 -41 -10 3 5 9 6
14 3 4 -3 13 2 20 10 7 8 15 15 18 15 3 0 -2 -8 -11 -18z m283 4 c-7 -7 -13
-7 -20 0 -6 6 -3 10 10 10 13 0 16 -4 10 -10z m50 9 c0 -1 -10 -10 -22 -21
-14 -12 -18 -13 -10 -3 6 9 10 18 7 21 -3 2 2 5 10 5 8 0 15 -1 15 -2z m280 1
c0 -2 -8 -10 -17 -17 -16 -13 -17 -12 -4 4 13 16 21 21 21 13z m225 -16 c-10
-11 -20 -18 -23 -15 -3 3 -15 -3 -26 -12 -21 -18 -21 -18 -2 4 10 13 22 20 26
18 4 -3 13 2 20 10 7 8 15 15 18 15 3 0 -3 -9 -13 -20z m-2258 -5 c0 -8 -3
-13 -5 -10 -3 3 -12 -1 -21 -7 -10 -8 -9 -4 3 10 23 26 23 26 23 7z m63 12 c0
-2 -8 -11 -18 -20 -15 -14 -19 -15 -19 -2 0 8 4 12 8 9 4 -2 10 0 14 6 6 10
15 14 15 7z m480 -1 c0 -2 -6 -9 -14 -15 -11 -9 -16 -9 -22 0 -4 7 -3 9 4 5 6
-3 13 -2 17 4 6 10 15 14 15 6z m58 -21 c-3 -3 -9 2 -12 12 -6 14 -5 15 5 6 7
-7 10 -15 7 -18z m99 -20 c0 -8 -4 -12 -9 -9 -5 4 -7 9 -4 12 3 3 -2 15 -11
26 -18 21 -18 21 3 3 11 -9 21 -24 21 -32z m255 30 c2 3 5 -2 5 -10 0 -19 0
-19 -23 7 -12 14 -13 18 -3 10 9 -6 18 -10 21 -7z m294 -7 c12 -14 13 -18 3
-10 -9 6 -18 10 -21 7 -2 -3 -5 2 -5 10 0 19 0 19 23 -7z m254 19 c0 -2 -8
-11 -18 -20 -15 -14 -19 -15 -19 -2 0 8 4 12 8 9 4 -2 10 0 14 6 6 10 15 14
15 7z m87 -15 c-10 -10 -15 -21 -12 -24 3 -3 -5 -13 -17 -24 l-23 -19 19 23
c11 12 15 22 11 22 -4 0 0 9 10 20 10 11 20 20 23 20 3 0 -2 -8 -11 -18z m218
-2 c10 -11 16 -20 13 -20 -3 0 -13 9 -23 20 -10 11 -16 20 -13 20 3 0 13 -9
23 -20z m112 5 c0 -8 -3 -13 -5 -10 -3 3 -12 -1 -21 -7 -10 -8 -9 -4 3 10 23
26 23 26 23 7z m-1166 -12 c13 -16 12 -17 -3 -4 -10 7 -18 15 -18 17 0 8 8 3
21 -13z m1019 13 c0 -2 -8 -10 -17 -17 -16 -13 -17 -12 -4 4 13 16 21 21 21
13z m370 -21 c14 -19 14 -19 -2 -6 -10 7 -18 18 -18 24 0 6 1 8 3 6 1 -2 9
-13 17 -24z m159 22 c-2 -1 -13 -9 -24 -17 -19 -14 -19 -14 -6 3 7 9 18 17 24
17 6 0 8 -1 6 -3z m-1633 -29 c3 -4 -1 -5 -10 -4 -8 1 -18 5 -22 8 -3 4 1 5
10 4 8 -1 18 -5 22 -8z m65 -5 c13 -16 12 -17 -3 -4 -10 7 -18 15 -18 17 0 8
8 3 21 -13z m208 -17 c-3 -3 -11 5 -18 17 -13 21 -12 21 5 5 10 -10 16 -20 13
-22z m367 22 c3 -4 -1 -5 -10 -4 -8 1 -18 5 -22 8 -3 4 1 5 10 4 8 -1 18 -5
22 -8z m319 3 c-9 -8 -36 -10 -30 -2 2 4 11 8 20 8 8 0 13 -3 10 -6z m235 -5
c-7 -7 -13 -7 -20 0 -6 6 -3 10 10 10 13 0 16 -4 10 -10z m-1864 -11 c-1 -8
-5 -17 -8 -21 -5 -4 -4 16 1 34 3 9 9 -1 7 -13z m56 3 c-14 -14 -44 -20 -36
-7 3 5 9 7 14 4 5 -3 11 -1 15 5 3 5 9 10 13 10 3 0 1 -5 -6 -12z m548 8 c0
-2 -8 -10 -17 -17 -16 -13 -17 -12 -4 4 13 16 21 21 21 13z m656 -8 c5 4 6 3
2 -2 -4 -5 -2 -16 5 -25 10 -14 10 -14 -5 -3 -9 8 -21 11 -25 9 -5 -3 -9 3 -9
13 0 13 4 16 12 10 6 -6 15 -6 20 -2z m452 3 c16 12 16 12 0 -6 -18 -19 -18
-19 -35 0 -17 18 -17 18 0 6 14 -11 20 -11 35 0z m205 -6 c-3 -9 -8 -14 -10
-11 -3 3 -2 9 2 15 9 16 15 13 8 -4z m43 -11 c1 -9 0 -13 -4 -10 -3 4 -7 14
-8 22 -1 9 0 13 4 10 3 -4 7 -14 8 -22z m160 0 c1 -9 0 -13 -4 -10 -3 4 -7 14
-8 22 -1 9 0 13 4 10 3 -4 7 -14 8 -22z m-1510 -12 c-17 -16 -18 -16 -5 5 7
12 15 20 18 17 3 -2 -3 -12 -13 -22z m225 5 c-10 -9 -11 -8 -5 6 3 10 9 15 12
12 3 -3 0 -11 -7 -18z m80 6 c13 -17 13 -17 -6 -3 -11 8 -22 16 -24 17 -2 2 0
3 6 3 6 0 17 -8 24 -17z m583 -6 c1 -8 8 -23 16 -33 14 -18 14 -18 -6 -2 -11
9 -20 27 -21 39 -2 23 7 20 11 -4z m166 -2 c14 -19 14 -19 -2 -6 -10 7 -18 18
-18 24 0 6 1 8 3 6 1 -2 9 -13 17 -24z m106 18 c-2 -3 -6 -3 -9 -1 -3 2 -15
-6 -28 -17 l-24 -20 18 21 c9 11 24 21 32 21 8 0 13 -2 11 -4z m65 -10 c13
-16 12 -17 -3 -4 -17 13 -22 21 -14 21 2 0 10 -8 17 -17z m520 0 c13 -17 13
-17 -6 -3 -11 8 -22 16 -24 17 -2 2 0 3 6 3 6 0 17 -8 24 -17z m-1819 -10 c-1
-4 7 -17 16 -28 17 -20 17 -20 -4 -2 -11 9 -21 24 -21 32 0 8 2 13 5 11 2 -2
4 -8 4 -13z m1689 0 c13 -16 12 -17 -3 -4 -10 7 -18 15 -18 17 0 8 8 3 21 -13z
m31 0 c-1 -4 7 -17 16 -28 17 -20 17 -20 -4 -2 -11 9 -21 24 -21 32 0 8 2 13
5 11 2 -2 4 -8 4 -13z m-1677 -11 c-3 -3 -11 0 -18 7 -9 10 -8 11 6 5 10 -3
15 -9 12 -12z m201 0 c-9 -11 -28 -18 -44 -17 -15 1 -36 -5 -47 -14 -20 -16
-20 -16 -2 5 12 15 27 21 47 19 16 -1 35 4 41 11 6 8 14 14 17 14 3 0 -2 -8
-12 -18z m529 8 c-3 -5 -12 -10 -18 -10 -7 0 -6 4 3 10 19 12 23 12 15 0z m45
5 c0 -1 -10 -10 -22 -21 -14 -12 -18 -13 -10 -3 6 9 10 18 7 21 -3 2 2 5 10 5
8 0 15 -1 15 -2z m40 0 c0 -1 -12 -12 -27 -26 -20 -17 -23 -18 -10 -3 9 11 15
23 12 26 -3 2 2 5 10 5 8 0 15 -1 15 -2z m76 -7 c3 -4 -1 -5 -10 -4 -8 1 -18
5 -22 8 -3 4 1 5 10 4 8 -1 18 -5 22 -8z m372 -14 c9 -2 23 3 32 9 13 10 13
10 2 -5 -17 -22 -48 -19 -70 6 -16 20 -16 20 2 6 10 -8 25 -15 34 -16z m232
21 c0 -1 -10 -10 -22 -21 -14 -12 -18 -13 -10 -3 6 9 10 18 7 21 -3 2 2 5 10
5 8 0 15 -1 15 -2z m225 -3 c-3 -3 0 -11 7 -19 6 -7 9 -15 7 -17 -2 -2 -12 6
-21 18 -13 18 -14 23 -2 23 8 0 12 -3 9 -5z m40 -20 c-3 -3 1 -12 8 -21 11
-14 10 -14 -6 -2 -9 8 -15 16 -12 19 3 3 -1 12 -8 21 -11 14 -10 14 6 2 9 -8
15 -16 12 -19z m-2308 0 c-10 -10 -15 -21 -12 -24 3 -2 -2 -5 -10 -5 -10 0
-12 4 -5 12 5 7 6 16 2 20 -4 5 -2 5 5 1 6 -3 14 -2 18 4 3 5 9 10 12 10 3 0
-1 -8 -10 -18z m610 3 c0 -8 -3 -13 -5 -10 -3 3 -12 -1 -21 -7 -10 -8 -9 -4 3
10 23 26 23 26 23 7z m223 12 c0 -2 -8 -11 -18 -20 -15 -14 -19 -15 -19 -2 0
8 4 12 8 9 4 -2 10 0 14 6 6 10 15 14 15 7z m786 -19 c12 -14 13 -18 3 -10 -9
6 -18 10 -21 7 -2 -3 -5 2 -5 10 0 19 0 19 23 -7z m111 9 c0 -8 -6 -14 -14
-14 -9 0 -10 4 -2 14 6 7 12 13 14 13 1 0 2 -6 2 -13z m179 1 c5 4 6 3 2 -2
-4 -5 -4 -14 2 -20 6 -8 2 -12 -13 -13 -12 0 -16 1 -9 4 10 4 9 10 -5 26 -12
15 -13 18 -2 9 9 -6 20 -8 25 -4z m78 -17 c-2 -3 -12 3 -22 13 -16 17 -16 18
5 5 12 -7 20 -15 17 -18z m192 7 c12 -14 13 -18 3 -10 -9 6 -18 10 -21 7 -2
-3 -5 2 -5 10 0 19 0 19 23 -7z m195 5 c13 -16 12 -17 -3 -4 -17 13 -22 21
-14 21 2 0 10 -8 17 -17z m-2420 -6 c-6 -8 -9 -16 -6 -19 3 -2 -2 -5 -10 -5
-13 0 -13 3 2 19 19 21 31 25 14 5z m1269 8 c0 -2 -6 -8 -13 -14 -10 -8 -14
-7 -14 2 0 8 6 14 14 14 7 0 13 -1 13 -2z m181 -12 c13 -17 13 -17 -6 -3 -11
8 -22 16 -24 17 -2 2 0 3 6 3 6 0 17 -8 24 -17z m149 -8 c14 -19 14 -19 -2 -6
-10 7 -18 18 -18 24 0 6 1 8 3 6 1 -2 9 -13 17 -24z m393 7 c15 -16 15 -19 2
-19 -8 0 -13 3 -10 5 3 3 0 11 -6 19 -17 20 -5 16 14 -5z m165 -7 c17 -19 16
-20 -3 -4 -11 9 -30 15 -42 14 -12 -1 -20 2 -17 6 8 14 45 5 62 -16z m235 7
c15 -16 15 -19 2 -19 -8 0 -13 3 -10 5 3 3 0 11 -6 19 -17 20 -5 16 14 -5z
m-2313 4 c0 -2 -8 -10 -17 -17 -16 -13 -17 -12 -4 4 13 16 21 21 21 13z m1121
-13 c13 -16 12 -17 -3 -4 -10 7 -18 15 -18 17 0 8 8 3 21 -13z m716 4 c0 -8
-6 -14 -14 -14 -9 0 -10 4 -2 14 6 7 12 13 14 13 1 0 2 -6 2 -13z m-1039 -17
c-7 -10 -14 -17 -17 -15 -4 4 18 35 25 35 2 0 -1 -9 -8 -20z m412 16 c0 -2 -8
-10 -17 -17 -16 -13 -17 -12 -4 4 13 16 21 21 21 13z m427 -19 c1 -11 1 -18 0
-16 -2 2 -8 11 -15 20 -9 12 -9 16 1 16 7 0 14 -9 14 -20z m34 6 c13 -16 12
-17 -3 -4 -17 13 -22 21 -14 21 2 0 10 -8 17 -17z m514 -30 c-18 -17 -18 -17
-6 0 11 14 11 20 0 35 -12 16 -12 16 6 0 19 -18 19 -18 0 -35z m-1612 22 c-3
-9 -8 -14 -10 -11 -3 3 -2 9 2 15 9 16 15 13 8 -4z m83 -5 c0 -12 -4 -16 -9
-11 -5 5 -6 14 -3 20 10 15 12 14 12 -9z m859 -18 c-3 -3 3 -15 12 -26 18 -21
18 -21 -5 -2 -12 11 -20 21 -17 24 3 3 -3 15 -12 26 -18 21 -18 21 5 2 12 -11
20 -21 17 -24z m60 29 c3 -5 2 -12 -3 -15 -5 -3 -9 1 -9 9 0 17 3 19 12 6z
m117 -23 c-8 -8 -9 -4 -5 13 4 13 8 18 11 10 2 -7 -1 -18 -6 -23z m285 19 c0
-7 -9 -14 -20 -14 -19 -2 -19 -2 -1 12 11 8 19 15 20 15 0 0 1 -6 1 -13z m84
-4 c13 -16 12 -17 -3 -4 -17 13 -22 21 -14 21 2 0 10 -8 17 -17z m73 -13 c-6
-6 -10 -3 -10 10 0 13 4 16 10 10 7 -7 7 -13 0 -20z m-1618 8 c3 -3 -13 -5
-35 -4 -22 1 -43 4 -46 7 -3 3 13 5 35 4 22 -1 43 -4 46 -7z m314 8 c0 -2 -8
-10 -17 -17 -16 -13 -17 -12 -4 4 13 16 21 21 21 13z m116 -9 c4 -3 -4 -4 -16
-2 -30 6 -40 16 -12 12 12 -2 24 -6 28 -10z m394 3 c0 -5 -8 -7 -17 -5 -10 1
-23 -1 -29 -6 -6 -5 -11 -4 -11 4 0 7 13 13 29 14 15 0 28 -3 28 -7z m251 -13
c-10 -9 -11 -8 -5 6 3 10 9 15 12 12 3 -3 0 -11 -7 -18z m681 12 c2 -2 1 -3
-1 -2 -2 2 -9 -2 -16 -7 -8 -7 -12 -5 -12 4 0 12 22 16 29 5z m-1671 -16 c13
-16 12 -17 -3 -4 -10 7 -18 15 -18 17 0 8 8 3 21 -13z m1156 2 c0 -8 -10 -23
-21 -32 -21 -18 -21 -18 -2 5 11 12 16 22 12 22 -4 0 -4 5 -1 10 9 14 12 13
12 -5z m284 -2 c13 -16 12 -17 -3 -5 -9 8 -23 10 -29 6 -8 -4 -9 -3 -5 4 10
17 21 15 37 -5z m-1309 -17 c3 3 8 1 12 -4 11 -18 -25 -8 -41 12 -18 21 -18
21 3 3 11 -9 23 -14 26 -11z m109 11 c-6 -8 -9 -16 -6 -19 3 -3 -3 -11 -12
-19 -16 -13 -17 -12 -4 4 7 9 10 17 6 17 -4 0 -2 7 5 15 7 8 15 15 17 15 3 0
0 -6 -6 -13z m49 8 c0 -1 -10 -10 -22 -21 -14 -12 -18 -13 -10 -3 6 9 10 18 7
21 -3 2 2 5 10 5 8 0 15 -1 15 -2z m322 -19 c3 3 8 1 12 -4 11 -18 -25 -8 -41
12 -18 21 -18 21 3 3 11 -9 23 -14 26 -11z m339 7 c13 -16 12 -17 -3 -4 -10 7
-18 15 -18 17 0 8 8 3 21 -13z m179 13 c0 -2 -8 -10 -17 -17 -16 -13 -17 -12
-4 4 13 16 21 21 21 13z m75 -5 c-9 -8 -36 -10 -30 -2 2 4 11 8 20 8 8 0 13
-3 10 -6z m510 1 c-3 -3 0 -11 6 -19 17 -20 5 -16 -14 5 -15 16 -15 19 -2 19
8 0 13 -3 10 -5z m-1902 -17 c-3 -9 -8 -14 -10 -11 -3 3 -2 9 2 15 9 16 15 13
8 -4z m62 -23 c-3 -3 3 -15 12 -26 18 -21 18 -21 -5 -2 -12 11 -20 21 -17 24
3 3 -3 15 -12 26 -18 21 -18 21 5 2 12 -11 20 -21 17 -24z m65 34 c0 -2 -8
-10 -17 -17 -16 -13 -17 -12 -4 4 13 16 21 21 21 13z m57 -41 c0 -8 -4 -12 -9
-9 -5 4 -7 9 -4 12 3 3 -2 15 -11 26 -18 21 -18 21 3 3 11 -9 21 -24 21 -32z
m55 30 c2 3 5 -2 5 -10 0 -19 0 -19 -23 7 -12 14 -13 18 -3 10 9 -6 18 -10 21
-7z m485 0 c0 -8 -3 -13 -5 -10 -3 3 -12 -1 -21 -7 -10 -8 -9 -4 3 10 23 26
23 26 23 7z m148 -5 c10 -11 16 -20 13 -20 -3 0 -13 9 -23 20 -10 11 -16 20
-13 20 3 0 13 -9 23 -20z m85 5 c-7 -8 -17 -15 -23 -15 -6 0 -2 7 9 15 25 19
30 19 14 0z m78 -2 c-8 -10 -14 -28 -13 -40 1 -12 -2 -20 -7 -17 -16 10 10 74
30 74 3 0 -2 -8 -10 -17z m169 2 c0 -8 -3 -13 -5 -10 -3 3 -12 -1 -21 -7 -10
-8 -9 -4 3 10 23 26 23 26 23 7z m298 -23 c-3 -3 3 -15 12 -26 18 -21 18 -21
-5 -2 -12 11 -20 21 -17 24 3 3 -3 15 -12 26 -18 21 -18 21 5 2 12 -11 20 -21
17 -24z m65 34 c0 -2 -8 -10 -17 -17 -16 -13 -17 -12 -4 4 13 16 21 21 21 13z
m112 -11 c2 3 5 -2 5 -10 0 -19 0 -19 -23 7 -12 14 -13 18 -3 10 9 -6 18 -10
21 -7z m68 12 c0 -2 -8 -11 -18 -20 -15 -14 -19 -15 -19 -2 0 8 4 12 8 9 4 -2
10 0 14 6 6 10 15 14 15 7z m50 -12 c-7 -8 -17 -15 -23 -15 -6 0 -2 7 9 15 25
19 30 19 14 0z m-2295 -23 c-3 -3 3 -15 12 -26 14 -15 14 -18 2 -8 -9 6 -18 9
-22 6 -3 -3 -4 2 -3 13 2 10 -2 25 -8 33 -10 13 -9 13 7 1 9 -8 15 -16 12 -19z
m886 15 c-6 -8 -7 -18 -3 -22 4 -5 1 -5 -6 -1 -10 6 -10 11 -1 22 6 8 14 14
16 14 3 0 0 -6 -6 -13z m109 9 c0 -2 -8 -10 -17 -17 -16 -13 -17 -12 -4 4 13
16 21 21 21 13z m780 1 c0 -2 -10 -12 -22 -23 l-23 -19 19 23 c18 21 26 27 26
19z m311 -10 c-6 -8 -9 -16 -6 -19 3 -2 -2 -5 -10 -5 -13 0 -13 3 2 19 19 21
31 25 14 5z m240 0 c-6 -8 -9 -16 -6 -19 3 -2 -2 -5 -10 -5 -13 0 -13 3 2 19
19 21 31 25 14 5z m-1685 -6 c-4 -5 0 -11 6 -14 7 -3 3 -4 -9 -4 -17 1 -19 4
-11 14 12 15 22 18 14 4z m-590 -13 c3 -4 -1 -5 -10 -4 -8 1 -18 5 -22 8 -3 4
1 5 10 4 8 -1 18 -5 22 -8z m478 4 c3 -5 -1 -9 -9 -9 -8 0 -15 4 -15 9 0 4 4
8 9 8 6 0 12 -4 15 -8z m71 -10 c-3 -3 -11 0 -18 7 -9 10 -8 11 6 5 10 -3 15
-9 12 -12z m137 -7 c2 3 5 -2 5 -10 0 -10 -4 -12 -12 -5 -7 5 -16 6 -21 2 -5
-4 -6 -3 -2 2 4 5 2 16 -4 25 -10 12 -7 12 8 -2 11 -9 23 -15 26 -12z m753 16
c-9 -8 -36 -10 -30 -2 2 4 11 8 20 8 8 0 13 -3 10 -6z m481 -3 c3 -4 -1 -5
-10 -4 -8 1 -18 5 -22 8 -3 4 1 5 10 4 8 -1 18 -5 22 -8z m69 -6 c-3 -3 -11 0
-18 7 -9 10 -8 11 6 5 10 -3 15 -9 12 -12z m85 14 c0 -2 -7 -7 -16 -10 -8 -3
-12 -2 -9 4 6 10 25 14 25 6z m52 -21 c2 3 5 -2 5 -10 0 -10 -4 -12 -12 -5 -7
5 -16 6 -21 2 -5 -4 -6 -3 -2 2 4 5 2 16 -4 25 -10 12 -7 12 8 -2 11 -9 23
-15 26 -12z m193 16 c-9 -8 -36 -10 -30 -2 2 4 11 8 20 8 8 0 13 -3 10 -6z
m-1549 -27 c1 -9 0 -13 -4 -10 -3 4 -7 14 -8 22 -1 9 0 13 4 10 3 -4 7 -14 8
-22z m124 22 c0 -2 -8 -10 -17 -17 -16 -13 -17 -12 -4 4 13 16 21 21 21 13z
m71 -10 c-7 -8 -20 -13 -29 -11 -9 1 -26 -5 -37 -14 -20 -16 -20 -16 -2 6 11
12 27 20 38 18 10 -2 21 0 24 6 4 5 9 9 12 9 3 0 0 -6 -6 -14z m206 -1 c0 -8
-3 -13 -5 -10 -3 3 -15 -3 -26 -12 -15 -14 -18 -14 -8 -2 6 9 8 20 4 24 -4 5
-2 5 5 1 6 -3 14 -2 18 4 9 14 12 13 12 -5z m480 0 c0 -8 -3 -13 -5 -10 -3 3
-15 -3 -26 -12 -15 -14 -18 -14 -8 -2 6 9 8 20 4 24 -4 5 -2 5 5 1 6 -3 14 -2
18 4 9 14 12 13 12 -5z m190 -3 c-10 -10 -15 -21 -12 -24 3 -3 -5 -13 -17 -24
l-23 -19 19 23 c15 17 16 22 5 23 -10 0 -11 2 -1 6 6 2 9 10 6 15 -4 6 -2 8 4
4 6 -3 13 -2 17 4 3 5 9 10 12 10 3 0 -1 -8 -10 -18z m369 -8 c1 -9 0 -13 -4
-10 -3 4 -7 14 -8 22 -1 9 0 13 4 10 3 -4 7 -14 8 -22z m-350 -12 c-17 -16
-18 -16 -5 5 7 12 15 20 18 17 3 -2 -3 -12 -13 -22z m484 24 c0 -2 -8 -10 -17
-17 -16 -13 -17 -12 -4 4 13 16 21 21 21 13z m-629 -23 c13 -16 12 -17 -3 -4
-10 7 -18 15 -18 17 0 8 8 3 21 -13z m31 0 c-1 -4 7 -17 16 -28 17 -20 17 -20
-4 -2 -11 9 -21 24 -21 32 0 8 2 13 5 11 2 -2 4 -8 4 -13z m-1233 -27 c-3 -3
-11 5 -18 17 -13 21 -12 21 5 5 10 -10 16 -20 13 -22z m316 26 c-3 -3 0 -11 6
-19 17 -20 5 -16 -14 5 -15 16 -15 19 -2 19 8 0 13 -3 10 -5z m40 -10 c-3 -3
-11 0 -18 7 -9 10 -8 11 6 5 10 -3 15 -9 12 -12z m680 10 c-3 -3 0 -11 6 -19
17 -20 5 -16 -14 5 -15 16 -15 19 -2 19 8 0 13 -3 10 -5z m40 -10 c-3 -3 -11
0 -18 7 -9 10 -8 11 6 5 10 -3 15 -9 12 -12z m202 1 c0 -9 -4 -10 -14 -2 -7 6
-13 12 -13 14 0 1 6 2 13 2 8 0 14 -6 14 -14z m415 -8 c3 3 13 -5 24 -17 19
-23 19 -23 -2 -5 -11 9 -23 15 -26 12 -3 -3 -13 5 -24 17 -19 23 -19 23 2 5
11 -9 23 -15 26 -12z m143 5 c-10 -11 -20 -18 -23 -15 -3 3 -15 -3 -26 -12
-21 -18 -21 -18 -2 4 10 13 22 20 26 18 4 -3 13 2 20 10 7 8 15 15 18 15 3 0
-3 -9 -13 -20z m-2383 -5 c2 3 5 -2 5 -10 0 -19 0 -19 -23 7 -12 14 -13 18 -3
10 9 -6 18 -10 21 -7z m637 -1 c-18 -22 -20 -45 -6 -64 10 -13 10 -13 -5 -1
-10 7 -16 21 -15 31 3 18 25 50 34 50 3 0 -1 -7 -8 -16z m328 -6 c0 -13 -1
-17 -4 -10 -3 6 -10 9 -16 5 -7 -4 -6 1 2 10 17 21 17 21 18 -5z m240 7 c0 -8
-3 -13 -5 -10 -3 3 -12 -1 -21 -7 -10 -8 -9 -4 3 10 23 26 23 26 23 7z m156 0
c-3 -9 -8 -14 -10 -11 -3 3 -2 9 2 15 9 16 15 13 8 -4z m133 -7 c12 -14 13
-18 3 -10 -9 6 -18 10 -21 7 -2 -3 -5 2 -5 10 0 19 0 19 23 -7z m191 7 c0 -8
-3 -13 -5 -10 -3 3 -12 -1 -21 -7 -10 -8 -9 -4 3 10 23 26 23 26 23 7z m49 -7
c12 -14 13 -18 3 -10 -9 6 -18 10 -21 7 -2 -3 -5 2 -5 10 0 19 0 19 23 -7z
m191 7 c0 -8 -3 -13 -5 -10 -3 3 -12 -1 -21 -7 -10 -8 -9 -4 3 10 23 26 23 26
23 7z m152 -1 c-7 -9 -14 -23 -15 -31 -2 -8 -5 -18 -8 -21 -4 -3 -5 4 -3 15 3
20 24 53 34 53 3 0 -1 -7 -8 -16z m83 1 c2 3 5 -2 5 -10 0 -19 0 -19 -23 7
-12 14 -13 18 -3 10 9 -6 18 -10 21 -7z m156 6 c16 12 16 12 0 -6 -18 -19 -18
-19 -35 0 -17 18 -17 18 0 6 14 -11 20 -11 35 0z m-1477 -18 c13 -16 12 -17
-3 -4 -10 7 -18 15 -18 17 0 8 8 3 21 -13z m205 5 c4 -7 3 -10 -1 -5 -5 4 -18
-1 -29 -10 -21 -18 -21 -18 -2 5 22 26 23 26 32 10z m250 5 c-2 -3 -6 -3 -9
-1 -3 2 -15 -6 -28 -17 l-24 -20 18 21 c9 11 24 21 32 21 8 0 13 -2 11 -4z
m265 -10 c13 -17 13 -17 -6 -3 -11 8 -22 16 -24 17 -2 2 0 3 6 3 6 0 17 -8 24
-17z m415 -11 c-17 -16 -18 -16 -5 5 7 12 15 20 18 17 3 -2 -3 -12 -13 -22z
m-1306 14 c0 -2 -8 -10 -17 -17 -16 -13 -17 -12 -4 4 13 16 21 21 21 13z
m1440 0 c0 -2 -8 -10 -17 -17 -16 -13 -17 -12 -4 4 13 16 21 21 21 13z m-2129
-23 c13 -16 12 -17 -3 -4 -17 13 -22 21 -14 21 2 0 10 -8 17 -17z m840 0 c13
-16 12 -17 -3 -4 -10 7 -18 15 -18 17 0 8 8 3 21 -13z m118 3 c9 -11 9 -16 -1
-22 -7 -4 -10 -4 -6 1 4 4 3 14 -3 22 -6 7 -9 13 -6 13 2 0 10 -6 16 -14z
m212 1 c-6 -8 -8 -16 -5 -19 3 -3 1 -9 -4 -12 -6 -3 -9 0 -8 6 2 16 15 38 23
38 3 0 0 -6 -6 -13z m394 -15 c-3 -3 1 -12 8 -21 11 -14 10 -14 -6 -2 -9 8
-15 16 -12 19 3 3 -1 12 -8 21 -11 14 -10 14 6 2 9 -8 15 -16 12 -19z m78 9
c-12 -10 -20 -21 -18 -25 3 -3 2 -4 -2 -1 -13 10 -11 34 2 29 7 -3 16 -1 20 5
3 6 9 11 13 11 4 -1 -3 -9 -15 -19z m179 -6 c2 3 5 -2 5 -10 0 -19 1 -20 -28
12 -17 20 -18 23 -3 10 11 -9 23 -15 26 -12z m66 5 c-7 -10 -14 -17 -17 -15
-4 4 18 35 25 35 2 0 -1 -9 -8 -20z m-1301 -5 c0 -8 -3 -13 -5 -10 -3 3 -15
-3 -26 -12 -15 -13 -14 -10 3 10 29 32 28 31 28 12z m319 -11 c1 -9 0 -13 -4
-10 -3 4 -7 14 -8 22 -1 9 0 13 4 10 3 -4 7 -14 8 -22z m317 11 c-3 -9 -8 -14
-10 -11 -3 3 -2 9 2 15 9 16 15 13 8 -4z m80 0 c-3 -9 -8 -14 -10 -11 -3 3 -2
9 2 15 9 16 15 13 8 -4z m83 -11 c1 -9 0 -13 -4 -10 -3 4 -7 14 -8 22 -1 9 0
13 4 10 3 -4 7 -14 8 -22z m122 1 c-3 -3 -9 2 -12 12 -6 14 -5 15 5 6 7 -7 10
-15 7 -18z m198 5 c0 -12 -4 -16 -9 -11 -5 5 -6 14 -3 20 10 15 12 14 12 -9z
m57 6 c3 3 4 -2 2 -13 -1 -10 5 -27 14 -38 16 -20 16 -20 -7 -1 -12 11 -20 21
-17 24 3 3 -3 15 -12 26 -14 15 -14 18 -2 8 9 -6 18 -9 22 -6z m177 -1 c-7 -9
-15 -13 -18 -10 -3 3 -12 -1 -21 -8 -14 -11 -14 -10 -2 5 7 10 17 16 21 13 5
-3 11 -1 15 5 3 5 9 10 12 10 3 0 0 -7 -7 -15z m83 0 c-3 -9 -8 -14 -10 -11
-3 3 -2 9 2 15 9 16 15 13 8 -4z m159 0 c2 3 5 -2 5 -10 0 -19 0 -19 -23 7
-12 14 -13 18 -3 10 9 -6 18 -10 21 -7z m82 -15 c-6 -6 -10 -3 -10 10 0 13 4
16 10 10 7 -7 7 -13 0 -20z m126 26 c0 -2 -8 -10 -17 -17 -16 -13 -17 -12 -4
4 13 16 21 21 21 13z m-1860 -18 c0 -6 -3 -8 -7 -5 -3 4 -13 1 -22 -6 -14 -11
-14 -10 -2 6 15 20 31 22 31 5z m451 -11 c-10 -9 -11 -8 -5 6 3 10 9 15 12 12
3 -3 0 -11 -7 -18z m85 11 c4 -7 3 -10 -1 -5 -5 4 -18 -1 -29 -10 -21 -18 -21
-18 -2 5 22 26 23 26 32 10z m1374 8 c0 -2 -8 -10 -17 -17 -16 -13 -17 -12 -4
4 13 16 21 21 21 13z m-1109 -23 c13 -16 12 -17 -3 -4 -17 13 -22 21 -14 21 2
0 10 -8 17 -17z m639 13 c0 -2 -8 -10 -17 -17 -16 -13 -17 -12 -4 4 13 16 21
21 21 13z m81 -13 c13 -16 12 -17 -3 -4 -17 13 -22 21 -14 21 2 0 10 -8 17
-17z m279 13 c0 -2 -8 -10 -17 -17 -16 -13 -17 -12 -4 4 13 16 21 21 21 13z
m-2289 -23 c13 -16 12 -17 -3 -4 -10 7 -18 15 -18 17 0 8 8 3 21 -13z m659 13
c0 -2 -8 -10 -17 -17 -16 -13 -17 -12 -4 4 13 16 21 21 21 13z m202 -20 c3 3
8 1 12 -4 11 -18 -25 -8 -41 12 -18 21 -18 21 3 3 11 -9 23 -14 26 -11z m773
-23 c-18 -17 -18 -17 -6 0 11 14 11 20 0 35 -12 16 -12 16 6 0 19 -18 19 -18
0 -35z m126 30 c13 -16 12 -17 -3 -4 -17 13 -22 21 -14 21 2 0 10 -8 17 -17z
m381 -7 c3 3 8 1 12 -4 11 -18 -25 -8 -41 12 -18 21 -18 21 3 3 11 -9 23 -14
26 -11z m-1595 -1 c0 -8 -3 -13 -5 -10 -3 3 -12 -1 -21 -7 -10 -8 -9 -4 3 10
23 26 23 26 23 7z m49 -7 c12 -14 13 -18 3 -10 -9 6 -18 10 -21 7 -2 -3 -5 2
-5 10 0 19 0 19 23 -7z m115 5 c13 -16 12 -17 -3 -4 -10 7 -18 15 -18 17 0 8
8 3 21 -13z m316 2 c0 -8 -3 -13 -5 -10 -3 3 -12 -1 -21 -7 -10 -8 -9 -4 3 10
23 26 23 26 23 7z m113 0 c-7 -8 -17 -15 -23 -15 -6 0 -2 7 9 15 25 19 30 19
14 0z m66 3 c5 4 6 3 2 -2 -4 -5 -3 -14 2 -21 7 -8 5 -12 -5 -12 -8 0 -13 3
-10 5 3 3 -3 15 -12 26 -14 15 -14 18 -2 8 9 -6 20 -8 25 -4z m78 -17 c-2 -3
-12 3 -22 13 -16 17 -16 18 5 5 12 -7 20 -15 17 -18z m176 14 c-7 -8 -17 -15
-23 -15 -6 0 -2 7 9 15 25 19 30 19 14 0z m32 -8 c-7 -8 -10 -16 -7 -19 3 -2
-1 -5 -9 -5 -12 0 -11 5 2 23 9 12 19 20 21 18 2 -2 -1 -10 -7 -17z m90 8 c2
3 5 -2 5 -10 0 -19 0 -19 -23 7 -12 14 -13 18 -3 10 9 -6 18 -10 21 -7z m245
0 c0 -8 -3 -13 -5 -10 -3 3 -12 -1 -21 -7 -10 -8 -9 -4 3 10 23 26 23 26 23 7z
m63 12 c0 -2 -8 -11 -18 -20 -15 -14 -19 -15 -19 -2 0 8 4 12 8 9 4 -2 10 0
14 6 6 10 15 14 15 7z m46 -16 c-13 -14 -14 -20 -5 -23 9 -3 8 -6 -3 -10 -10
-4 -15 -2 -14 7 2 14 25 45 34 45 3 0 -3 -9 -12 -19z m69 -19 c-3 -3 3 -15 12
-26 14 -15 14 -18 2 -8 -9 6 -18 9 -22 6 -3 -3 -4 2 -2 13 1 10 -5 27 -14 38
-16 20 -16 20 7 1 12 -11 20 -21 17 -24z m57 23 c2 3 5 -2 5 -10 0 -19 0 -19
-23 7 -12 14 -13 18 -3 10 9 -6 18 -10 21 -7z m153 -5 c10 -11 16 -20 13 -20
-3 0 -13 9 -23 20 -10 11 -16 20 -13 20 3 0 13 -9 23 -20z m92 5 c0 -8 -3 -13
-5 -10 -3 3 -12 -1 -21 -7 -10 -8 -9 -4 3 10 23 26 23 26 23 7z m-2326 -12
c13 -16 12 -17 -3 -4 -10 7 -18 15 -18 17 0 8 8 3 21 -13z m699 13 c0 -2 -8
-10 -17 -17 -16 -13 -17 -12 -4 4 13 16 21 21 21 13z m264 -12 c3 -8 2 -12 -4
-9 -6 3 -10 10 -10 16 0 14 7 11 14 -7z m299 -2 c15 -16 15 -19 2 -19 -8 0
-13 3 -10 5 3 3 0 11 -6 19 -17 20 -5 16 14 -5z m1163 6 c3 -4 -2 -5 -13 -3
-10 1 -27 -5 -38 -14 -20 -16 -20 -16 -2 6 17 20 39 24 53 11z m-1233 -11 c3
-7 -3 -13 -14 -13 -13 0 -15 3 -7 13 6 7 12 13 13 13 2 0 5 -6 8 -13z m796 0
c8 -10 7 -14 -2 -14 -8 0 -14 6 -14 14 0 7 1 13 2 13 2 0 8 -6 14 -13z m-1469
-3 c0 -8 -19 -13 -24 -6 -3 5 1 9 9 9 8 0 15 -2 15 -3z m1030 2 c0 -2 -7 -7
-16 -10 -8 -3 -12 -2 -9 4 6 10 25 14 25 6z m39 -30 c-3 -3 -11 5 -18 17 -13
21 -12 21 5 5 10 -10 16 -20 13 -22z m322 21 c-6 -8 -9 -17 -6 -20 3 -4 2 -5
-2 -2 -3 3 -11 0 -18 -5 -8 -7 -12 -5 -12 5 0 8 4 12 8 10 3 -3 12 2 19 10 7
8 15 15 17 15 3 0 0 -6 -6 -13z m158 -21 c-3 -3 -11 5 -18 17 -13 21 -12 21 5
5 10 -10 16 -20 13 -22z m-1502 9 c0 -8 -3 -13 -5 -10 -3 3 -15 -3 -26 -12
-15 -14 -18 -14 -8 -2 6 9 8 20 4 24 -4 5 -2 5 5 1 6 -3 14 -2 18 4 9 14 12
13 12 -5z m59 3 c5 4 6 3 2 -2 -4 -5 -2 -16 4 -25 10 -12 7 -12 -8 2 -11 9
-23 15 -26 12 -2 -3 -5 2 -5 10 0 10 4 12 12 5 7 -5 16 -6 21 -2z m421 -3 c0
-8 -3 -13 -5 -10 -3 3 -15 -3 -26 -12 -15 -14 -18 -14 -8 -2 6 9 8 20 4 24 -4
5 -2 5 5 1 6 -3 14 -2 18 4 9 14 12 13 12 -5z m279 0 c-1 -8 -5 -17 -8 -21 -5
-4 -4 16 1 34 3 9 9 -1 7 -13z m351 -3 c-10 -10 -15 -21 -12 -24 3 -3 -5 -13
-17 -24 l-23 -19 19 23 c11 12 15 22 11 22 -4 0 0 9 10 20 10 11 20 20 23 20
3 0 -2 -8 -11 -18z m170 3 c0 -8 -3 -13 -5 -10 -3 3 -15 -3 -26 -12 -15 -14
-18 -14 -8 -2 6 9 8 20 4 24 -4 5 -2 5 5 1 6 -3 14 -2 18 4 9 14 12 13 12 -5z
m480 0 c0 -8 -3 -13 -5 -10 -3 3 -15 -3 -26 -12 -15 -14 -18 -14 -8 -2 6 9 8
20 4 24 -4 5 -2 5 5 1 6 -3 14 -2 18 4 9 14 12 13 12 -5z m79 0 c-1 -8 -5 -17
-8 -21 -5 -4 -4 16 1 34 3 9 9 -1 7 -13z m-845 -12 c12 -16 12 -17 -2 -6 -9 7
-20 9 -24 5 -5 -4 -5 -1 -1 6 9 16 11 15 27 -5z m-1491 3 c0 -2 -8 -10 -17
-17 -16 -13 -17 -12 -4 4 13 16 21 21 21 13z m797 -11 c0 -8 -10 -23 -21 -32
-21 -18 -21 -18 -2 5 11 12 16 22 12 22 -4 0 -4 5 -1 10 9 14 12 13 12 -5z
m1280 0 c0 -8 -10 -23 -21 -32 -21 -18 -21 -18 -2 5 11 12 16 22 12 22 -4 0
-4 5 -1 10 9 14 12 13 12 -5z m-1642 -13 c-3 -3 -11 0 -18 7 -9 10 -8 11 6 5
10 -3 15 -9 12 -12z m170 8 c-3 -5 -12 -10 -18 -10 -7 0 -6 4 3 10 19 12 23
12 15 0z m45 5 c0 -1 -10 -10 -22 -21 -14 -12 -18 -13 -10 -3 6 9 10 18 7 21
-3 2 2 5 10 5 8 0 15 -1 15 -2z m225 -3 c-3 -3 0 -11 6 -19 17 -20 5 -16 -14
5 -15 16 -15 19 -2 19 8 0 13 -3 10 -5z m40 -10 c-3 -3 -11 0 -18 7 -9 10 -8
11 6 5 10 -3 15 -9 12 -12z m295 13 c0 -1 -10 -10 -22 -21 -14 -12 -18 -13
-10 -3 6 9 10 18 7 21 -3 2 2 5 10 5 8 0 15 -1 15 -2z m80 1 c0 -2 -8 -10 -17
-17 -16 -13 -17 -12 -4 4 13 16 21 21 21 13z m275 -5 c-9 -8 -36 -10 -30 -2 2
4 11 8 20 8 8 0 13 -3 10 -6z m75 5 c0 -2 -7 -7 -16 -10 -8 -3 -12 -2 -9 4 6
10 25 14 25 6z m35 -4 c-3 -3 0 -11 7 -19 6 -7 9 -15 7 -17 -2 -2 -12 6 -21
18 -13 18 -14 23 -2 23 8 0 12 -3 9 -5z m40 -10 c-3 -3 -11 0 -18 7 -9 10 -8
11 6 5 10 -3 15 -9 12 -12z m330 9 c-9 -8 -36 -10 -30 -2 2 4 11 8 20 8 8 0
13 -3 10 -6z m75 5 c0 -2 -7 -7 -16 -10 -8 -3 -12 -2 -9 4 6 10 25 14 25 6z
m35 -4 c-3 -3 0 -11 6 -19 17 -20 5 -16 -14 5 -15 16 -15 19 -2 19 8 0 13 -3
10 -5z m40 -10 c-3 -3 -11 0 -18 7 -9 10 -8 11 6 5 10 -3 15 -9 12 -12z
m-2255 4 c0 -2 -8 -10 -17 -17 -16 -13 -17 -12 -4 4 13 16 21 21 21 13z m556
-15 c0 -11 -5 -17 -13 -14 -10 4 -11 9 -2 19 15 18 15 18 15 -5z m50 -3 c12
-14 13 -18 3 -10 -9 6 -18 10 -21 7 -2 -3 -5 2 -5 10 0 19 0 19 23 -7z m431 0
c0 -13 -1 -17 -4 -10 -3 6 -10 9 -16 5 -7 -4 -6 1 2 10 17 21 17 21 18 -5z
m152 6 c-7 -9 -14 -23 -15 -31 -2 -8 -5 -18 -8 -21 -4 -3 -5 4 -3 15 3 20 24
53 34 53 3 0 -1 -7 -8 -16z m306 -22 c-3 -3 3 -15 12 -26 18 -21 18 -21 -5 -2
-12 11 -20 21 -17 24 3 3 -3 15 -12 26 -18 21 -18 21 5 2 12 -11 20 -21 17
-24z m342 23 c0 -8 -3 -13 -5 -10 -3 3 -12 -1 -21 -7 -10 -8 -9 -4 3 10 23 26
23 26 23 7z m140 -30 c0 -8 -4 -12 -9 -9 -5 4 -7 9 -4 12 3 3 -2 15 -11 26
-18 21 -18 21 3 3 11 -9 21 -24 21 -32z m340 32 c0 -8 -6 -14 -14 -14 -9 0
-10 4 -2 14 6 7 12 13 14 13 1 0 2 -6 2 -13z m-1406 -14 c13 -16 12 -17 -3 -4
-10 7 -18 15 -18 17 0 8 8 3 21 -13z m215 10 c-2 -3 -6 -3 -9 -1 -3 2 -15 -6
-28 -17 l-24 -20 18 21 c9 11 24 21 32 21 8 0 13 -2 11 -4z m164 3 c0 -2 -8
-10 -17 -17 -16 -13 -17 -12 -4 4 13 16 21 21 21 13z m283 -14 c15 -16 15 -19
2 -19 -8 0 -13 3 -10 5 3 3 0 11 -6 19 -17 20 -5 16 14 -5z m138 1 c13 -16 12
-17 -3 -4 -17 13 -22 21 -14 21 2 0 10 -8 17 -17z m320 -6 c-10 -9 -11 -8 -5
6 3 10 9 15 12 12 3 -3 0 -11 -7 -18z m160 6 c13 -16 12 -17 -3 -4 -17 13 -22
21 -14 21 2 0 10 -8 17 -17z m-2171 3 c0 -2 -8 -10 -17 -17 -16 -13 -17 -12
-4 4 13 16 21 21 21 13z m635 -6 c-3 -5 -12 -10 -18 -10 -7 0 -6 4 3 10 19 12
23 12 15 0z m565 6 c0 -2 -8 -10 -17 -17 -16 -13 -17 -12 -4 4 13 16 21 21 21
13z m241 -13 c13 -16 12 -17 -3 -4 -17 13 -22 21 -14 21 2 0 10 -8 17 -17z
m480 0 c13 -16 12 -17 -3 -4 -17 13 -22 21 -14 21 2 0 10 -8 17 -17z m-1410
-10 c13 -16 12 -17 -3 -4 -10 7 -18 15 -18 17 0 8 8 3 21 -13z m501 -8 c2 3 5
-2 5 -10 0 -19 1 -20 -28 12 -17 20 -18 23 -3 10 11 -9 23 -15 26 -12z m269
12 c-6 -8 -8 -16 -5 -20 3 -3 -2 -4 -13 -2 -10 1 -27 -5 -38 -14 -20 -16 -20
-16 -1 6 10 13 22 20 26 18 4 -3 13 2 20 10 7 8 15 15 17 15 3 0 0 -6 -6 -13z
m245 1 c3 -4 -1 -5 -10 -4 -8 1 -18 5 -22 8 -3 4 1 5 10 4 8 -1 18 -5 22 -8z
m232 -8 c-7 -10 -14 -17 -17 -15 -4 4 18 35 25 35 2 0 -1 -9 -8 -20z m529 3
c5 3 9 -3 9 -14 0 -10 -1 -19 -1 -19 -1 0 -12 12 -26 27 -13 15 -16 22 -7 14
9 -7 21 -10 25 -8z m73 13 c0 -2 -7 -7 -16 -10 -8 -3 -12 -2 -9 4 6 10 25 14
25 6z m-2344 -21 c-1 -8 -5 -17 -8 -21 -5 -4 -4 16 1 34 3 9 9 -1 7 -13z m920
-11 c1 -9 0 -13 -4 -10 -3 4 -7 14 -8 22 -1 9 0 13 4 10 3 -4 7 -14 8 -22z
m161 11 c0 -8 -3 -13 -5 -10 -3 3 -15 -3 -26 -12 -15 -13 -14 -10 3 10 29 32
28 31 28 12z m123 11 c0 -2 -8 -10 -17 -17 -16 -13 -17 -12 -4 4 13 16 21 21
21 13z m674 -26 c-6 -6 -10 -3 -10 10 0 13 4 16 10 10 7 -7 7 -13 0 -20z m322
4 c1 -9 0 -13 -4 -10 -3 4 -7 14 -8 22 -1 9 0 13 4 10 3 -4 7 -14 8 -22z
m-1605 -1 c13 -16 12 -17 -3 -4 -10 7 -18 15 -18 17 0 8 8 3 21 -13z m264 9
c-7 -7 -85 -10 -81 -3 2 3 23 6 45 7 23 1 39 -1 36 -4z m822 -9 c0 -10 -4 -10
-16 -1 -9 7 -18 13 -20 15 -2 1 5 1 16 0 11 0 20 -7 20 -14z m93 13 c0 -2 -8
-10 -17 -17 -16 -13 -17 -12 -4 4 13 16 21 21 21 13z m46 -36 c-1 -21 -4 -42
-7 -44 -3 -3 -4 11 -3 32 2 47 3 52 8 52 2 0 3 -18 2 -40z m321 33 c-4 -3 -1
-13 6 -22 11 -14 10 -14 -5 -2 -21 15 -23 31 -6 31 6 0 8 -3 5 -7z m219 -5 c4
-7 4 -10 -1 -6 -4 4 -15 2 -24 -5 -14 -11 -14 -10 -2 6 16 20 18 21 27 5z
m-1858 -28 c-7 -10 -14 -17 -17 -15 -4 4 18 35 25 35 2 0 -1 -9 -8 -20z m94
-4 c3 3 8 1 12 -4 11 -18 -25 -8 -41 12 -18 21 -18 21 3 3 11 -9 23 -14 26
-11z m411 -1 c11 2 16 1 13 -3 -14 -13 -36 -9 -53 11 -18 22 -18 22 2 6 11 -9
28 -15 38 -14z m456 -9 c-3 -3 -11 5 -18 17 -13 21 -12 21 5 5 10 -10 16 -20
13 -22z m79 17 c-6 -7 -12 -13 -13 -13 -2 0 -5 6 -8 13 -3 7 3 13 14 13 13 0
15 -3 7 -13z m42 2 c-5 -7 -9 -14 -7 -16 1 -2 0 -3 -2 -2 -2 2 -11 -3 -20 -9
-12 -10 -12 -7 2 8 9 11 15 23 12 26 -3 2 2 5 10 5 10 0 12 -4 5 -12z m50 10
c0 -1 -10 -10 -22 -21 -14 -12 -18 -13 -10 -3 6 9 10 18 7 21 -3 2 2 5 10 5 8
0 15 -1 15 -2z m147 -13 c-21 -23 -52 -25 -69 -4 -11 15 -11 15 2 5 18 -14 45
-12 62 5 19 19 23 14 5 -6z m118 -2 c-10 -11 -20 -18 -23 -15 -3 3 -15 -3 -26
-12 -21 -18 -21 -18 -2 4 10 13 22 20 26 18 4 -3 13 2 20 10 7 8 15 15 18 15
3 0 -3 -9 -13 -20z m85 6 c-7 -7 -13 -7 -20 0 -6 6 -3 10 10 10 13 0 16 -4 10
-10z m50 9 c0 -1 -10 -10 -22 -21 -14 -12 -18 -13 -10 -3 6 9 10 18 7 21 -3 2
2 5 10 5 8 0 15 -1 15 -2z m253 -20 c9 2 17 -1 17 -5 0 -16 -41 -6 -58 15 -17
19 -16 20 3 4 11 -9 28 -15 38 -14z m-2326 2 c0 -8 -6 -14 -14 -14 -9 0 -10 4
-2 14 6 7 12 13 14 13 1 0 2 -6 2 -13z m63 10 c0 -2 -8 -11 -18 -20 -15 -14
-19 -15 -19 -2 0 8 4 12 8 9 4 -2 10 0 14 6 6 10 15 14 15 7z m400 -1 c0 -2
-8 -10 -17 -17 -16 -13 -17 -12 -4 4 13 16 21 21 21 13z m410 -11 c-7 -8 -17
-15 -23 -15 -6 0 -2 7 9 15 25 19 30 19 14 0z m247 0 c0 -8 -3 -13 -5 -10 -3
3 -12 -1 -21 -7 -10 -8 -9 -4 3 10 23 26 23 26 23 7z m49 -7 c12 -14 13 -18 3
-10 -9 6 -18 10 -21 7 -2 -3 -5 2 -5 10 0 19 0 19 23 -7z m110 3 c0 -11 -5
-17 -13 -14 -10 4 -11 9 -2 19 15 18 15 18 15 -5z m859 -19 c-3 -3 3 -15 12
-26 18 -21 18 -21 -5 -2 -12 11 -20 21 -17 24 3 3 -3 15 -12 26 -18 21 -18 21
5 2 12 -11 20 -21 17 -24z m262 25 c0 -8 -6 -14 -14 -14 -9 0 -10 4 -2 14 6 7
12 13 14 13 1 0 2 -6 2 -13z m-846 -14 c13 -16 12 -17 -3 -4 -17 13 -22 21
-14 21 2 0 10 -8 17 -17z m148 14 c-2 -1 -13 -9 -24 -17 -19 -14 -19 -14 -6 3
7 9 18 17 24 17 6 0 8 -1 6 -3z m34 -15 c15 -16 15 -19 2 -19 -8 0 -13 3 -10
5 3 3 0 11 -6 19 -17 20 -5 16 14 -5z m246 15 c-2 -1 -13 -9 -24 -17 -19 -14
-19 -14 -6 3 7 9 18 17 24 17 6 0 8 -1 6 -3z m-1079 -11 c0 -2 -8 -10 -17 -17
-16 -13 -17 -12 -4 4 13 16 21 21 21 13z m-830 -10 c0 -2 -8 -10 -17 -17 -16
-13 -17 -12 -4 4 13 16 21 21 21 13z m1145 -4 c-3 -3 3 -15 12 -26 14 -15 14
-18 2 -8 -9 6 -20 8 -25 4 -5 -4 -6 -3 -2 2 4 5 3 14 -2 21 -7 8 -5 12 5 12 8
0 13 -3 10 -5z m57 -16 c3 3 8 1 12 -4 11 -18 -25 -8 -41 12 -18 21 -18 21 3
3 11 -9 23 -14 26 -11z m832 16 c3 -5 -1 -9 -9 -9 -8 0 -12 4 -9 9 3 4 7 8 9
8 2 0 6 -4 9 -8z m-2104 -6 c0 -2 -8 -10 -17 -17 -16 -13 -17 -12 -4 4 13 16
21 21 21 13z m1116 -5 c-4 -5 -1 -11 6 -13 8 -3 6 -6 -4 -10 -11 -5 -15 -2
-13 10 5 23 4 22 11 22 3 0 3 -4 0 -9z m40 -17 c1 -9 0 -13 -4 -10 -3 4 -7 14
-8 22 -1 9 0 13 4 10 3 -4 7 -14 8 -22z m351 8 c-10 -10 -15 -21 -12 -24 3 -3
-5 -13 -17 -24 l-23 -19 19 23 c11 12 15 22 11 22 -4 0 0 9 10 20 10 11 20 20
23 20 3 0 -2 -8 -11 -18z m130 3 c0 -8 -4 -12 -9 -9 -5 3 -6 10 -3 15 9 13 12
11 12 -6z m159 0 c-1 -8 -5 -17 -8 -21 -5 -4 -4 16 1 34 3 9 9 -1 7 -13z m121
0 c0 -8 -4 -12 -9 -9 -5 3 -6 10 -3 15 9 13 12 11 12 -6z m123 11 c0 -2 -6 -9
-14 -15 -11 -9 -16 -9 -22 0 -4 7 -3 9 4 5 6 -3 13 -2 17 4 6 10 15 14 15 6z
m-1460 -16 c0 -5 -4 -10 -10 -10 -5 0 -10 5 -10 10 0 6 5 10 10 10 6 0 10 -4
10 -10z m1014 -6 c3 -8 2 -12 -4 -9 -6 3 -10 10 -10 16 0 14 7 11 14 -7z m452
-12 c-17 -16 -18 -16 -5 5 7 12 15 20 18 17 3 -2 -3 -12 -13 -22z m-1109 3 c0
-8 -10 -23 -21 -32 -21 -18 -21 -18 -2 5 11 12 16 22 12 22 -4 0 -4 5 -1 10 9
14 12 13 12 -5z m378 6 c3 -5 2 -12 -3 -15 -5 -3 -9 1 -9 9 0 17 3 19 12 6z
m902 -6 c0 -8 -10 -23 -21 -32 -21 -18 -21 -18 -2 5 11 12 16 22 12 22 -4 0
-4 5 -1 10 9 14 12 13 12 -5z m158 6 c3 -5 2 -12 -3 -15 -5 -3 -9 1 -9 9 0 17
3 19 12 6z m-2350 -10 c-9 -8 -36 -10 -30 -2 2 4 11 8 20 8 8 0 13 -3 10 -6z
m35 1 c0 -5 -10 -17 -22 -28 -23 -19 -23 -19 -5 2 9 11 14 24 10 27 -3 4 -1 7
5 7 7 0 12 -4 12 -8z m850 4 c0 -2 -8 -10 -17 -17 -16 -13 -17 -12 -4 4 13 16
21 21 21 13z m75 -5 c-9 -8 -36 -10 -30 -2 2 4 11 8 20 8 8 0 13 -3 10 -6z
m559 1 c2 -4 -4 -8 -14 -8 -10 0 -16 4 -14 8 3 4 9 8 14 8 5 0 11 -4 14 -8z
m274 -12 c-7 -10 -14 -17 -17 -15 -4 4 18 35 25 35 2 0 -1 -9 -8 -20z m157 12
c-3 -3 0 -11 6 -19 17 -20 5 -16 -14 5 -15 16 -15 19 -2 19 8 0 13 -3 10 -5z
m40 -10 c-3 -3 -11 0 -18 7 -9 10 -8 11 6 5 10 -3 15 -9 12 -12z m124 -16 c-3
-3 -11 5 -18 17 -13 21 -12 21 5 5 10 -10 16 -20 13 -22z m126 25 c-9 -8 -36
-10 -30 -2 2 4 11 8 20 8 8 0 13 -3 10 -6z m81 -3 c3 -4 -1 -5 -10 -4 -8 1
-18 5 -22 8 -3 4 1 5 10 4 8 -1 18 -5 22 -8z m-1266 -2 c0 -2 -8 -10 -17 -17
-16 -13 -17 -12 -4 4 13 16 21 21 21 13z m136 -8 c5 4 6 3 2 -2 -4 -5 -3 -14
2 -21 7 -8 5 -12 -5 -12 -8 0 -13 3 -10 5 3 3 -3 15 -12 26 -14 15 -14 18 -2
8 9 -6 20 -8 25 -4z m78 -17 c-2 -3 -12 3 -22 13 -16 17 -16 18 5 5 12 -7 20
-15 17 -18z m298 14 c2 3 5 -2 5 -10 0 -19 0 -19 -23 7 -12 14 -13 18 -3 10 9
-6 18 -10 21 -7z m145 -30 c0 -8 -4 -12 -9 -9 -5 4 -7 9 -4 12 3 3 -2 15 -11
26 -18 21 -18 21 3 3 11 -9 21 -24 21 -32z m149 23 c12 -14 13 -18 3 -10 -9 6
-18 10 -21 7 -2 -3 -5 2 -5 10 0 19 0 19 23 -7z m191 7 c0 -8 -3 -13 -5 -10
-3 3 -12 -1 -21 -7 -10 -8 -9 -4 3 10 23 26 23 26 23 7z m-1540 -19 c18 -21
18 -21 -3 -3 -11 9 -23 14 -26 11 -3 -3 -8 -1 -12 4 -11 18 25 8 41 -12z m69
-4 c-17 -16 -18 -16 -5 5 7 12 15 20 18 17 3 -2 -3 -12 -13 -22z m425 11 c13
-17 13 -17 -6 -3 -11 8 -22 16 -24 17 -2 2 0 3 6 3 6 0 17 -8 24 -17z m70 4
c-6 -8 -9 -16 -6 -19 3 -2 -2 -5 -10 -5 -13 0 -13 3 2 19 19 21 31 25 14 5z
m72 -5 c15 -16 15 -19 2 -19 -8 0 -13 3 -10 5 3 3 0 11 -6 19 -17 20 -5 16 14
-5z m80 0 c15 -16 15 -19 2 -19 -8 0 -13 3 -10 5 3 3 0 11 -6 19 -17 20 -5 16
14 -5z m698 1 c13 -17 13 -17 -6 -3 -11 8 -22 16 -24 17 -2 2 0 3 6 3 6 0 17
-8 24 -17z m360 0 c13 -17 13 -17 -6 -3 -11 8 -22 16 -24 17 -2 2 0 3 6 3 6 0
17 -8 24 -17z m-610 -10 c13 -16 12 -17 -3 -4 -17 13 -22 21 -14 21 2 0 10 -8
17 -17z m-1244 -8 c0 -8 -4 -12 -9 -9 -5 3 -6 10 -3 15 9 13 12 11 12 -6z
m687 7 c2 -4 -4 -8 -14 -8 -10 0 -16 4 -14 8 3 4 9 8 14 8 5 0 11 -4 14 -8z
m449 -17 c4 3 5 2 2 -2 -3 -4 -13 -8 -21 -9 -9 -1 -13 0 -10 3 3 4 0 13 -6 22
-10 12 -7 12 8 -2 11 -9 24 -15 27 -12z m332 -22 c-18 -17 -18 -17 -6 0 11 14
11 20 0 35 -12 16 -12 16 6 0 19 -18 19 -18 0 -35z m96 34 c-6 -8 -9 -17 -6
-20 3 -4 2 -5 -2 -2 -3 3 -11 1 -17 -5 -8 -6 -12 -3 -12 9 0 10 6 17 12 14 7
-2 15 0 19 6 3 6 9 11 12 11 3 0 0 -6 -6 -13z m-1506 -6 c3 -5 2 -12 -3 -15
-5 -3 -9 1 -9 9 0 17 3 19 12 6z m125 5 c0 -2 -8 -10 -17 -17 -16 -13 -17 -12
-4 4 13 16 21 21 21 13z m1036 -22 c1 -9 0 -13 -4 -10 -3 4 -7 14 -8 22 -1 9
0 13 4 10 3 -4 7 -14 8 -22z m401 11 c0 -8 -3 -13 -5 -10 -3 3 -15 -3 -26 -12
-15 -14 -18 -14 -8 -2 6 9 8 20 4 24 -4 5 -2 5 5 1 6 -3 14 -2 18 4 9 14 12
13 12 -5z m79 0 c-1 -8 -5 -17 -8 -21 -5 -4 -4 16 1 34 3 9 9 -1 7 -13z
m-2056 -4 c0 -6 -4 -12 -8 -15 -5 -3 -9 1 -9 9 0 8 4 15 9 15 4 0 8 -4 8 -9z
m880 0 c0 -3 -23 -6 -50 -7 -28 0 -46 2 -41 5 12 8 91 10 91 2z m557 2 c-4 -3
-1 -13 6 -22 11 -14 10 -14 -5 -2 -21 15 -23 31 -6 31 6 0 8 -3 5 -7z m800
-10 c0 -8 -5 -9 -11 -4 -6 4 -23 7 -38 6 -16 -1 -28 1 -28 5 0 4 17 7 38 6 24
0 39 -6 39 -13z m-1797 3 c0 -2 -8 -10 -17 -17 -16 -13 -17 -12 -4 4 13 16 21
21 21 13z m1280 0 c0 -2 -8 -10 -17 -17 -16 -13 -17 -12 -4 4 13 16 21 21 21
13z m-1750 -11 c0 -1 -10 -10 -22 -21 -14 -12 -18 -13 -10 -3 6 9 10 18 7 21
-3 2 2 5 10 5 8 0 15 -1 15 -2z m425 -13 c-3 -3 -11 0 -18 7 -9 10 -8 11 6 5
10 -3 15 -9 12 -12z m615 13 c0 -1 -10 -10 -22 -21 -14 -12 -18 -13 -10 -3 6
9 10 18 7 21 -3 2 2 5 10 5 8 0 15 -1 15 -2z m30 -10 c-5 -7 -9 -14 -7 -16 1
-2 0 -3 -2 -2 -2 2 -11 -3 -20 -9 -12 -10 -12 -7 2 8 9 11 15 23 12 26 -3 2 2
5 10 5 10 0 12 -4 5 -12z m50 10 c0 -1 -10 -10 -22 -21 -14 -12 -18 -13 -10
-3 6 9 10 18 7 21 -3 2 2 5 10 5 8 0 15 -1 15 -2z m488 -21 c9 -2 23 3 32 9
13 10 13 10 2 -5 -17 -22 -48 -19 -70 6 -16 20 -16 20 2 6 10 -8 25 -15 34
-16z m217 6 c10 -11 16 -20 13 -20 -3 0 -13 9 -23 20 -10 11 -16 20 -13 20 3
0 13 -9 23 -20z m-1338 -5 c0 -8 -3 -13 -5 -10 -3 3 -12 -1 -21 -7 -10 -8 -9
-4 3 10 23 26 23 26 23 7z m72 12 c-2 -1 -13 -10 -25 -20 -17 -14 -21 -14 -21
-2 0 8 4 12 8 9 4 -2 10 0 14 6 3 5 11 10 17 10 6 0 9 -1 7 -3z m321 -12 c-7
-8 -17 -15 -23 -15 -6 0 -2 7 9 15 25 19 30 19 14 0z m78 -2 c-8 -10 -14 -28
-13 -40 1 -12 -2 -20 -7 -17 -16 10 10 74 30 74 3 0 -2 -8 -10 -17z m239 -1
c-10 -10 -15 -21 -12 -24 3 -3 -5 -13 -17 -24 l-23 -19 19 23 c11 12 15 22 11
22 -4 0 0 9 10 20 10 11 20 20 23 20 3 0 -2 -8 -11 -18z m228 -20 c-3 -3 3
-15 12 -26 18 -21 18 -21 -5 -2 -12 11 -20 21 -17 24 3 3 -3 15 -12 26 -18 21
-18 21 5 2 12 -11 20 -21 17 -24z m342 23 c0 -8 -4 -12 -8 -9 -4 2 -10 0 -14
-6 -3 -5 -11 -10 -17 -10 -7 0 26 35 38 40 0 0 1 -7 1 -15z m113 0 c-7 -8 -17
-15 -23 -15 -6 0 -2 7 9 15 25 19 30 19 14 0z m127 2 c0 -8 -6 -14 -14 -14 -9
0 -10 4 -2 14 6 7 12 13 14 13 1 0 2 -6 2 -13z m121 -12 c-3 -3 -9 2 -12 12
-6 14 -5 15 5 6 7 -7 10 -15 7 -18z m99 -20 c0 -8 -4 -12 -9 -9 -5 4 -7 9 -4
12 3 3 -2 15 -11 26 -18 21 -18 21 3 3 11 -9 21 -24 21 -32z m-1826 18 c13
-16 12 -17 -3 -4 -10 7 -18 15 -18 17 0 8 8 3 21 -13z m1270 4 c-6 -8 -9 -16
-6 -19 3 -2 -2 -5 -10 -5 -13 0 -13 3 2 19 19 21 31 25 14 5z m240 0 c-6 -8
-9 -16 -6 -19 3 -2 -2 -5 -10 -5 -13 0 -13 3 2 19 19 21 31 25 14 5z m185 6
c-2 -3 -6 -3 -9 -1 -3 2 -15 -6 -28 -17 l-24 -20 18 21 c9 11 24 21 32 21 8 0
13 -2 11 -4z m-1106 -7 c0 -2 -8 -10 -17 -17 -16 -13 -17 -12 -4 4 13 16 21
21 21 13z m-960 -20 c-7 -7 -13 -7 -20 0 -6 6 -3 10 10 10 13 0 16 -4 10 -10z
m521 1 c-6 -8 -9 -17 -6 -20 3 -4 2 -5 -2 -2 -3 3 -11 0 -18 -5 -8 -7 -12 -5
-12 5 0 8 4 12 8 10 3 -3 12 2 19 10 7 8 15 15 17 15 3 0 0 -6 -6 -13z m44 3
c3 -6 -1 -7 -9 -4 -18 7 -21 14 -7 14 6 0 13 -4 16 -10z m320 1 c-9 -8 -36
-10 -30 -2 2 4 11 8 20 8 8 0 13 -3 10 -6z m240 -1 c-3 -5 -12 -10 -18 -10 -7
0 -6 4 3 10 19 12 23 12 15 0z m239 2 c3 -5 -1 -9 -9 -9 -8 0 -12 4 -9 9 3 4
7 8 9 8 2 0 6 -4 9 -8z m316 4 c0 -2 -7 -7 -16 -10 -8 -3 -12 -2 -9 4 6 10 25
14 25 6z m240 0 c0 -2 -7 -7 -16 -10 -8 -3 -12 -2 -9 4 6 10 25 14 25 6z m52
-15 c3 9 6 9 10 -2 9 -23 -19 -19 -39 5 -18 21 -18 21 3 3 16 -13 23 -15 26
-6z m194 7 c3 -4 -1 -5 -10 -4 -8 1 -18 5 -22 8 -3 4 1 5 10 4 8 -1 18 -5 22
-8z m-1709 -13 c0 -8 -3 -13 -5 -10 -3 3 -15 -3 -26 -12 -15 -14 -18 -14 -8
-2 6 9 8 20 4 24 -4 5 -2 5 5 1 6 -3 14 -2 18 4 9 14 12 13 12 -5z m513 0 c-6
-8 -8 -20 -4 -27 5 -10 4 -10 -6 -1 -11 10 -11 15 0 28 7 8 15 15 17 15 3 0 0
-7 -7 -15z m766 -5 c0 -12 -4 -16 -9 -11 -5 5 -6 14 -3 20 10 15 12 14 12 -9z
m80 -6 c1 -9 0 -13 -4 -10 -3 4 -7 14 -8 22 -1 9 0 13 4 10 3 -4 7 -14 8 -22z
m244 22 c0 -2 -8 -10 -17 -17 -16 -13 -17 -12 -4 4 13 16 21 21 21 13z m27
-14 c-10 -10 -15 -21 -12 -24 3 -2 -2 -5 -10 -5 -12 0 -10 6 7 24 25 27 39 32
15 5z m-2116 -9 c13 -16 12 -17 -3 -4 -10 7 -18 15 -18 17 0 8 8 3 21 -13z
m59 13 c0 -2 -8 -10 -17 -17 -16 -13 -17 -12 -4 4 13 16 21 21 21 13z m984
-12 c3 -8 2 -12 -4 -9 -6 3 -10 10 -10 16 0 14 7 11 14 -7z m77 -1 c13 -16 12
-17 -3 -4 -10 7 -18 15 -18 17 0 8 8 3 21 -13z m840 0 c13 -16 12 -17 -3 -4
-17 13 -22 21 -14 21 2 0 10 -8 17 -17z m175 -11 c-17 -16 -18 -16 -5 5 7 12
15 20 18 17 3 -2 -3 -12 -13 -22z m-629 3 c0 -8 -10 -23 -21 -32 -21 -18 -21
-18 -2 5 11 12 16 22 12 22 -4 0 -4 5 -1 10 9 14 12 13 12 -5z m-1505 -19 c3
3 8 1 12 -4 11 -18 -25 -8 -41 12 -18 21 -18 21 3 3 11 -9 23 -14 26 -11z
m383 16 c-3 -3 1 -12 7 -21 10 -12 7 -12 -8 2 -11 9 -24 14 -29 10 -4 -5 -5
-3 -2 3 3 6 13 11 22 11 8 0 13 -3 10 -5z m40 -10 c-3 -3 -11 0 -18 7 -9 10
-8 11 6 5 10 -3 15 -9 12 -12z m716 -8 c16 -1 34 5 40 12 6 8 16 14 22 14 6 0
0 -8 -13 -17 -35 -25 -76 -24 -97 1 -17 20 -17 20 1 6 10 -8 32 -15 47 -16z
m288 -8 c-3 -3 -11 5 -18 17 -13 21 -12 21 5 5 10 -10 16 -20 13 -22z m201 28
c0 -8 -19 -13 -24 -6 -3 5 1 9 9 9 8 0 15 -2 15 -3z m35 -2 c-3 -3 0 -11 6
-19 17 -20 5 -16 -14 5 -15 16 -15 19 -2 19 8 0 13 -3 10 -5z m51 -4 c3 -4 -1
-5 -10 -4 -8 1 -18 5 -22 8 -3 4 1 5 10 4 8 -1 18 -5 22 -8z m126 -12 c3 3 8
1 12 -4 11 -18 -25 -8 -41 12 -18 21 -18 21 3 3 11 -9 23 -14 26 -11z m-1355
-1 c0 -8 -4 -12 -8 -9 -4 2 -10 0 -14 -6 -3 -5 -11 -10 -17 -10 -7 0 26 35 38
40 0 0 1 -7 1 -15z m63 12 c0 -2 -8 -11 -18 -20 -15 -14 -19 -15 -19 -2 0 8 4
12 8 9 4 -2 10 0 14 6 6 10 15 14 15 7z m386 -19 c12 -14 13 -18 3 -10 -9 6
-18 10 -21 7 -2 -3 -5 2 -5 10 0 19 0 19 23 -7z m106 7 c2 3 5 -2 5 -10 0 -19
0 -19 -23 7 -12 14 -13 18 -3 10 9 -6 18 -10 21 -7z m720 0 c2 3 5 -2 5 -10 0
-19 0 -19 -23 7 -12 14 -13 18 -3 10 9 -6 18 -10 21 -7z m156 -2 c-9 -10 -14
-26 -13 -36 2 -9 0 -15 -5 -12 -15 9 8 65 28 65 3 0 -2 -8 -10 -17z m108 5 c5
4 6 3 2 -2 -4 -5 -3 -14 2 -21 7 -8 5 -12 -5 -12 -8 0 -13 3 -10 5 3 3 -3 15
-12 26 -14 15 -14 18 -2 8 9 -6 20 -8 25 -4z m141 -3 c0 -8 -3 -13 -5 -10 -3
3 -12 -1 -21 -7 -10 -8 -9 -4 3 10 23 26 23 26 23 7z m-2097 -20 c14 -19 14
-19 -2 -6 -10 7 -18 18 -18 24 0 6 1 8 3 6 1 -2 9 -13 17 -24z m797 1 c18 -21
18 -21 -3 -3 -11 9 -23 14 -26 11 -3 -3 -8 -1 -12 4 -11 18 25 8 41 -12z m734
7 c13 -17 13 -17 -6 -3 -11 8 -22 16 -24 17 -2 2 0 3 6 3 6 0 17 -8 24 -17z
m382 -1 c15 -16 15 -19 2 -19 -8 0 -13 3 -10 5 3 3 0 11 -6 19 -17 20 -5 16
14 -5z m-1423 -6 c0 -2 -8 -10 -17 -17 -16 -13 -17 -12 -4 4 13 16 21 21 21
13z m35 -6 c3 -6 -1 -7 -9 -4 -18 7 -21 14 -7 14 6 0 13 -4 16 -10z m392 -12
c1 -10 -3 -18 -9 -18 -6 0 -8 3 -5 7 4 3 2 11 -3 18 -7 8 -6 12 3 12 7 0 14
-9 14 -19z m34 5 c13 -16 12 -17 -3 -4 -10 7 -18 15 -18 17 0 8 8 3 21 -13z
m720 0 c13 -16 12 -17 -3 -4 -17 13 -22 21 -14 21 2 0 10 -8 17 -17z m213 9
c2 -4 -4 -8 -14 -8 -10 0 -16 4 -14 8 3 4 9 8 14 8 5 0 11 -4 14 -8z m157 -5
c-6 -8 -9 -16 -6 -18 2 -3 -6 -5 -20 -5 -13 0 -21 4 -19 8 3 5 9 6 14 3 4 -3
13 2 20 10 7 8 15 15 17 15 3 0 0 -6 -6 -13z m-2105 -23 c1 -9 0 -13 -4 -10
-3 4 -7 14 -8 22 -1 9 0 13 4 10 3 -4 7 -14 8 -22z m361 13 c0 -8 -6 -14 -14
-14 -9 0 -10 4 -2 14 6 7 12 13 14 13 1 0 2 -6 2 -13z m37 -17 c-6 -6 -10 -3
-10 10 0 13 4 16 10 10 7 -7 7 -13 0 -20z m83 8 c0 -13 -1 -17 -4 -10 -4 10
-10 9 -26 -5 -15 -12 -18 -13 -9 -2 6 9 8 20 4 24 -4 5 -2 5 5 1 6 -3 14 -2
18 4 9 14 11 13 12 -12z m377 -7 c-2 -3 -12 3 -22 13 -16 17 -16 18 5 5 12 -7
20 -15 17 -18z m62 3 c1 -9 0 -13 -4 -10 -3 4 -7 14 -8 22 -1 9 0 13 4 10 3
-4 7 -14 8 -22z m511 8 c-10 -10 -15 -21 -12 -24 3 -3 -5 -13 -17 -24 l-23
-19 19 23 c11 12 15 22 11 22 -4 0 0 9 10 20 10 11 20 20 23 20 3 0 -2 -8 -11
-18z m414 1 c13 -16 12 -17 -3 -4 -17 13 -22 21 -14 21 2 0 10 -8 17 -17z
m312 2 c-3 -9 -8 -14 -10 -11 -3 3 -2 9 2 15 9 16 15 13 8 -4z m-1602 -18
c-10 -9 -11 -8 -5 6 3 10 9 15 12 12 3 -3 0 -11 -7 -18z m480 0 c-10 -9 -11
-8 -5 6 3 10 9 15 12 12 3 -3 0 -11 -7 -18z m349 19 c0 -2 -7 -7 -16 -10 -8
-3 -12 -2 -9 4 6 10 25 14 25 6z m160 -6 c0 -5 -4 -10 -10 -10 -5 0 -10 5 -10
10 0 6 5 10 10 10 6 0 10 -4 10 -10z m116 -15 c1 -7 -8 -22 -19 -32 -22 -18
-22 -18 -6 2 9 11 15 28 14 38 -2 11 -1 16 3 13 3 -4 7 -13 8 -21z m165 -2
c13 -16 12 -17 -3 -4 -17 13 -22 21 -14 21 2 0 10 -8 17 -17z m360 0 c13 -16
12 -17 -3 -4 -17 13 -22 21 -14 21 2 0 10 -8 17 -17z m-2109 -17 c3 3 8 1 12
-4 11 -18 -25 -8 -41 12 -18 21 -18 21 3 3 11 -9 23 -14 26 -11z m503 4 c-10
-11 -20 -18 -23 -15 -3 3 -15 -3 -26 -12 -21 -18 -21 -18 -2 4 10 13 22 20 26
18 4 -3 13 2 20 10 7 8 15 15 18 15 3 0 -3 -9 -13 -20z m480 0 c-10 -11 -20
-18 -23 -15 -3 3 -15 -3 -26 -12 -21 -18 -21 -18 -2 4 10 13 22 20 26 18 4 -3
13 2 20 10 7 8 15 15 18 15 3 0 -3 -9 -13 -20z m85 6 c-7 -7 -13 -7 -20 0 -6
6 -3 10 10 10 13 0 16 -4 10 -10z m600 -1 c-10 -12 -10 -18 1 -32 12 -17 12
-17 -6 -1 -15 14 -16 20 -5 32 7 9 15 16 17 16 3 0 0 -7 -7 -15z m-1380 1 c0
-2 -8 -10 -17 -17 -16 -13 -17 -12 -4 4 13 16 21 21 21 13z m1137 -41 c0 -8
-4 -12 -9 -9 -5 4 -7 9 -4 12 3 3 -2 15 -11 26 -18 21 -18 21 3 3 11 -9 21
-24 21 -32z m87 24 c-10 -12 -18 -24 -17 -28 1 -3 0 -8 -2 -9 -2 -2 -3 3 -1
11 2 16 25 47 34 47 3 0 -3 -9 -14 -21z m222 -1 c12 -14 13 -18 3 -10 -9 6
-18 10 -21 7 -2 -3 -5 2 -5 10 0 19 0 19 23 -7z m171 -23 c0 -8 -4 -12 -9 -9
-5 4 -7 9 -4 12 3 3 -2 15 -11 26 -18 21 -18 21 3 3 11 -9 21 -24 21 -32z m93
30 c-7 -8 -17 -15 -23 -15 -6 0 -2 7 9 15 25 19 30 19 14 0z m37 -3 c-10 -10
-15 -21 -12 -24 3 -2 -2 -5 -10 -5 -12 0 -10 6 7 24 25 27 39 32 15 5z m54 1
c13 -16 12 -17 -3 -4 -17 13 -22 21 -14 21 2 0 10 -8 17 -17z m-2145 -24 c2
-35 -5 -33 -12 5 -2 14 -1 26 3 26 5 0 9 -14 9 -31z m114 27 c0 -2 -8 -10 -17
-17 -16 -13 -17 -12 -4 4 13 16 21 21 21 13z m251 -9 c-6 -8 -9 -16 -6 -19 3
-2 -2 -5 -10 -5 -13 0 -13 3 2 19 19 21 31 25 14 5z m96 -4 c0 -9 -4 -10 -14
-2 -7 6 -13 12 -13 14 0 1 6 2 13 2 8 0 14 -6 14 -14z m133 13 c0 -2 -8 -10
-17 -17 -16 -13 -17 -12 -4 4 13 16 21 21 21 13z m327 -20 c18 -21 18 -21 -3
-3 -11 9 -23 14 -26 11 -3 -3 -8 -1 -12 4 -11 18 25 8 41 -12z m174 7 c13 -17
13 -17 -6 -3 -11 8 -22 16 -24 17 -2 2 0 3 6 3 6 0 17 -8 24 -17z m59 13 c0
-2 -8 -10 -17 -17 -16 -13 -17 -12 -4 4 13 16 21 21 21 13z m701 -19 c-10 -9
-11 -8 -5 6 3 10 9 15 12 12 3 -3 0 -11 -7 -18z m266 0 c0 -8 -6 -14 -14 -14
-9 0 -10 4 -2 14 6 7 12 13 14 13 1 0 2 -6 2 -13z m-1717 -1 c0 -2 -7 -7 -16
-10 -8 -3 -12 -2 -9 4 6 10 25 14 25 6z m52 -21 c2 3 5 -2 5 -10 0 -10 -4 -12
-12 -5 -7 5 -16 6 -21 2 -5 -4 -6 -3 -2 2 4 5 2 16 -4 25 -10 12 -7 12 8 -2
11 -9 23 -15 26 -12z m1068 11 c-7 -7 -13 -7 -20 0 -6 6 -3 10 10 10 13 0 16
-4 10 -10z m486 2 c3 -4 -1 -5 -10 -4 -8 1 -18 5 -22 8 -3 4 1 5 10 4 8 -1 18
-5 22 -8z m159 2 c-3 -5 -14 -10 -23 -9 -14 0 -13 2 3 9 27 11 27 11 20 0z
m-2109 -26 c1 -9 0 -13 -4 -10 -3 4 -7 14 -8 22 -1 9 0 13 4 10 3 -4 7 -14 8
-22z m480 11 c-1 -8 -5 -17 -8 -21 -5 -4 -4 16 1 34 3 9 9 -1 7 -13z m360 -11
c1 -9 0 -13 -4 -10 -3 4 -7 14 -8 22 -1 9 0 13 4 10 3 -4 7 -14 8 -22z m120
11 c-1 -8 -5 -17 -8 -21 -5 -4 -4 16 1 34 3 9 9 -1 7 -13z m680 -11 c1 -9 0
-13 -4 -10 -3 4 -7 14 -8 22 -1 9 0 13 4 10 3 -4 7 -14 8 -22z m100 14 c5 4 6
3 2 -2 -4 -5 -2 -16 4 -25 10 -12 7 -12 -8 2 -11 9 -23 15 -26 12 -2 -3 -5 2
-5 10 0 10 4 12 12 5 7 -5 16 -6 21 -2z m-1216 -2 c0 -3 -4 -8 -10 -11 -5 -3
-10 -1 -10 4 0 6 5 11 10 11 6 0 10 -2 10 -4z m285 -5 c-3 -2 -16 -6 -28 -8
-15 -2 -18 0 -9 5 14 9 45 12 37 3z m195 1 c0 -5 -7 -9 -15 -9 -8 0 -12 4 -9
9 3 4 9 8 15 8 5 0 9 -4 9 -8z m364 -1 c-7 -8 -74 -9 -69 -1 2 3 19 6 39 6 19
0 33 -3 30 -5z m-1309 -19 c-3 -3 0 -11 6 -19 17 -20 5 -16 -14 5 -15 16 -15
19 -2 19 8 0 13 -3 10 -5z m1486 -5 c-6 -8 -7 -18 -3 -22 4 -5 1 -5 -6 -1 -10
6 -10 11 -1 22 6 8 14 14 16 14 3 0 0 -6 -6 -13z m49 8 c0 -1 -10 -10 -22 -21
-14 -12 -18 -13 -10 -3 6 9 10 18 7 21 -3 2 2 5 10 5 8 0 15 -1 15 -2z m195
-5 c-3 -5 -12 -10 -18 -10 -7 0 -6 4 3 10 19 12 23 12 15 0z m45 5 c0 -1 -10
-10 -22 -21 -14 -12 -18 -13 -10 -3 6 9 10 18 7 21 -3 2 2 5 10 5 8 0 15 -1
15 -2z m225 -3 c-3 -3 0 -11 6 -19 17 -20 5 -16 -14 5 -15 16 -15 19 -2 19 8
0 13 -3 10 -5z m40 -10 c-3 -3 -11 0 -18 7 -9 10 -8 11 6 5 10 -3 15 -9 12
-12z m-1818 -7 c0 -8 -4 -12 -9 -9 -5 3 -6 10 -3 15 9 13 12 11 12 -6z m720 0
c0 -8 -4 -12 -9 -9 -5 3 -6 10 -3 15 9 13 12 11 12 -6z m320 0 c0 -8 -4 -12
-9 -9 -5 3 -6 10 -3 15 9 13 12 11 12 -6z m402 2 c8 -10 7 -14 -2 -14 -8 0
-14 6 -14 14 0 7 1 13 2 13 2 0 8 -6 14 -13z m-1688 -14 c13 -16 12 -17 -3 -4
-10 7 -18 15 -18 17 0 8 8 3 21 -13z m1626 -7 c18 -21 18 -21 -3 -3 -11 9 -23
14 -26 11 -3 -3 -8 -1 -12 4 -11 18 25 8 41 -12z m202 21 c-2 -1 -13 -9 -24
-17 -19 -14 -19 -14 -6 3 7 9 18 17 24 17 6 0 8 -1 6 -3z m165 -6 c3 -4 -5 -7
-17 -6 -12 1 -31 -5 -42 -14 -19 -16 -20 -15 -3 4 17 21 54 30 62 16z m-2005
-45 c-3 -3 -11 5 -18 17 -13 21 -12 21 5 5 10 -10 16 -20 13 -22z m1722 21
c-6 -8 -9 -16 -6 -19 3 -3 -3 -11 -12 -19 -16 -13 -17 -12 -4 4 7 9 10 17 6
17 -4 0 -2 7 5 15 7 8 15 15 17 15 3 0 0 -6 -6 -13z m129 10 c0 -2 -10 -13
-23 -25 -18 -17 -24 -19 -24 -8 0 8 4 13 8 11 3 -3 12 2 19 10 12 14 20 19 20
12z m-1792 -32 c-3 -3 -9 2 -12 12 -6 14 -5 15 5 6 7 -7 10 -15 7 -18z m1556
-5 c-6 -6 -10 -3 -10 10 0 13 4 16 10 10 7 -7 7 -13 0 -20z m68 7 c-7 -8 -10
-16 -7 -19 3 -2 -1 -5 -9 -5 -12 0 -11 5 2 23 9 12 19 20 21 18 2 -2 -1 -10
-7 -17z m90 11 c-14 -14 -44 -20 -36 -7 3 5 9 7 14 4 5 -3 11 -1 15 5 3 5 9
10 13 10 3 0 1 -5 -6 -12z m-1732 -12 c0 -2 -8 -10 -17 -17 -16 -13 -17 -12
-4 4 13 16 21 21 21 13z m81 -13 c13 -16 12 -17 -3 -4 -17 13 -22 21 -14 21 2
0 10 -8 17 -17z m1714 -13 c-10 -11 -20 -18 -23 -15 -3 3 -15 -3 -26 -12 -21
-18 -21 -18 -2 4 10 13 22 20 26 18 4 -3 13 2 20 10 7 8 15 15 18 15 3 0 -3
-9 -13 -20z m97 -5 c3 3 13 -5 24 -17 19 -23 19 -23 -2 -5 -11 9 -23 15 -26
12 -3 -3 -13 5 -24 17 -19 23 -19 23 2 5 11 -9 23 -15 26 -12z m-1875 0 c0 -8
-3 -13 -5 -10 -3 3 -12 -1 -21 -7 -10 -8 -9 -4 3 10 23 26 23 26 23 7z m49 -7
c12 -14 13 -18 3 -10 -9 6 -18 10 -21 7 -2 -3 -5 2 -5 10 0 19 0 19 23 -7z
m1471 9 c0 -8 -6 -14 -14 -14 -9 0 -10 4 -2 14 6 7 12 13 14 13 1 0 2 -6 2
-13z m63 10 c0 -2 -8 -11 -18 -20 -15 -14 -19 -15 -19 -2 0 8 4 12 8 9 4 -2
10 0 14 6 6 10 15 14 15 7z m97 -10 c0 -8 -6 -14 -14 -14 -9 0 -10 4 -2 14 6
7 12 13 14 13 1 0 2 -6 2 -13z m154 -14 c13 -17 13 -17 -6 -3 -11 8 -22 16
-24 17 -2 2 0 3 6 3 6 0 17 -8 24 -17z m-1742 -17 c9 -11 9 -16 -1 -22 -7 -4
-10 -4 -6 1 4 4 3 14 -3 22 -6 7 -9 13 -6 13 2 0 10 -6 16 -14z m1489 -6 c-7
-10 -14 -17 -17 -15 -4 4 18 35 25 35 2 0 -1 -9 -8 -20z m91 5 c7 3 8 0 5 -9
-8 -20 -7 -20 -30 6 -14 17 -15 20 -2 9 9 -7 22 -10 27 -6z m-1613 -7 c5 4 6
3 2 -2 -4 -5 -2 -16 4 -25 10 -12 7 -12 -8 2 -11 9 -23 15 -26 12 -2 -3 -5 2
-5 10 0 10 4 12 12 5 7 -5 16 -6 21 -2z m1704 8 c0 -2 -8 -10 -17 -17 -16 -13
-17 -12 -4 4 13 16 21 21 21 13z m116 -22 c1 -9 0 -13 -4 -10 -3 4 -7 14 -8
22 -1 9 0 13 4 10 3 -4 7 -14 8 -22z m-245 -1 c13 -16 12 -17 -3 -4 -15 11
-21 11 -35 0 -16 -13 -17 -12 -4 4 7 9 17 17 21 17 4 0 14 -8 21 -17z m169 5
c0 -6 -3 -8 -7 -5 -3 4 -16 -1 -27 -10 -21 -18 -21 -18 -2 5 21 24 36 29 36
10z m-1695 -18 c-3 -5 -12 -10 -18 -10 -7 0 -6 4 3 10 19 12 23 12 15 0z m29
1 c3 -5 -2 -15 -12 -22 -15 -12 -16 -12 -5 2 7 9 10 19 6 22 -3 4 -4 7 0 7 3
0 8 -4 11 -9z m1412 -3 c3 -4 -1 -5 -10 -4 -8 1 -18 5 -22 8 -3 4 1 5 10 4 8
-1 18 -5 22 -8z m-1505 -12 c14 8 11 -2 -4 -14 -10 -8 -13 -6 -14 11 0 12 1
16 4 9 3 -6 9 -10 14 -6z m1544 -6 c10 -11 16 -20 13 -20 -3 0 -13 9 -23 20
-10 11 -16 20 -13 20 3 0 13 -9 23 -20z m111 8 c5 4 6 3 2 -2 -4 -5 -3 -14 2
-21 7 -8 5 -12 -5 -12 -8 0 -13 3 -10 5 3 3 -3 15 -12 26 -14 15 -14 18 -2 8
9 -6 20 -8 25 -4z m128 -9 c-10 -12 -18 -24 -17 -28 1 -3 0 -8 -2 -9 -2 -2 -3
3 -1 11 2 16 25 47 34 47 3 0 -3 -9 -14 -21z m-171 -7 c15 -16 15 -19 2 -19
-8 0 -13 3 -10 5 3 3 0 11 -6 19 -17 20 -5 16 14 -5z m193 -10 c-17 -16 -18
-16 -5 5 7 12 15 20 18 17 3 -2 -3 -12 -13 -22z m-1786 -7 c-10 -12 -10 -18 1
-32 12 -17 12 -17 -6 -1 -15 14 -16 20 -5 32 7 9 15 16 17 16 3 0 0 -7 -7 -15z
m1730 11 c0 -2 -8 -10 -17 -17 -16 -13 -17 -12 -4 4 13 16 21 21 21 13z
m-1674 -26 c0 -12 -4 -16 -9 -11 -5 5 -6 14 -3 20 10 15 12 14 12 -9z m56 5
c19 0 14 -11 -6 -11 -12 0 -23 6 -23 13 0 6 5 9 11 5 6 -4 14 -7 18 -7z m1388
-6 c0 -8 -56 -6 -64 2 -3 3 10 5 29 5 19 0 35 -3 35 -7z m95 -17 c-3 -3 0 -11
6 -19 17 -20 5 -16 -14 5 -15 16 -15 19 -2 19 8 0 13 -3 10 -5z m47 1 c-10 -4
-9 -10 5 -26 12 -15 13 -18 2 -9 -9 6 -20 8 -25 4 -5 -4 -6 -3 -2 2 4 5 4 14
-2 20 -6 8 -2 12 13 13 12 0 16 -1 9 -4z m48 2 c0 -2 -6 -8 -13 -14 -10 -8
-14 -7 -14 2 0 8 6 14 14 14 7 0 13 -1 13 -2z m40 0 c0 -1 -12 -12 -27 -26
-20 -17 -23 -18 -10 -3 9 11 15 23 12 26 -3 2 2 5 10 5 8 0 15 -1 15 -2z
m-1626 -24 c14 -15 15 -21 4 -27 -7 -4 -10 -3 -5 1 4 5 0 17 -10 27 -9 10 -14
18 -11 18 3 0 13 -9 22 -19z m34 -6 c-3 -3 -9 2 -12 12 -6 14 -5 15 5 6 7 -7
10 -15 7 -18z m1392 10 c-7 -8 -17 -15 -23 -15 -6 0 -2 7 9 15 25 19 30 19 14
0z m-1457 -13 c15 -16 15 -19 2 -19 -8 0 -13 3 -10 5 3 3 0 11 -6 19 -17 20
-5 16 14 -5z m1498 1 c13 -16 12 -17 -3 -4 -17 13 -22 21 -14 21 2 0 10 -8 17
-17z m-1526 -13 c3 -6 -1 -7 -9 -4 -18 7 -21 14 -7 14 6 0 13 -4 16 -10z m161
-2 c3 -4 -1 -5 -10 -4 -8 1 -18 5 -22 8 -3 4 1 5 10 4 8 -1 18 -5 22 -8z
m1280 0 c3 -4 -1 -5 -10 -4 -8 1 -18 5 -22 8 -3 4 1 5 10 4 8 -1 18 -5 22 -8z
m-1356 -13 c-7 -8 -17 -15 -23 -15 -6 0 -2 7 9 15 25 19 30 19 14 0z m1486
-11 c1 -9 0 -13 -4 -10 -3 4 -7 14 -8 22 -1 9 0 13 4 10 3 -4 7 -14 8 -22z
m-1470 -12 c-17 -16 -18 -16 -5 5 7 12 15 20 18 17 3 -2 -3 -12 -13 -22z
m1531 4 c18 -21 18 -21 -3 -3 -11 9 -23 14 -26 11 -3 -3 -8 -1 -12 4 -11 18
25 8 41 -12z m-1500 -21 c0 -8 -3 -13 -5 -10 -3 3 -12 -1 -21 -7 -10 -8 -9 -4
3 10 23 26 23 26 23 7z m49 -7 c12 -14 13 -18 3 -10 -9 6 -18 10 -21 7 -2 -3
-5 2 -5 10 0 19 0 19 23 -7z m1433 9 c8 -10 7 -14 -2 -14 -8 0 -14 6 -14 14 0
7 1 13 2 13 2 0 8 -6 14 -13z m-1379 -7 c0 -5 -2 -10 -4 -10 -3 0 -8 5 -11 10
-3 6 -1 10 4 10 6 0 11 -4 11 -10z m1276 -2 c3 -4 -2 -5 -13 -3 -10 1 -27 -5
-38 -14 -20 -16 -20 -16 -2 6 17 20 39 24 53 11z m-115 -15 c13 -16 12 -17 -3
-4 -17 13 -22 21 -14 21 2 0 10 -8 17 -17z m-1025 -5 c4 -7 3 -10 -1 -5 -5 4
-18 -2 -30 -13 -17 -16 -22 -17 -22 -6 0 8 4 13 8 11 3 -3 12 2 19 10 15 18
17 18 26 3z m-240 -13 c-1 -8 -5 -17 -8 -21 -5 -4 -4 16 1 34 3 9 9 -1 7 -13z
m1364 11 c0 -2 -8 -10 -17 -17 -16 -13 -17 -12 -4 4 13 16 21 21 21 13z
m-1223 -31 c0 -8 -10 -23 -21 -32 -21 -18 -21 -18 -2 5 11 12 16 22 12 22 -4
0 -4 5 -1 10 9 14 12 13 12 -5z m118 -70 c0 -41 -2 -72 -5 -69 -2 3 -5 39 -5
79 0 41 2 72 5 69 2 -3 5 -39 5 -79z m1045 81 c0 -2 -8 -10 -17 -17 -16 -13
-17 -12 -4 4 13 16 21 21 21 13z m-1270 -10 c0 -2 -8 -10 -17 -17 -16 -13 -17
-12 -4 4 13 16 21 21 21 13z m282 -20 c3 3 8 1 12 -4 11 -18 -25 -8 -41 12
-18 21 -18 21 3 3 11 -9 23 -14 26 -11z m1073 15 c-9 -8 -36 -10 -30 -2 2 4
11 8 20 8 8 0 13 -3 10 -6z m-1304 -18 c13 -16 12 -17 -3 -4 -17 13 -22 21
-14 21 2 0 10 -8 17 -17z m393 -13 c-6 -6 -10 -3 -10 10 0 13 4 16 10 10 7 -7
7 -13 0 -20z m846 26 c0 -2 -8 -10 -17 -17 -16 -13 -17 -12 -4 4 13 16 21 21
21 13z m-1260 -31 c14 -19 14 -19 -2 -6 -10 7 -18 18 -18 24 0 6 1 8 3 6 1 -2
9 -13 17 -24z m160 0 c14 -19 14 -19 -2 -6 -10 7 -18 18 -18 24 0 6 1 8 3 6 1
-2 9 -13 17 -24z m161 12 c-6 -8 -9 -16 -6 -19 3 -2 -2 -5 -10 -5 -13 0 -13 3
2 19 19 21 31 25 14 5z m753 4 c3 -5 -2 -15 -12 -22 -15 -12 -16 -12 -5 2 7 9
10 19 6 22 -3 4 -4 7 0 7 3 0 8 -4 11 -9z m-437 -14 c0 -8 -6 -14 -14 -14 -9
0 -10 4 -2 14 6 7 12 13 14 13 1 0 2 -6 2 -13z m80 0 c0 -8 -6 -14 -14 -14 -9
0 -10 4 -2 14 6 7 12 13 14 13 1 0 2 -6 2 -13z m240 0 c0 -8 -6 -14 -14 -14
-9 0 -10 4 -2 14 6 7 12 13 14 13 1 0 2 -6 2 -13z m80 0 c0 -8 -6 -14 -14 -14
-9 0 -10 4 -2 14 6 7 12 13 14 13 1 0 2 -6 2 -13z m240 0 c0 -8 -6 -14 -14
-14 -9 0 -10 4 -2 14 6 7 12 13 14 13 1 0 2 -6 2 -13z m-836 -10 c-6 -8 -7
-18 -3 -22 4 -5 1 -5 -6 -1 -10 6 -10 11 -1 22 6 8 14 14 16 14 3 0 0 -6 -6
-13z m154 -5 c-3 -3 -11 0 -18 7 -9 10 -8 11 6 5 10 -3 15 -9 12 -12z m79 10
c3 -5 -1 -9 -9 -9 -8 0 -12 4 -9 9 3 4 7 8 9 8 2 0 6 -4 9 -8z m91 -1 c-9 -8
-36 -10 -30 -2 2 4 11 8 20 8 8 0 13 -3 10 -6z m118 -11 c-3 -12 -8 -19 -11
-16 -5 6 5 36 12 36 2 0 2 -9 -1 -20z m32 11 c3 -5 2 -12 -3 -15 -5 -3 -9 1
-9 9 0 17 3 19 12 6z m79 1 c3 -5 -1 -9 -9 -9 -8 0 -12 4 -9 9 3 4 7 8 9 8 2
0 6 -4 9 -8z m241 -10 c-3 -3 -11 0 -18 7 -9 10 -8 11 6 5 10 -3 15 -9 12 -12z
m-1099 -18 c1 -9 0 -13 -4 -10 -3 4 -7 14 -8 22 -1 9 0 13 4 10 3 -4 7 -14 8
-22z m120 0 c1 -9 0 -13 -4 -10 -3 4 -7 14 -8 22 -1 9 0 13 4 10 3 -4 7 -14 8
-22z m241 11 c0 -8 -3 -13 -5 -10 -3 3 -15 -3 -26 -12 -15 -14 -18 -14 -8 -2
6 9 8 20 4 24 -4 5 -2 5 5 1 6 -3 14 -2 18 4 9 14 12 13 12 -5z m59 3 c5 4 6
3 2 -2 -4 -5 -2 -16 4 -25 10 -12 7 -12 -8 2 -11 9 -23 15 -26 12 -2 -3 -5 2
-5 10 0 10 4 12 12 5 7 -5 16 -6 21 -2z m261 -3 c0 -8 -3 -13 -5 -10 -3 3 -15
-3 -26 -12 -15 -14 -18 -14 -8 -2 6 9 8 20 4 24 -4 5 -2 5 5 1 6 -3 14 -2 18
4 9 14 12 13 12 -5z m37 -15 c-6 -6 -10 -3 -10 10 0 13 4 16 10 10 7 -7 7 -13
0 -20z m300 -2 c1 -7 5 -18 8 -24 4 -6 2 -11 -5 -11 -7 0 -13 13 -14 29 -1 28
7 33 11 6z m-915 -32 c-3 -3 -11 5 -18 17 -13 21 -12 21 5 5 10 -10 16 -20 13
-22z m156 26 c-3 -3 0 -11 6 -19 17 -20 5 -16 -14 5 -15 16 -15 19 -2 19 8 0
13 -3 10 -5z m40 -10 c-3 -3 -11 0 -18 7 -9 10 -8 11 6 5 10 -3 15 -9 12 -12z
m170 8 c-3 -5 -12 -10 -18 -10 -7 0 -6 4 3 10 19 12 23 12 15 0z m45 5 c0 -1
-10 -10 -22 -21 -14 -12 -18 -13 -10 -3 6 9 10 18 7 21 -3 2 2 5 10 5 8 0 15
-1 15 -2z m67 -12 c0 -9 -4 -10 -14 -2 -7 6 -13 12 -13 14 0 1 6 2 13 2 8 0
14 -6 14 -14z m43 2 c0 -1 -10 -10 -22 -21 -17 -14 -20 -15 -9 -2 7 9 10 22 6
27 -3 7 0 8 9 5 9 -3 16 -7 16 -9z m165 6 c-9 -8 -36 -10 -30 -2 2 4 11 8 20
8 8 0 13 -3 10 -6z m45 4 c0 -1 -10 -10 -22 -21 -14 -12 -18 -13 -10 -3 6 9
10 18 7 21 -3 2 2 5 10 5 8 0 15 -1 15 -2z m221 -12 c13 -16 12 -17 -3 -4 -10
7 -18 15 -18 17 0 8 8 3 21 -13z m-867 -14 c-10 -12 -18 -24 -17 -28 1 -3 0
-8 -2 -9 -2 -2 -3 3 -1 11 2 16 25 47 34 47 3 0 -3 -9 -14 -21z m173 -1 c0
-13 -1 -17 -4 -10 -3 6 -10 9 -16 5 -7 -4 -6 1 2 10 17 21 17 21 18 -5z m42 8
c9 -10 8 -15 -2 -19 -8 -3 -13 3 -13 14 0 23 0 23 15 5z m278 -1 c0 -8 -3 -13
-5 -10 -3 3 -12 -1 -21 -7 -10 -8 -9 -4 3 10 23 26 23 26 23 7z m63 12 c0 -2
-8 -11 -18 -20 -15 -14 -19 -15 -19 -2 0 8 4 12 8 9 4 -2 10 0 14 6 6 10 15
14 15 7z m167 -15 c-10 -10 -15 -21 -12 -24 3 -3 -5 -13 -17 -24 l-23 -19 19
23 c11 12 15 22 11 22 -4 0 0 9 10 20 10 11 20 20 23 20 3 0 -2 -8 -11 -18z
m-676 -9 c13 -16 12 -17 -3 -4 -10 7 -18 15 -18 17 0 8 8 3 21 -13z m320 0
c13 -16 12 -17 -3 -4 -15 11 -21 11 -35 0 -16 -13 -17 -12 -4 4 7 9 17 17 21
17 4 0 14 -8 21 -17z m415 10 c-2 -3 -6 -3 -9 -1 -3 2 -15 -6 -28 -17 l-24
-20 18 21 c9 11 24 21 32 21 8 0 13 -2 11 -4z m-631 -41 c-3 -3 1 -12 8 -21
11 -14 10 -14 -6 -2 -9 8 -15 16 -12 19 3 3 -1 12 -8 21 -11 14 -10 14 6 2 9
-8 15 -16 12 -19z m95 25 c0 -2 -9 -12 -19 -21 -14 -13 -21 -14 -27 -5 -4 7
-3 10 3 6 6 -4 16 0 23 8 12 14 20 19 20 12z m200 -1 c0 -2 -8 -10 -17 -17
-16 -13 -17 -12 -4 4 13 16 21 21 21 13z m108 -16 c-7 -10 -14 -17 -17 -15 -4
4 18 35 25 35 2 0 -1 -9 -8 -20z m122 6 c-7 -7 -13 -7 -20 0 -6 6 -3 10 10 10
13 0 16 -4 10 -10z m-584 -22 c1 -9 0 -13 -4 -10 -3 4 -7 14 -8 22 -1 9 0 13
4 10 3 -4 7 -14 8 -22z m201 11 c0 -8 -4 -12 -9 -9 -5 3 -6 10 -3 15 9 13 12
11 12 -6z m473 0 c-7 -8 -17 -15 -23 -15 -6 0 -2 7 9 15 25 19 30 19 14 0z
m-581 -9 c9 -11 9 -16 -1 -22 -7 -4 -10 -4 -6 1 4 4 3 14 -3 22 -6 7 -9 13 -6
13 2 0 10 -6 16 -14z m225 -2 c3 -8 2 -12 -4 -9 -6 3 -10 10 -10 16 0 14 7 11
14 -7z m66 -9 c14 -19 14 -19 -2 -6 -10 7 -18 18 -18 24 0 6 1 8 3 6 1 -2 9
-13 17 -24z m171 8 c13 -16 12 -17 -3 -4 -10 7 -18 15 -18 17 0 8 8 3 21 -13z
m-132 -6 c8 -10 7 -14 -2 -14 -8 0 -14 6 -14 14 0 7 1 13 2 13 2 0 8 -6 14
-13z m-282 -15 c-17 -18 -51 -27 -41 -10 3 5 9 6 14 3 4 -3 13 2 20 10 7 8 15
15 18 15 3 0 -2 -8 -11 -18z m127 10 c2 -4 -4 -8 -14 -8 -10 0 -16 4 -14 8 3
4 9 8 14 8 5 0 11 -4 14 -8z m267 -9 c13 -16 12 -17 -3 -4 -17 13 -22 21 -14
21 2 0 10 -8 17 -17z m-485 -15 c12 -14 13 -18 3 -10 -9 6 -18 10 -21 7 -2 -3
-5 2 -5 10 0 19 0 19 23 -7z m266 7 c2 3 5 -2 5 -10 0 -19 0 -19 -23 7 -12 14
-13 18 -3 10 9 -6 18 -10 21 -7z m49 -2 c8 -9 9 -14 2 -10 -6 4 -13 1 -16 -5
-3 -7 -4 -3 -4 10 1 26 1 26 18 5z m111 2 c2 3 5 -2 5 -10 0 -10 -4 -12 -12
-5 -7 5 -14 8 -17 5 -2 -3 -5 2 -5 10 0 10 4 12 12 5 7 -5 14 -8 17 -5z m-181
-32 c13 -16 12 -17 -3 -4 -17 13 -22 21 -14 21 2 0 10 -8 17 -17z"/>
</g>
</svg>
