<svg width="28" height="28" viewBox="0 0 28 28" fill="none" xmlns="http://www.w3.org/2000/svg">
<path d="M26.0775 19.8969C30.43 10.9694 23.9319 0.566888 14 0.562513C3.85061 0.548763 -2.63939 11.3719 2.15311 20.3181L1.80311 21.6206L0.598113 26.1219C0.550745 26.2991 0.550849 26.4857 0.598416 26.6629C0.645982 26.8401 0.739336 27.0017 0.869101 27.1314C0.998866 27.2611 1.16047 27.3544 1.3377 27.4018C1.51492 27.4493 1.70151 27.4493 1.87874 27.4019L6.37874 26.1969L7.67499 25.85C11.4756 27.8831 16.2762 27.915 20.15 26.025M26.0775 19.8969C24.8291 22.5341 22.7464 24.6877 20.1506 26.0256M11.8281 9.65001L15.9956 13.8169L22.1056 9.65001L17.9387 15.76L16.1731 18.3513L12.0062 14.1844L5.89561 18.3513L10.0631 12.2413L11.8281 9.65001Z" stroke="#F6F6F6" stroke-linecap="round" stroke-linejoin="round"/>
</svg>
