<?xml version="1.0" encoding="utf-8"?><svg viewBox="0 0 30 48" xmlns="http://www.w3.org/2000/svg" xmlns:xlink="http://www.w3.org/1999/xlink"><style>:root>svg{display:none}:root>svg:target{display:block}</style><svg fill="none" viewBox="0 0 28 48" id="arrow-slider" xmlns="http://www.w3.org/2000/svg"><path d="M25 3L4 24l21 21" stroke="#333" stroke-width="5" stroke-linecap="round"/></svg><svg fill="none" viewBox="0 0 30 30" id="facebook" xmlns="http://www.w3.org/2000/svg"><path d="M15-.032C6.712-.032-.033 6.711-.033 15c0 8.29 6.745 15.032 15.033 15.032S30.033 23.29 30.033 15 23.288-.032 15-.032zm0 29.063C7.264 29.03.97 22.736.97 15 .97 7.263 7.264.97 15 .97S29.03 7.264 29.03 15 22.736 29.03 15 29.03z" fill="#F6F6F6"/><path d="M18.281 6.563H15.78c-3.186-.032-3.592 1.94-3.592 4.073v1.552H10.78a.418.418 0 00-.469.468v2.813a.417.417 0 00.47.469h1.405v7.031a.42.42 0 00.472.469h2.864c.277.032.5-.192.413-.469l.002-7.031h2.343a.416.416 0 00.469-.469v-2.813a.418.418 0 00-.469-.468h-2.346l.002-1.407c.091-.599.091-.501.647-.468h1.678c.13-.03.269-.013.366-.108.098-.095.154-.224.121-.361V7.032a.417.417 0 00-.468-.47zm-.501 2.76l-1.176-.045c-1.456 0-1.578.79-1.578 1.6l-.003 1.777a.499.499 0 00.5.501h2.29v1.811h-2.288a.502.502 0 00-.502.501V22.5h-1.898V15.47c0-.276-.188-.5-.466-.5H11.25v-1.812h1.41a.5.5 0 00.353-.146c.094-.095.111-.222.111-.355v-2.02c0-2.103.425-3.104 2.655-3.104h2v1.79z" fill="#F6F6F6"/></svg><svg fill="none" viewBox="0 0 30 30" id="instagram" xmlns="http://www.w3.org/2000/svg"><path d="M15 8.125a6.875 6.875 0 100 13.75 6.875 6.875 0 000-13.75zm0 12.5a5.625 5.625 0 110-11.25 5.625 5.625 0 010 11.25zM21.875 0H8.125A8.125 8.125 0 000 8.125v13.75A8.125 8.125 0 008.125 30h13.75A8.125 8.125 0 0030 21.875V8.125A8.125 8.125 0 0021.875 0zm6.875 21.875a6.875 6.875 0 01-6.875 6.875H8.125a6.875 6.875 0 01-6.875-6.875V8.125A6.875 6.875 0 018.125 1.25h13.75a6.875 6.875 0 016.875 6.875v13.75zm-4.375-15a1.25 1.25 0 11-2.5 0 1.25 1.25 0 012.5 0z" fill="#F6F6F6"/></svg><svg fill="none" viewBox="0 0 28 28" id="messenger" xmlns="http://www.w3.org/2000/svg"><path d="M26.078 19.897C30.43 10.969 23.931.567 14 .563 3.85.549-2.64 11.372 2.153 20.318l-.35 1.303-1.205 4.5a1.045 1.045 0 001.28 1.28l4.5-1.204 1.297-.347c3.8 2.033 8.601 2.065 12.475.175m5.928-6.128a13.296 13.296 0 01-5.927 6.129M11.828 9.65l4.168 4.167 6.11-4.167-4.167 6.11-1.766 2.591-4.167-4.167-6.11 4.167 4.167-6.11 1.765-2.591z" stroke="#F6F6F6" stroke-linecap="round" stroke-linejoin="round"/></svg></svg>