<?xml version="1.0" encoding="utf-8"?><svg viewBox="0 0 100 100" xmlns="http://www.w3.org/2000/svg" xmlns:xlink="http://www.w3.org/1999/xlink"><style>:root>svg{display:none}:root>svg:target{display:block}</style><svg fill="none" viewBox="0 0 25 24" id="arrow-faq" xmlns="http://www.w3.org/2000/svg"><path d="M24.006 2a1.5 1.5 0 00-1.5-1.5h-13.5a1.5 1.5 0 000 3h12v12a1.5 1.5 0 003 0V2zM3.061 23.567L23.567 3.06 21.445.94.94 21.444l2.122 2.122z" fill="#333"/></svg><svg fill="none" viewBox="0 0 28 48" id="arrow-slider" xmlns="http://www.w3.org/2000/svg"><path d="M25 3L4 24l21 21" stroke="#333" stroke-width="5" stroke-linecap="round"/></svg><svg fill="none" viewBox="0 0 100 100" id="circle" xmlns="http://www.w3.org/2000/svg"><path d="M100 50c0 27.614-22.386 50-50 50S0 77.614 0 50 22.386 0 50 0s50 22.386 50 50zM7.5 50c0 23.472 19.028 42.5 42.5 42.5S92.5 73.472 92.5 50 73.472 7.5 50 7.5 7.5 26.528 7.5 50z" fill="url(#cpaint0_linear_1_172)"/><defs><linearGradient id="cpaint0_linear_1_172" x1="0" y1="50" x2="100" y2="50" gradientUnits="userSpaceOnUse"><stop stop-color="#00B09B"/><stop offset="1" stop-color="#7AE582"/></linearGradient></defs></svg><svg fill="none" viewBox="0 0 38 50" id="drop" xmlns="http://www.w3.org/2000/svg"><path d="M18.627 0c0 4.63 18.628 19.444 18.628 31.482C37.255 43.519 26.735 50 19.233 50 10.245 50 0 43.519 0 31.482 0 17.591 18.627 4.63 18.627 0z" fill="#333"/></svg><svg fill="none" viewBox="0 0 30 30" id="facebook" xmlns="http://www.w3.org/2000/svg"><path d="M15-.032C6.712-.032-.033 6.711-.033 15c0 8.29 6.745 15.032 15.033 15.032S30.033 23.29 30.033 15 23.288-.032 15-.032zm0 29.063C7.264 29.03.97 22.736.97 15 .97 7.263 7.264.97 15 .97S29.03 7.264 29.03 15 22.736 29.03 15 29.03z" fill="#F6F6F6"/><path d="M18.281 6.563H15.78c-3.186-.032-3.592 1.94-3.592 4.073v1.552H10.78a.418.418 0 00-.469.468v2.813a.417.417 0 00.47.469h1.405v7.031a.42.42 0 00.472.469h2.864c.277.032.5-.192.413-.469l.002-7.031h2.343a.416.416 0 00.469-.469v-2.813a.418.418 0 00-.469-.468h-2.346l.002-1.407c.091-.599.091-.501.647-.468h1.678c.13-.03.269-.013.366-.108.098-.095.154-.224.121-.361V7.032a.417.417 0 00-.468-.47zm-.501 2.76l-1.176-.045c-1.456 0-1.578.79-1.578 1.6l-.003 1.777a.499.499 0 00.5.501h2.29v1.811h-2.288a.502.502 0 00-.502.501V22.5h-1.898V15.47c0-.276-.188-.5-.466-.5H11.25v-1.812h1.41a.5.5 0 00.353-.146c.094-.095.111-.222.111-.355v-2.02c0-2.103.425-3.104 2.655-3.104h2v1.79z" fill="#F6F6F6"/></svg><svg fill="none" viewBox="0 0 30 30" id="instagram" xmlns="http://www.w3.org/2000/svg"><path d="M15 8.125a6.875 6.875 0 100 13.75 6.875 6.875 0 000-13.75zm0 12.5a5.625 5.625 0 110-11.25 5.625 5.625 0 010 11.25zM21.875 0H8.125A8.125 8.125 0 000 8.125v13.75A8.125 8.125 0 008.125 30h13.75A8.125 8.125 0 0030 21.875V8.125A8.125 8.125 0 0021.875 0zm6.875 21.875a6.875 6.875 0 01-6.875 6.875H8.125a6.875 6.875 0 01-6.875-6.875V8.125A6.875 6.875 0 018.125 1.25h13.75a6.875 6.875 0 016.875 6.875v13.75zm-4.375-15a1.25 1.25 0 11-2.5 0 1.25 1.25 0 012.5 0z" fill="#F6F6F6"/></svg><svg fill="none" viewBox="0 0 28 28" id="messenger" xmlns="http://www.w3.org/2000/svg"><path d="M26.078 19.897C30.43 10.969 23.931.567 14 .563 3.85.549-2.64 11.372 2.153 20.318l-.35 1.303-1.205 4.5a1.045 1.045 0 001.28 1.28l4.5-1.204 1.297-.347c3.8 2.033 8.601 2.065 12.475.175m5.928-6.128a13.296 13.296 0 01-5.927 6.129M11.828 9.65l4.168 4.167 6.11-4.167-4.167 6.11-1.766 2.591-4.167-4.167-6.11 4.167 4.167-6.11 1.765-2.591z" stroke="#F6F6F6" stroke-linecap="round" stroke-linejoin="round"/></svg><svg fill="none" viewBox="0 0 52 47" id="telegram" xmlns="http://www.w3.org/2000/svg"><path d="M1.871 20.726C14.526 15.888 51 1 51 1l-7.258 42.057c-.372 2.047-2.791 2.792-4.28 1.489l-11.352-9.49-8.002 7.443 1.303-12.468L45.603 7.14l-29.775 18.61 1.861 10.607-6.141-9.863-9.305-2.978c-1.488-.558-1.675-2.419-.372-2.791z" stroke="url(#hpaint0_linear_1_173)" stroke-width="2" stroke-miterlimit="10" stroke-linecap="round" stroke-linejoin="round"/><defs><linearGradient id="hpaint0_linear_1_173" x1="1" y1="23.097" x2="51" y2="23.097" gradientUnits="userSpaceOnUse"><stop stop-color="#00B09B"/><stop offset="1" stop-color="#7AE582"/></linearGradient></defs></svg><svg fill="none" viewBox="0 0 46 50" id="viber" xmlns="http://www.w3.org/2000/svg"><path d="M11.926 43.486v-.34l-.316-.125A17.622 17.622 0 01.5 26.666v-8.58C.5 8.39 8.391.5 18.09.5h9.524c9.7 0 17.59 7.89 17.59 17.587v8.579c0 9.697-7.89 17.586-17.59 17.586H18.346l-.143.13-5.521 5-.001.001a.45.45 0 01-.485.078h-.001a.45.45 0 01-.269-.413v-5.562zm5.942-.02v-.001a.45.45 0 01.303-.117h9.443c9.202 0 16.686-7.483 16.686-16.682v-8.58c0-9.198-7.484-16.682-16.686-16.682H18.09c-9.2 0-16.686 7.484-16.686 16.683v8.579c0 7.059 4.471 13.382 11.125 15.735h.001c.18.063.3.233.3.425v5.202l.836-.757 4.202-3.806z" fill="url(#ipaint0_linear_1_164)" stroke="url(#ipaint1_linear_1_164)"/><path d="M29.311 25.653h0a2.351 2.351 0 00-3.26.69v.002l-.275.422-.21.323-.366-.12c-1.27-.42-2.677-.92-3.977-1.957-1.308-1.044-2.474-2.606-3.336-5.102l-.11-.319.254-.221.693-.602a2.36 2.36 0 00.23-3.325l-4.578-5.267h0a.453.453 0 00-.639-.044s0 0 0 0l-2.874 2.498s0 0 0 0c-1.12.974-1.422 2.172-1.397 3.284.026 1.127.39 2.136.583 2.667v.002c.008.02.018.042.03.064.101.182 2.461 4.387 6.262 8.259h0c1.894 1.929 4.569 3.8 6.817 5.21a68.148 68.148 0 003.757 2.19l.257.136.075.04.022.01.007.004.002.001h0l.027.014.025.016a4.266 4.266 0 005.894-1.253l2.073-3.192s0 0 0 0a.455.455 0 00-.134-.629l-5.852-3.8zm0 0l5.852 3.801-5.852-3.8zM10.887 18.24l-.015-.042c-.388-1.088-.57-2.023-.487-2.835.085-.836.448-1.507 1.072-2.049h0l2.156-1.874.378-.328.328.377 3.953 4.548s0 0 0 0c.532.611.47 1.518-.14 2.049h0l-1.169 1.015-6.076-.861zm0 0l.022.038m-.022-.038l.022.038m0 0c.317.554 2.613 4.467 6.077 7.996 1.873 1.908 4.565 3.77 6.774 5.148a66.046 66.046 0 004.003 2.314c1.619 1.03 3.691.602 4.701-.954 0 0 0 0 0 0l1.556-2.397.272-.42-.419-.272M10.91 18.278l22.964 11.415M16.827 19.575h0c.97 3.152 2.384 4.998 3.866 6.17 1.493 1.182 3.088 1.71 4.506 2.175h0l.413.136.003.001a.449.449 0 00.52-.182h0l.675-1.039s0 0 0 0h0l-9.983-7.261zm0 0a.451.451 0 01.136-.474l-.136.474zm17.046 10.118l-5.054-3.282 5.054 3.282z" fill="url(#ipaint2_linear_1_164)" stroke="url(#ipaint3_linear_1_164)"/><path d="M24.89 15.95l.002.001a5.725 5.725 0 013.915 3.925h0a.453.453 0 11-.87.245 4.808 4.808 0 00-3.293-3.3h0a.452.452 0 01-.311-.559h0a.45.45 0 01.557-.311z" fill="url(#ipaint4_linear_1_164)" stroke="url(#ipaint5_linear_1_164)"/><path d="M32.71 20.082h0a.452.452 0 11-.872.245 10.674 10.674 0 00-7.305-7.322.452.452 0 01.245-.87h.002a11.592 11.592 0 017.93 7.947z" fill="url(#ipaint6_linear_1_164)" stroke="url(#ipaint7_linear_1_164)"/><path d="M24.37 7.7h0c6.14 1.748 11.03 6.65 12.763 12.793h0a.453.453 0 01-.87.245h0c-1.649-5.845-6.3-10.506-12.14-12.168h0a.452.452 0 01-.311-.558h0a.45.45 0 01.557-.312z" fill="url(#ipaint8_linear_1_164)" stroke="url(#ipaint9_linear_1_164)"/><defs><linearGradient id="ipaint0_linear_1_164" x1="0" y1="25" x2="45.705" y2="25" gradientUnits="userSpaceOnUse"><stop stop-color="#00B09B"/><stop offset="1" stop-color="#7AE582"/></linearGradient><linearGradient id="ipaint1_linear_1_164" x1="0" y1="25" x2="45.705" y2="25" gradientUnits="userSpaceOnUse"><stop stop-color="#00B09B"/><stop offset="1" stop-color="#7AE582"/></linearGradient><linearGradient id="ipaint2_linear_1_164" x1="8.965" y1="22.618" x2="35.87" y2="22.618" gradientUnits="userSpaceOnUse"><stop stop-color="#00B09B"/><stop offset="1" stop-color="#7AE582"/></linearGradient><linearGradient id="ipaint3_linear_1_164" x1="8.965" y1="22.618" x2="35.87" y2="22.618" gradientUnits="userSpaceOnUse"><stop stop-color="#00B09B"/><stop offset="1" stop-color="#7AE582"/></linearGradient><linearGradient id="ipaint4_linear_1_164" x1="23.815" y1="18.192" x2="29.325" y2="18.192" gradientUnits="userSpaceOnUse"><stop stop-color="#00B09B"/><stop offset="1" stop-color="#7AE582"/></linearGradient><linearGradient id="ipaint5_linear_1_164" x1="23.815" y1="18.192" x2="29.325" y2="18.192" gradientUnits="userSpaceOnUse"><stop stop-color="#00B09B"/><stop offset="1" stop-color="#7AE582"/></linearGradient><linearGradient id="ipaint6_linear_1_164" x1="23.704" y1="16.387" x2="33.227" y2="16.387" gradientUnits="userSpaceOnUse"><stop stop-color="#00B09B"/><stop offset="1" stop-color="#7AE582"/></linearGradient><linearGradient id="ipaint7_linear_1_164" x1="23.704" y1="16.387" x2="33.227" y2="16.387" gradientUnits="userSpaceOnUse"><stop stop-color="#00B09B"/><stop offset="1" stop-color="#7AE582"/></linearGradient><linearGradient id="ipaint8_linear_1_164" x1="23.294" y1="14.375" x2="37.651" y2="14.375" gradientUnits="userSpaceOnUse"><stop stop-color="#00B09B"/><stop offset="1" stop-color="#7AE582"/></linearGradient><linearGradient id="ipaint9_linear_1_164" x1="23.294" y1="14.375" x2="37.651" y2="14.375" gradientUnits="userSpaceOnUse"><stop stop-color="#00B09B"/><stop offset="1" stop-color="#7AE582"/></linearGradient></defs></svg><svg fill="none" viewBox="0 0 46 46" id="whatsapp" xmlns="http://www.w3.org/2000/svg"><path d="M23 0C10.31 0 0 10.31 0 23c0 4.08 1.119 7.886 2.984 11.209L.037 44.73a1 1 0 001.203 1.24l10.97-2.718C15.436 44.972 19.094 46 23 46c12.69 0 23-10.31 23-23S35.69 0 23 0zm0 2c11.61 0 21 9.39 21 21s-9.39 21-21 21a20.89 20.89 0 01-10.238-2.666 1 1 0 00-.729-.098l-9.607 2.381 2.576-9.191a1 1 0 00-.1-.78A20.88 20.88 0 012 23C2 11.39 11.39 2 23 2zm-8.357 9c-.642 0-1.557.239-2.309 1.049-.452.487-2.334 2.32-2.334 5.545 0 3.361 2.331 6.262 2.613 6.634h.002v.002a31.677 31.677 0 003.004 3.684c1.804 1.899 4.34 4.093 7.486 5.436 1.45.617 2.593.99 3.46 1.261 1.605.504 3.067.428 4.165.266.823-.121 1.727-.516 2.622-1.082.894-.566 1.771-1.27 2.158-2.34a8.25 8.25 0 00.468-2.058c.026-.292.03-.55.01-.788-.019-.238.002-.42-.22-.785-.466-.764-.993-.784-1.543-1.056-.306-.152-1.176-.577-2.05-.993-.871-.415-1.626-.783-2.091-.949-.294-.105-.652-.258-1.17-.199-.517.059-1.029.432-1.326.873-.282.418-1.418 1.758-1.764 2.152-.004-.003.026.011-.111-.056-.428-.212-.952-.392-1.727-.801a14.288 14.288 0 01-2.804-1.947v-.002c-1.579-1.39-2.685-3.135-3.034-3.721.024-.028-.002.006.047-.043l.002-.002c.357-.351.673-.77.94-1.078.378-.436.545-.82.726-1.18.361-.716.16-1.503-.049-1.918v-.002c.015.029-.112-.252-.25-.576l-.5-1.195c-.374-.899-.792-1.906-1.04-2.496v-.002c-.293-.695-.69-1.196-1.208-1.438-.518-.241-.975-.173-.994-.174h-.002c-.37-.017-.775-.021-1.177-.021zm0 2c.385 0 .765.005 1.084.02.327.016.307.017.244-.012-.064-.03.022-.04.209.402.243.578.663 1.59 1.039 2.49.188.451.363.874.504 1.205.14.332.216.517.304.694v.002l.002.002c.087.17.08.061.05.12-.212.42-.24.523-.454.768-.325.375-.657.792-.832.965-.154.151-.43.386-.604.846-.173.46-.092 1.093.186 1.564.37.629 1.59 2.613 3.484 4.282a16.357 16.357 0 003.194 2.216c.888.469 1.611.743 1.773.823.384.19.805.338 1.293.279.489-.059.91-.355 1.178-.658l.002-.002c.357-.405 1.417-1.615 1.926-2.361.021.007.014.001.183.062v.002h.002c.077.027 1.044.46 1.906.871.863.41 1.738.838 2.022.979.41.203.604.335.654.335.004.089.007.184-.006.329a6.362 6.362 0 01-.357 1.552c-.105.292-.654.893-1.346 1.33-.692.438-1.534.748-1.846.793-.937.139-2.05.189-3.273-.195a33.424 33.424 0 01-3.273-1.193c-2.776-1.184-5.135-3.199-6.82-4.973a29.722 29.722 0 01-1.999-2.338c-.48-.623-.688-.948-.863-1.178l-.002-.002c-.31-.41-2.207-3.048-2.207-5.425 0-2.516 1.168-3.503 1.8-4.184.333-.357.696-.41.843-.41z" fill="url(#jpaint0_linear_1_161)"/><defs><linearGradient id="jpaint0_linear_1_161" x1="0" y1="23" x2="46" y2="23" gradientUnits="userSpaceOnUse"><stop stop-color="#00B09B"/><stop offset="1" stop-color="#7AE582"/></linearGradient></defs></svg></svg>