<svg width="46" height="50" viewBox="0 0 46 50" fill="none" xmlns="http://www.w3.org/2000/svg">
<path d="M27.6142 0H18.0905C8.11544 0 0 8.11354 0 18.0867V26.6658C0 34.0929 4.56381 40.7676 11.4262 43.4861V49.0478C11.4262 49.4249 11.648 49.7658 11.9927 49.9181C12.1165 49.9733 12.2479 50 12.3784 50C12.6097 50 12.8392 49.9153 13.0173 49.7534L18.539 44.7525H27.6142C37.5893 44.7525 45.7047 36.639 45.7047 26.6658V18.0867C45.7047 8.11354 37.5893 0 27.6142 0ZM43.8003 26.6658C43.8003 35.5887 36.54 42.8482 27.6142 42.8482H18.1714C17.9353 42.8482 17.7077 42.9358 17.5325 43.0948L13.3305 46.9006V42.8263C13.3305 42.4225 13.0763 42.0626 12.6954 41.9293C6.24155 39.6469 1.90436 33.513 1.90436 26.6658V18.0867C1.90436 9.16379 9.1657 1.90436 18.0905 1.90436H27.6142C36.54 1.90436 43.8003 9.16379 43.8003 18.0867V26.6658V26.6658Z" fill="#5F6F56"/>
<path d="M35.4357 29.0349L29.5836 25.2338C28.9438 24.8177 28.182 24.6768 27.4365 24.831C26.6899 24.9881 26.0482 25.429 25.6321 26.0717L25.3569 26.4945C22.8241 25.6575 20.0313 24.5882 18.3593 19.7483L19.0515 19.1465C20.2399 18.1134 20.3646 16.3061 19.3315 15.1159L14.7534 9.8494C14.4087 9.45234 13.8069 9.4114 13.4099 9.75513L10.5352 12.2537C8.01386 14.4456 9.19171 17.6878 9.57925 18.7532C9.59639 18.8009 9.61734 18.8466 9.64209 18.8913C9.74207 19.0703 12.1292 23.3304 15.9846 27.2572C19.8552 31.2002 26.8433 34.8413 27.0575 34.947C27.8554 35.465 28.7533 35.7135 29.6417 35.7135C31.2014 35.7135 32.7306 34.9489 33.6428 33.5473L35.7166 30.3537C36.0023 29.9109 35.8766 29.3215 35.4357 29.0349ZM32.045 32.5094C31.1871 33.831 29.4141 34.2062 28.0144 33.3035C27.9449 33.2673 21.0026 29.6519 17.3433 25.9241C13.9231 22.4401 11.6521 18.5695 11.3427 18.0296C10.5886 15.9148 10.7219 14.6151 11.7845 13.6915L13.9412 11.8176L17.8946 16.3652C18.246 16.7689 18.2051 17.3593 17.8032 17.7087L16.6349 18.7237C16.3502 18.9713 16.2379 19.3626 16.3493 19.7226C18.3412 26.1955 22.2147 27.4667 25.0427 28.395L25.455 28.5312C25.8673 28.6702 26.3186 28.5112 26.5547 28.1475L27.2298 27.1077C27.3689 26.8925 27.5821 26.7468 27.8297 26.6944C28.0782 26.6411 28.3315 26.6906 28.5467 26.8306L33.6009 30.1128L32.045 32.5094Z" fill="#5F6F56"/>
<path d="M25.0285 15.4701C24.522 15.3244 23.9954 15.6186 23.8516 16.1252C23.7079 16.6308 24.0011 17.1574 24.5067 17.3011C25.9255 17.7049 27.0557 18.837 27.4556 20.2567C27.5737 20.6757 27.9555 20.9508 28.3716 20.9508C28.4573 20.9508 28.544 20.9394 28.6306 20.9156C29.1362 20.7728 29.4314 20.2472 29.2886 19.7406C28.7106 17.6896 27.0776 16.0528 25.0285 15.4701Z" fill="#5F6F56"/>
<path d="M32.2735 21.1566C32.3592 21.1566 32.4458 21.1451 32.5325 21.1213C33.039 20.9785 33.3333 20.4519 33.1904 19.9463C32.0669 15.9634 28.897 12.7869 24.9169 11.6538C24.4113 11.5081 23.8848 11.8042 23.741 12.3098C23.5972 12.8154 23.8905 13.342 24.3961 13.4858C27.7449 14.438 30.412 17.1126 31.3575 20.4634C31.4765 20.8823 31.8574 21.1566 32.2735 21.1566Z" fill="#5F6F56"/>
<path d="M24.5077 7.21941C24.0012 7.07373 23.4746 7.36795 23.3308 7.87547C23.187 8.38108 23.4803 8.90763 23.9859 9.05141C29.66 10.6654 34.18 15.1958 35.7816 20.8737C35.8996 21.2927 36.2814 21.5678 36.6975 21.5678C36.7832 21.5678 36.8699 21.5564 36.9565 21.5326C37.4621 21.3898 37.7573 20.8632 37.6145 20.3576C35.8349 14.0475 30.8131 9.01428 24.5077 7.21941Z" fill="#5F6F56"/>
</svg>
