<svg width="49" height="53" viewBox="0 0 49 53" fill="none" xmlns="http://www.w3.org/2000/svg">
<path d="M12.7549 45.67V45.3303L12.439 45.2051C5.42211 42.4254 0.754883 35.5993 0.754883 28.005V18.995C0.754883 8.79725 9.05392 0.5 19.2539 0.5H29.2559C39.4558 0.5 47.7549 8.79725 47.7549 18.995V28.005C47.7549 38.2028 39.4558 46.5 29.2559 46.5H19.7249H19.5321L19.3892 46.6294L13.5902 51.8814L13.5895 51.882C13.4969 51.9663 13.3766 52.011 13.2549 52.011C13.1861 52.011 13.1177 51.997 13.0536 51.9684L13.052 51.9677C12.8713 51.8878 12.7549 51.7093 12.7549 51.511V45.67ZM19.0035 45.6296L19.0039 45.6292C19.0957 45.5459 19.2149 45.5 19.3389 45.5H29.2559C38.9059 45.5 46.7549 37.6522 46.7549 28.005V18.995C46.7549 9.34776 38.9059 1.5 29.2559 1.5H19.2539C9.60486 1.5 1.75488 9.34774 1.75488 18.995V28.005C1.75488 35.4079 6.44341 42.0387 13.4212 44.5064L13.4227 44.5069C13.6212 44.5764 13.7549 44.7644 13.7549 44.977V49.256V50.3835L14.5905 49.6266L19.0035 45.6296ZM14.2549 48.5814V44.977C14.2549 44.553 13.9879 44.175 13.5879 44.035C6.80988 41.638 2.25488 35.196 2.25488 28.005V18.995C2.25488 9.624 9.88088 2 19.2539 2H29.2559C38.6299 2 46.2549 9.624 46.2549 18.995V28.005C46.2549 37.376 38.6299 45 29.2559 45H19.3389C19.0909 45 18.8519 45.092 18.6679 45.259L14.2549 48.5814Z" stroke="url(#paint0_linear_102_5)"/>
<path d="M31.0523 26.9203L31.0521 26.9201C30.4917 26.5557 29.8265 26.4322 29.1717 26.5675C28.5187 26.7051 27.959 27.0895 27.5944 27.6527L27.5937 27.6537L27.3047 28.0977L27.0946 28.4206L26.7288 28.2997C25.3952 27.8591 23.9212 27.3362 22.5602 26.2497C21.1902 25.1561 19.9682 23.5203 19.0641 20.9032L18.9538 20.5841L19.2086 20.3626L19.9356 19.7306C20.9746 18.8274 21.0847 17.2453 20.1803 16.203L31.0523 26.9203ZM31.0523 26.9203L37.1981 30.9122L31.0523 26.9203ZM11.7117 19.1449L11.6967 19.1029C11.29 17.9622 11.1004 16.9841 11.1868 16.1371C11.2756 15.2658 11.6534 14.5668 12.3037 14.0016L12.3037 14.0016L14.5687 12.0336L14.9461 11.7057L15.274 12.0829L19.4258 16.8587C19.4259 16.8588 19.426 16.8589 19.426 16.8589C19.9755 17.4905 19.9119 18.4264 19.2808 18.9753L19.2806 18.9754L18.0538 20.0413C17.9034 20.172 17.8452 20.3774 17.9033 20.5651L17.9036 20.5659C18.9235 23.8803 20.4107 25.8234 21.9717 27.0585C23.5435 28.3022 25.223 28.8572 26.7116 29.3459L26.7125 29.3462L27.1455 29.4892L27.1484 29.4902C27.3636 29.5628 27.5999 29.4804 27.7243 29.2887L27.7243 29.2887L28.4327 28.1977C28.4327 28.1976 28.4327 28.1976 28.4328 28.1975C28.6512 27.8595 28.989 27.6285 29.3785 27.546M11.7117 19.1449L29.3792 27.5458C29.379 27.5459 29.3787 27.5459 29.3785 27.546M11.7117 19.1449L11.7339 19.1836C12.0666 19.7641 14.4765 23.8721 18.1129 27.5762C20.0773 29.5775 22.9023 31.5309 25.2222 32.979C27.4319 34.3584 29.2144 35.2984 29.4256 35.4089C31.1145 36.4837 33.2759 36.0366 34.329 34.4142C34.3291 34.4142 34.3291 34.4142 34.3291 34.4142L35.963 31.8972L36.2353 31.4779L35.816 31.2056L30.5083 27.7588M11.7117 19.1449L30.5083 27.7588M29.3785 27.546C29.7739 27.4613 30.1749 27.542 30.5083 27.7588M29.3785 27.546L30.5083 27.7588M15.3723 10.672L20.1801 16.2027L35.1683 34.9597C34.3065 36.2836 32.8617 37.007 31.3857 37.007C30.5463 37.007 29.6984 36.7724 28.9439 36.2826L28.9193 36.2666L28.8929 36.2536C28.7965 36.206 26.9203 35.2307 24.5629 33.7517C22.2011 32.27 19.3901 30.3036 17.3995 28.2757L17.3995 28.2757C13.4044 24.2066 10.9248 19.787 10.8188 19.5972C10.8051 19.5724 10.7945 19.5489 10.7861 19.5256L10.7856 19.5241C10.5824 18.9655 10.199 17.9031 10.1719 16.7142C10.1452 15.5418 10.4643 14.2751 11.6477 13.2464C11.6477 13.2464 11.6477 13.2463 11.6477 13.2463L14.6659 10.623C14.666 10.6229 14.6661 10.6228 14.6662 10.6228C14.8759 10.4415 15.1921 10.4644 15.3721 10.6718L15.3723 10.672ZM37.3455 31.6069L35.1686 34.9592L37.1983 30.9123C37.4294 31.0627 37.4964 31.3723 37.3459 31.6063C37.3458 31.6065 37.3457 31.6067 37.3455 31.6069Z" stroke="url(#paint1_linear_102_5)"/>
<path d="M26.4013 16.7279L26.3999 16.7275C26.1351 16.6514 25.8588 16.8046 25.7831 17.0715L25.783 17.0717C25.7075 17.3372 25.8615 17.6136 26.1268 17.6891L26.1269 17.6891C27.7836 18.1605 29.1012 19.4801 29.5683 21.1384L26.4013 16.7279ZM26.4013 16.7279C28.3863 17.2924 29.9709 18.8807 30.5308 20.8676L30.5308 20.8677M26.4013 16.7279L30.5308 20.8677M30.5308 20.8677C30.6056 21.1329 30.4516 21.4085 30.1868 21.4843C30.1395 21.4972 30.0937 21.503 30.0491 21.503C29.8305 21.503 29.6301 21.3576 29.5683 21.1384L30.5308 20.8677Z" stroke="url(#paint2_linear_102_5)"/>
<path d="M26.0116 13.6821C25.7463 13.6066 25.5923 13.3303 25.6677 13.0648C25.7439 12.797 26.0214 12.644 26.2834 12.7195L26.2849 12.7199C30.2981 13.8624 33.4967 17.0678 34.6296 21.0838L34.6296 21.0839C34.7044 21.3487 34.5507 21.6247 34.2857 21.7003C34.2384 21.7132 34.1925 21.719 34.1478 21.719C33.9292 21.719 33.7293 21.5745 33.6668 21.3544L33.1858 21.491M26.0116 13.6821L25.8748 14.163M26.0116 13.6821L25.8748 14.163M26.0116 13.6821C29.6957 14.7296 32.6269 17.6694 33.667 21.3552L33.1858 21.491M25.8748 14.163C25.3438 14.012 25.0358 13.459 25.1868 12.928C25.3378 12.397 25.8908 12.086 26.4218 12.239L33.1858 21.491M25.8748 14.163C29.3918 15.163 32.1928 17.972 33.1858 21.491" stroke="url(#paint3_linear_102_5)"/>
<path d="M25.8525 8.06253L25.8538 8.0629C32.3089 9.9004 37.4526 15.0558 39.2745 21.5157L39.2745 21.5159C39.3492 21.7801 39.1952 22.0565 38.9305 22.1323C38.8832 22.1452 38.8373 22.151 38.7927 22.151C38.5741 22.151 38.3737 22.0056 38.3119 21.7864L38.3119 21.7863C36.5828 15.6563 31.7055 10.7676 25.5795 9.02508L25.5795 9.02507C25.3142 8.94963 25.1601 8.67325 25.2356 8.40777L25.2358 8.40729C25.3117 8.13935 25.588 7.98646 25.8525 8.06253Z" stroke="url(#paint4_linear_102_5)"/>
<defs>
<linearGradient id="paint0_linear_102_5" x1="0.254883" y1="26.2555" x2="48.2549" y2="26.2555" gradientUnits="userSpaceOnUse">
<stop stop-color="#00B09B"/>
<stop offset="1" stop-color="#7AE582"/>
</linearGradient>
<linearGradient id="paint1_linear_102_5" x1="9.67041" y1="23.7536" x2="37.9264" y2="23.7536" gradientUnits="userSpaceOnUse">
<stop stop-color="#00B09B"/>
<stop offset="1" stop-color="#7AE582"/>
</linearGradient>
<linearGradient id="paint2_linear_102_5" x1="25.2637" y1="19.1054" x2="31.0498" y2="19.1054" gradientUnits="userSpaceOnUse">
<stop stop-color="#00B09B"/>
<stop offset="1" stop-color="#7AE582"/>
</linearGradient>
<linearGradient id="paint3_linear_102_5" x1="25.1484" y1="17.2095" x2="35.1487" y2="17.2095" gradientUnits="userSpaceOnUse">
<stop stop-color="#00B09B"/>
<stop offset="1" stop-color="#7AE582"/>
</linearGradient>
<linearGradient id="paint4_linear_102_5" x1="24.7163" y1="15.0969" x2="39.7935" y2="15.0969" gradientUnits="userSpaceOnUse">
<stop stop-color="#00B09B"/>
<stop offset="1" stop-color="#7AE582"/>
</linearGradient>
</defs>
</svg>
